<svg xmlns="http://www.w3.org/2000/svg" viewBox="0 0 369 148"><defs><style>.cls-1{fill:#faccf7;}.cls-2{fill:#3599f9;}.cls-3{fill:#c3e0fd;}.cls-4{fill:#befbf2;}.cls-5{fill:#f7bfb9;}.cls-6{fill:#ee5c6d;}.cls-7{fill:#facbf9;}.cls-8{fill:#f0c5c3;}.cls-9{fill:#a5fef0;}.cls-10{fill:#feba51;}.cls-11{fill:#2ed5c3;}.cls-12{fill:#8fdcf9;}.cls-13{fill:#b7fbef;}</style></defs><title>koin</title><g id="Layer_2" data-name="Layer 2"><path class="cls-1" d="M162.19,19.42H162a.92.92,0,0,1-.6-.39l-1.21-1.81-1.95,1.95a.89.89,0,0,1-.7.26.92.92,0,0,1-.67-.36l-2.18-2.92-2.92,2.19a.91.91,0,0,1-1.09-1.46l3.64-2.73a.92.92,0,0,1,1.28.18l2.1,2.8,2-2a.91.91,0,0,1,.73-.27,1,1,0,0,1,.67.4l1.29,1.94,2.87-2.16a.91.91,0,1,1,1.09,1.46l-3.64,2.73A.91.91,0,0,1,162.19,19.42Z"/><path class="cls-1" d="M312,65.38l-.15,0a.86.86,0,0,1-.6-.39l-1.21-1.81-1.95,2a.91.91,0,0,1-1.37-.1l-2.19-2.91-2.91,2.18a.91.91,0,1,1-1.09-1.45l3.64-2.74a.91.91,0,0,1,1.28.19l2.1,2.8,2-2a.91.91,0,0,1,1.4.14l1.29,1.93L315.11,61a.91.91,0,0,1,1.28.19.9.9,0,0,1-.19,1.27l-3.64,2.73A.92.92,0,0,1,312,65.38Z"/><polygon class="cls-2" points="36.01 4.31 31.91 4.31 29.86 7.86 31.91 11.41 36.01 11.41 38.06 7.86 36.01 4.31"/><polygon class="cls-3" points="81.08 71.5 76.98 71.5 74.94 75.05 76.98 78.6 81.08 78.6 83.13 75.05 81.08 71.5"/><path class="cls-4" d="M88.18,24.82l-.17,0a.91.91,0,0,1-.72-1.07l.91-4.56a.94.94,0,0,1,.49-.64.92.92,0,0,1,.81,0l2.58,1.29.68-3.39a.89.89,0,0,1,.49-.64,1,1,0,0,1,.81,0l2.62,1.32.64-2.54a.91.91,0,0,1,1.1-.67A.92.92,0,0,1,99.09,15l-.91,3.64a.92.92,0,0,1-1.3.6L94.31,18l-.68,3.38a.91.91,0,0,1-1.3.64L89.75,20.7l-.67,3.38A.92.92,0,0,1,88.18,24.82Z"/><path class="cls-5" d="M92.74,39.39a.91.91,0,0,1-.9-.78l-.91-6.38a.9.9,0,0,1,.27-.79.92.92,0,0,1,.81-.23l3.46.69V26.64a.91.91,0,0,1,.91-.91H100V20.26a.92.92,0,0,1,1.83,0v6.38a.91.91,0,0,1-.91.91H97.29V33a.91.91,0,0,1-.33.71.94.94,0,0,1-.76.19l-3.29-.66.73,5.1a.91.91,0,0,1-.77,1Z"/><path class="cls-5" d="M168.43,136.69a.72.72,0,0,1-.71-.62l-.72-5a.72.72,0,0,1,.86-.8l2.73.54v-4.15a.71.71,0,0,1,.71-.71h2.87v-4.31a.72.72,0,1,1,1.44,0v5a.72.72,0,0,1-.72.72H172v4.31a.72.72,0,0,1-.86.7l-2.59-.52.57,4a.71.71,0,0,1-.61.81Z"/><path class="cls-6" d="M45.62,45.54c-1.17,0-2.19-1.21-4.29-4-.55-.73-.83-.76-.84-.76-.34.08-1,1.52-1.17,3.07a.91.91,0,1,1-1.81-.25c.14-1,.73-4.12,2.54-4.59.92-.23,1.84.25,2.74,1.44a19,19,0,0,0,2.78,3.24,2.29,2.29,0,0,0,.23-.37,12.06,12.06,0,0,1,2-3,.91.91,0,0,1,1.29,0,.92.92,0,0,1,0,1.29,10.28,10.28,0,0,0-1.65,2.49,2.21,2.21,0,0,1-1.66,1.41Z"/><path class="cls-6" d="M348.82,53.54c-1.16,0-2.19-1.21-4.29-4-.55-.73-.83-.76-.83-.76-.35.08-1,1.52-1.18,3.07a.91.91,0,0,1-1,.78.92.92,0,0,1-.78-1c.14-1,.73-4.12,2.54-4.59.92-.23,1.85.25,2.74,1.44a19,19,0,0,0,2.78,3.24,2.29,2.29,0,0,0,.23-.37,12.06,12.06,0,0,1,2-3,.91.91,0,0,1,1.29,0,.92.92,0,0,1,0,1.29,10.28,10.28,0,0,0-1.65,2.49A2.22,2.22,0,0,1,349,53.53Z"/><path class="cls-7" d="M46.16,88.65a.91.91,0,0,1-.87-.67C42.8,78.85,30,80.43,29.89,80.44a.91.91,0,1,1-.24-1.8c.14,0,14.49-1.81,17.39,8.86a.91.91,0,0,1-.64,1.12A1,1,0,0,1,46.16,88.65Z"/><path class="cls-8" d="M102.24,127.43a3.19,3.19,0,1,1,3.18-3.19A3.19,3.19,0,0,1,102.24,127.43Zm0-5.47a2.28,2.28,0,1,0,2.27,2.28A2.29,2.29,0,0,0,102.24,122Z"/><path class="cls-8" d="M303.37,12.15A3.19,3.19,0,1,1,306.56,9,3.2,3.2,0,0,1,303.37,12.15Zm0-5.47A2.28,2.28,0,1,0,305.65,9,2.28,2.28,0,0,0,303.37,6.68Z"/><path class="cls-8" d="M227.56,141.11a3.19,3.19,0,1,1,3.18-3.19A3.19,3.19,0,0,1,227.56,141.11Zm0-5.46a2.28,2.28,0,1,0,2.27,2.27A2.28,2.28,0,0,0,227.56,135.65Z"/><path class="cls-9" d="M46.68,120.71a6.38,6.38,0,0,1-12.76,0"/><path class="cls-9" d="M333,23.46a6.38,6.38,0,1,1-12.75,0"/><path class="cls-10" d="M220.25,28.37A6.38,6.38,0,1,1,214.44,17"/><path class="cls-10" d="M315,111.83a6.37,6.37,0,1,1-5.8-11.35"/><path class="cls-11" d="M66,135.73l7.48-3.33a.37.37,0,0,1,.52.34v8.31a.37.37,0,0,1-.2.33l-8.31,4.16a.38.38,0,0,1-.54-.37l.83-9.14A.38.38,0,0,1,66,135.73Z"/><path class="cls-11" d="M339,132.37l7.48-3.32a.37.37,0,0,1,.52.33v8.31a.37.37,0,0,1-.2.33l-8.31,4.16a.38.38,0,0,1-.54-.37l.83-9.14A.38.38,0,0,1,339,132.37Z"/><path class="cls-11" d="M261,21.37l7.48-3.32a.37.37,0,0,1,.52.34V26.7a.38.38,0,0,1-.2.33l-8.31,4.15a.37.37,0,0,1-.54-.36l.83-9.14A.4.4,0,0,1,261,21.37Z"/><circle class="cls-1" cx="346.14" cy="87.18" r="4.55"/><circle class="cls-12" cx="285.14" cy="92.17" r="3.64"/><path class="cls-13" d="M278.5,140.59a5.9,5.9,0,0,1-4.9-3.21.91.91,0,1,1,1.57-.91,3.93,3.93,0,0,0,3.65,2.28,3.27,3.27,0,0,0,2.09-1.41c1.26-1.94.16-5.61-2.67-8.94a.91.91,0,0,1,1.39-1.18c3.45,4.06,4.55,8.42,2.8,11.11a5,5,0,0,1-3.37,2.23A5.25,5.25,0,0,1,278.5,140.59Z"/></g></svg>