<svg xmlns="http://www.w3.org/2000/svg" viewBox="0 0 383 148"><defs><style>.cls-1{fill:#fff;}.cls-2{fill:#26b2c9;}</style></defs><title>MyPoints</title><g id="Layer_2" data-name="Layer 2"><path class="cls-1" d="M83.54,43.65l-11.25,15L57.19,36.15,42.09,58.66l-11.24-15a39.19,39.19,0,1,0,52.69,0ZM57.19,99.92a17,17,0,1,1,17-17A17.05,17.05,0,0,1,57.19,99.92Z"/><circle class="cls-2" cx="57.19" cy="82.88" r="10.22"/><path class="cls-1" d="M158,55V92.84h-9.21V70.16l-8.45,22.68H132.9l-8.51-22.73V92.84h-9.21V55h10.88l10.6,26.17L147.17,55Z"/><path class="cls-1" d="M195.31,62.79l-18.85,44.32h-9.91l6.9-15.3-12.23-29h10.29l6.94,18.79,6.9-18.79Z"/><path class="cls-1" d="M226,73.21a11.13,11.13,0,0,1-4.63,4.39,16.33,16.33,0,0,1-7.75,1.67h-5.71V92.84h-9.21V55h14.92a17,17,0,0,1,7.64,1.56,10.76,10.76,0,0,1,4.69,4.31,12.53,12.53,0,0,1,1.56,6.3A12.16,12.16,0,0,1,226,73.21ZM216.8,70.7a5.39,5.39,0,0,0,0-7,5.53,5.53,0,0,0-3.93-1.24h-5v9.48h5A5.48,5.48,0,0,0,216.8,70.7Z"/><path class="cls-1" d="M238,91.38A13.81,13.81,0,0,1,232.44,86a16.17,16.17,0,0,1-2-8.19,15.93,15.93,0,0,1,2.05-8.16,13.88,13.88,0,0,1,5.6-5.41,17.83,17.83,0,0,1,15.94,0,13.88,13.88,0,0,1,5.6,5.41,16,16,0,0,1,2.05,8.16A15.72,15.72,0,0,1,259.58,86a13.94,13.94,0,0,1-5.65,5.41,16.87,16.87,0,0,1-8,1.89A16.54,16.54,0,0,1,238,91.38Zm12.44-8a7.69,7.69,0,0,0,1.86-5.55,7.84,7.84,0,0,0-1.81-5.55,6.13,6.13,0,0,0-8.91,0,7.91,7.91,0,0,0-1.78,5.57,8,8,0,0,0,1.75,5.55,5.68,5.68,0,0,0,4.39,1.94A6,6,0,0,0,250.43,83.36Z"/><path class="cls-1" d="M271.19,59.66a5.49,5.49,0,0,0,3.9-1.42,4.87,4.87,0,0,0,0-7.11,5.5,5.5,0,0,0-3.9-1.43,5.58,5.58,0,0,0-4,1.43,4.89,4.89,0,0,0,0,7.11A5.58,5.58,0,0,0,271.19,59.66Z"/><rect class="cls-1" x="266.56" y="62.79" width="9.21" height="30.05"/><path class="cls-1" d="M309.18,65.88q3.15,3.42,3.15,9.4V92.84h-9.15V76.52a6.62,6.62,0,0,0-1.56-4.69,6.13,6.13,0,0,0-8.41,0,6.62,6.62,0,0,0-1.56,4.69V92.84h-9.21V62.79h9.21v4a9.73,9.73,0,0,1,3.77-3.15,12,12,0,0,1,5.33-1.16A10.91,10.91,0,0,1,309.18,65.88Z"/><path class="cls-1" d="M335.49,85v7.81H330.8c-3.33,0-5.94-.82-7.8-2.45s-2.8-4.3-2.8-8v-12h-3.67V62.79h3.67V55.46h9.2v7.33h6v7.64h-6V82.5a2.53,2.53,0,0,0,.65,1.94,3.18,3.18,0,0,0,2.15.59Z"/><path class="cls-1" d="M345.83,91.92A12,12,0,0,1,341,88.23,9.7,9.7,0,0,1,339,83h9.1a3.5,3.5,0,0,0,1.45,2.53,5.14,5.14,0,0,0,3.18,1,4.54,4.54,0,0,0,2.67-.67,2.05,2.05,0,0,0,.94-1.75A2,2,0,0,0,355,82.15a26.8,26.8,0,0,0-4.36-1.38,41.48,41.48,0,0,1-5.38-1.58,9.35,9.35,0,0,1-3.72-2.64A7.22,7.22,0,0,1,340,71.67,8.22,8.22,0,0,1,341.39,67a9.62,9.62,0,0,1,4.2-3.37,16.15,16.15,0,0,1,6.59-1.23q5.65,0,8.92,2.8a10.87,10.87,0,0,1,3.74,7.43h-8.51A3.66,3.66,0,0,0,355,70.11a4.79,4.79,0,0,0-3-.91,4.21,4.21,0,0,0-2.47.61,2,2,0,0,0-.86,1.7A2.06,2.06,0,0,0,350,73.45a21.85,21.85,0,0,0,4.28,1.29,46.91,46.91,0,0,1,5.44,1.7,9.41,9.41,0,0,1,3.69,2.69,7.64,7.64,0,0,1,1.64,5,7.93,7.93,0,0,1-1.48,4.72,9.85,9.85,0,0,1-4.25,3.25,16.3,16.3,0,0,1-6.44,1.19A17.24,17.24,0,0,1,345.83,91.92Z"/></g></svg>