<?xml version="1.0" standalone="no"?>
<!DOCTYPE svg PUBLIC "-//W3C//DTD SVG 20010904//EN"
 "http://www.w3.org/TR/2001/REC-SVG-20010904/DTD/svg10.dtd">
<svg version="1.0" xmlns="http://www.w3.org/2000/svg"
 width="630.000000pt" height="630.000000pt" viewBox="0 0 630.000000 630.000000"
 preserveAspectRatio="xMidYMid meet">
<metadata>
Created by potrace 1.14, written by Peter Selinger 2001-2017
</metadata>
<g transform="translate(0.000000,630.000000) scale(0.100000,-0.100000)"
fill="#000000" stroke="none">
<path d="M3123 5978 c-6 -7 -98 -143 -205 -303 -107 -159 -342 -510 -523 -780
-181 -269 -345 -514 -364 -542 l-34 -53 -424 566 -425 566 -65 -63 c-59 -58
-181 -191 -241 -263 -13 -15 -54 -69 -91 -119 -241 -327 -414 -709 -500 -1107
-20 -94 -25 -116 -36 -195 -4 -22 -8 -52 -11 -66 -25 -156 -24 -618 1 -751 3
-13 8 -48 11 -78 3 -30 7 -57 9 -60 2 -3 6 -25 10 -50 4 -25 8 -47 10 -51 2
-3 7 -21 10 -40 7 -44 59 -227 86 -304 75 -219 201 -474 324 -660 46 -68 88
-129 94 -137 6 -7 32 -40 58 -73 81 -102 103 -126 247 -270 241 -240 491 -417
791 -561 424 -202 844 -294 1320 -288 105 1 204 4 220 7 17 3 59 8 95 12 36 3
72 8 80 10 8 2 35 7 60 10 37 5 123 23 240 50 8 2 53 15 100 29 47 15 92 28
101 30 35 9 249 96 331 136 517 246 961 648 1256 1136 177 294 319 659 367
943 3 19 7 37 9 40 2 3 7 29 10 56 6 47 10 69 21 139 24 151 23 530 -1 706 -6
48 -26 171 -30 195 -2 11 -7 34 -9 50 -16 91 -102 380 -140 470 -140 334 -275
564 -480 814 -69 85 -284 306 -290 299 -2 -2 -190 -253 -419 -558 -229 -305
-420 -556 -424 -558 -5 -1 -84 111 -177 250 -93 139 -172 255 -176 258 -3 3
-8 10 -10 15 -2 6 -67 104 -144 218 -77 114 -147 218 -155 232 -23 37 -462
689 -470 698 -4 4 -11 2 -17 -5z m278 -2252 c196 -44 345 -112 497 -225 317
-237 509 -609 514 -995 2 -92 -8 -242 -17 -255 -2 -4 -6 -22 -9 -42 -11 -71
-59 -206 -108 -304 -139 -280 -374 -497 -663 -616 -511 -208 -1108 -61 -1460
361 -143 172 -236 366 -281 590 -18 88 -25 327 -12 405 4 22 10 58 13 80 10
65 73 243 115 327 115 230 313 432 539 551 130 69 272 118 384 134 23 3 62 9
87 12 93 15 282 3 401 -23z"/>
<path d="M3035 3239 c-22 -4 -53 -9 -70 -12 -126 -21 -283 -110 -389 -220
-314 -327 -272 -871 88 -1144 156 -118 388 -181 565 -152 88 14 107 19 164 38
224 78 423 290 482 516 89 345 -44 683 -342 867 -144 89 -350 133 -498 107z"/>
</g>
</svg>
