<svg version="1.2" baseProfile="tiny-ps" xmlns="http://www.w3.org/2000/svg" viewBox="0 0 4000 4000" width="300" height="300">
	<style>
		tspan { white-space:pre }
		.shp0 { fill: #ffffff } 
		.shp1 { fill: #000072 } 
		.shp2 { fill: #1389ea } 
		.shp3 { fill: #f91228 } 
		.shp4 { fill: #371a45 } 
		.shp5 { fill: #d25658 } 
		.shp6 { fill: #ff061e } 
		.shp7 { fill: #ffd400 } 
		.shp8 { fill: #2d95ea } 
		.shp9 { fill: #4d1c54 } 
		.shp10 { fill: #22a7f0 } 
		.shp11 { fill: #46c1f7 } 
		.shp12 { fill: #f9744b } 
		.shp13 { fill: #fa508e } 
		.shp14 { fill: #0f2675 } 
		.shp15 { fill: #f27e80 } 
	</style>
	<g id="Layer 1">
		<g id="&lt;Group&gt;">
			<g id="&lt;Group&gt;">
				<g id="&lt;Group&gt;">
					<path id="&lt;Path&gt;" class="shp0" d="M2520.17 1824.8C2561.75 1953.36 2621.59 2060.88 2699.69 2147.38C2765.36 2220.1 2770.3 2288.59 2725.11 2329.54C2679.93 2370.49 2586.93 2396.29 2507.08 2324.75C2453.84 2277.06 2421.21 2151.09 2409.19 1946.86" />
				</g>
				<g id="&lt;Group&gt;">
					<path id="&lt;Path&gt;" class="shp0" d="M2726.24 2328.5C2725.88 2328.86 2725.52 2329.18 2725.12 2329.54C2679.91 2370.51 2586.93 2396.31 2507.07 2324.74C2445.5 2269.56 2420.69 2074.8 2412.57 1988.54C2410.94 1971.44 2409.82 1957.54 2409.21 1946.85L2520.19 1824.82C2561.75 1953.35 2621.58 2060.87 2699.68 2147.37C2764.81 2219.51 2770.21 2287.45 2726.24 2328.5Z" />
				</g>
				<g id="&lt;Group&gt;" style="opacity: 0.302">
					<path id="&lt;Path&gt;" class="shp1" d="M2726.24 2328.5C2725.88 2328.86 2725.52 2329.18 2725.12 2329.54C2679.91 2370.51 2586.93 2396.31 2507.07 2324.74C2445.5 2269.56 2420.69 2074.8 2412.57 1988.54L2492.23 1900.92C2533.81 2029.48 2593.65 2137 2671.75 2223.47C2705.28 2260.6 2722.96 2296.65 2726.24 2328.5Z" />
				</g>
				<g id="&lt;Group&gt;">
					<path id="&lt;Path&gt;" class="shp1" d="M2617.91 2382.37C2579.72 2382.37 2538.07 2369.3 2498.73 2334.06C2416 2259.94 2397.46 1960.31 2396.71 1947.6C2396.31 1940.7 2401.56 1934.79 2408.45 1934.38C2415.25 1933.94 2421.26 1939.23 2421.67 1946.13C2421.84 1949.14 2440.3 2248.14 2515.42 2315.44C2591.65 2383.75 2677.57 2355.75 2716.72 2320.27C2758.19 2282.7 2748.11 2219.65 2690.42 2155.76C2572.83 2025.52 2510.86 1836.63 2508.28 1828.65C2506.16 1822.08 2509.76 1815.04 2516.33 1812.91C2522.89 1810.79 2529.94 1814.38 2532.07 1820.96C2532.68 1822.86 2595.04 2012.82 2708.97 2139C2776.98 2214.33 2786.38 2290.88 2733.51 2338.8C2708.02 2361.9 2665.68 2382.36 2617.91 2382.37Z" />
				</g>
				<g id="&lt;Group&gt;">
					<path id="&lt;Path&gt;" class="shp0" d="M2523.11 2171.9C2688.86 2256.98 2749.22 2388.21 2704.2 2565.6C2673.98 2684.66 2664.1 2729.88 2674.54 2701.24L2180.32 2571.8L2308.63 2081.88L2523.11 2171.9Z" />
				</g>
				<g id="&lt;Group&gt;">
					<path id="&lt;Compound Path&gt;" fill-rule="evenodd" class="shp1" d="M2672.52 2721.84C2670.48 2721.84 2668.71 2721.45 2667.45 2721.06C2662.33 2719.48 2659.24 2716.97 2657.6 2713.35L2176.26 2587.28C2167.71 2585.04 2162.6 2576.3 2164.84 2567.75L2293.15 2077.83C2294.33 2073.34 2297.39 2069.58 2301.55 2067.53C2305.71 2065.48 2310.55 2065.32 2314.83 2067.12L2529.31 2157.15C2529.68 2157.3 2530.06 2157.48 2530.42 2157.67C2533.08 2159.03 2596.15 2191.85 2651.33 2258.79C2702.69 2321.1 2756.24 2425.59 2719.71 2569.54C2699.69 2648.41 2692.23 2681.58 2689.48 2695.51C2690.85 2699.1 2690.9 2703.08 2689.57 2706.73C2685.04 2719.16 2677.87 2721.84 2672.52 2721.84ZM2199.85 2560.38L2659.83 2680.85C2660.11 2679.56 2660.4 2678.24 2660.7 2676.88C2665.83 2653.38 2675.25 2614.62 2688.69 2561.66C2715.27 2456.91 2694.63 2362.16 2627.35 2280.02C2578.82 2220.78 2522.06 2189.49 2516.27 2186.39L2319.44 2103.77L2199.85 2560.38Z" />
				</g>
				<g id="&lt;Group&gt;">
					<path id="&lt;Path&gt;" class="shp0" d="M1533.18 2181.18C1548.24 2227.34 1523.35 2273.93 1462.64 2302.85C1364.63 2349.52 1410.67 2489.69 1511.98 2469.78C1569.38 2458.52 1612.52 2377.52 1698.73 2333.1C1736 2313.9 1781.32 2301.51 1839.31 2304.57C1916.54 2308.63 1930.68 2340.83 1881.73 2401.17C1826.5 2382.99 1775.52 2392.09 1728.8 2428.49C1728.76 2428.52 1728.7 2428.56 1728.67 2428.59C1658.53 2483.34 1633.93 2568.54 1493.77 2605.28C1254.14 2668.11 1114.34 2231.79 1402.46 2139.86C1482.88 2114.21 1521.53 2145.54 1533.18 2181.18Z" />
				</g>
				<g id="&lt;Group&gt;" style="opacity: 0.302">
					<path id="&lt;Path&gt;" class="shp1" d="M1756.84 2311.5C1757.87 2311.26 1758.89 2311.01 1759.95 2310.78C1760.83 2310.58 1761.69 2310.4 1762.57 2310.22C1763.38 2310.03 1764.19 2309.84 1765.03 2309.69C1765.98 2309.49 1766.92 2309.29 1767.9 2309.12C1769.1 2308.88 1770.27 2308.65 1771.47 2308.45C1773.18 2308.14 1774.91 2307.85 1776.65 2307.56C1795.77 2304.55 1816.58 2303.37 1839.31 2304.57C1916.54 2308.63 1930.68 2340.83 1881.73 2401.17C1826.5 2382.99 1775.52 2392.09 1728.8 2428.49C1727.97 2427.14 1727.17 2425.78 1726.39 2424.4C1707.38 2390.84 1661.52 2384.69 1633.26 2410.94C1608.78 2433.69 1586.38 2452 1561.25 2456.93C1553.78 2458.39 1546.6 2459.01 1539.76 2458.81C1584.96 2432.52 1626.9 2370.13 1698.73 2333.1C1716.18 2324.11 1735.38 2316.61 1756.84 2311.5Z" />
				</g>
				<g id="&lt;Group&gt;" style="opacity: 0.302">
					<path id="&lt;Path&gt;" class="shp1" d="M1438.29 2131.65C1176.18 2229.66 1299.24 2629.23 1522.05 2596.69C1513.18 2599.79 1503.77 2602.64 1493.77 2605.28C1254.14 2668.11 1114.34 2231.79 1402.46 2139.86C1415.49 2135.69 1427.42 2133.05 1438.29 2131.65Z" />
				</g>
				<g id="&lt;Group&gt;">
					<path id="&lt;Compound Path&gt;" fill-rule="evenodd" class="shp1" d="M1447.25 2627.47C1344.15 2627.48 1265.68 2541.8 1237.31 2444.12C1202.96 2325.83 1238.46 2175.39 1397.58 2124.62C1487.02 2096.06 1534.12 2132.57 1548.38 2176.22C1566.43 2231.47 1536.22 2285.53 1469.53 2317.29C1427.04 2337.52 1418.19 2377.35 1428.27 2407.85C1437.86 2436.86 1466.5 2462.39 1508.9 2454.09C1534.09 2449.14 1558.46 2426.03 1586.69 2399.28C1641.91 2346.93 1710.64 2281.76 1840.15 2288.59C1880.72 2290.72 1906.35 2303.2 1916.35 2325.69C1932.6 2362.23 1898.14 2406.36 1894.16 2411.26L1887.21 2419.84L1876.75 2416.4C1875.55 2416.02 1800.55 2392.78 1738.51 2441.21C1717.74 2457.42 1700.99 2476.7 1683.25 2497.12C1643.68 2542.67 1598.83 2594.29 1497.84 2620.76C1480.43 2625.33 1463.52 2627.47 1447.25 2627.47ZM1456.41 2146.45C1441.99 2146.45 1425.52 2149.31 1407.31 2155.11C1267.85 2199.61 1236.88 2327.85 1268.05 2435.19C1296.57 2533.42 1381.88 2618.08 1489.72 2589.8C1581.15 2565.83 1620.77 2520.23 1659.09 2476.13C1677.05 2455.46 1695.61 2434.09 1718.81 2415.98C1779.56 2368.54 1848.15 2377 1875.1 2382.93C1883.35 2370.05 1892.36 2350.44 1887.09 2338.67C1882.5 2328.39 1865.23 2321.96 1838.47 2320.55C1722.67 2314.47 1662.13 2371.87 1608.71 2422.5C1576.87 2452.69 1549.37 2478.75 1515.07 2485.49C1453.9 2497.52 1411.43 2458.87 1397.88 2417.89C1383.86 2375.47 1396 2316.86 1455.76 2288.39C1507.56 2263.73 1530.81 2225.51 1517.96 2186.16C1509.41 2159.99 1487.78 2146.45 1456.41 2146.45Z" />
				</g>
				<g id="&lt;Group&gt;">
					<g id="&lt;Group&gt;">
						<g id="&lt;Group&gt;">
							<path id="&lt;Path&gt;" class="shp2" d="M1754.77 3041.06L1677.95 3032.16C1643.2 3028.13 1613.47 3005.35 1600.54 2972.84L1600.54 2972.84C1562.03 2876.04 1550.74 2770.55 1567.91 2667.79L1567.91 2667.79C1573.67 2633.28 1597.91 2604.73 1631.03 2593.44L1704.22 2568.5L1754.77 3041.06Z" />
						</g>
						<g id="&lt;Group&gt;" style="opacity: 0.302">
							<path id="&lt;Path&gt;" class="shp1" d="M1754.77 3041.06L1677.95 3032.16C1643.2 3028.13 1613.47 3005.35 1600.54 2972.84C1587.02 2938.88 1576.94 2903.83 1570.19 2868.21C1573.07 2876.58 1576.08 2884.9 1579.36 2893.15C1592.29 2925.65 1622.02 2948.44 1656.77 2952.46L1733.59 2961.36L1692.01 2572.66L1704.22 2568.5L1754.77 3041.06Z" />
						</g>
						<g id="&lt;Group&gt;" style="opacity: 0.349">
							<path id="&lt;Path&gt;" class="shp0" d="M1645.61 3022.32C1625.42 3011.98 1609.2 2994.61 1600.54 2972.84C1562.03 2876.04 1550.74 2770.55 1567.91 2667.79C1573.67 2633.28 1597.91 2604.73 1631.03 2593.44L1704.22 2568.5L1707.83 2602.17L1661.39 2618C1628.28 2629.28 1604.03 2657.84 1598.27 2692.35C1581.11 2795.1 1592.39 2900.6 1630.9 2997.4C1634.54 3006.56 1639.56 3014.91 1645.61 3022.32Z" />
						</g>
						<g id="&lt;Group&gt;">
							<path id="&lt;Path&gt;" class="shp3" d="M1497.87 2395.57C1499.93 2394.95 1501.97 2394.33 1504 2393.74C1777.11 2312.61 1882.58 2422.07 1909.17 2504.68L1909.17 2504.71C1911.01 2510.46 1912.48 2516.12 1913.6 2521.55L1733.44 2624.22C1725.68 2511.35 1537.21 2423.01 1497.25 2403.89C1493.58 2402.12 1493.98 2396.74 1497.87 2395.57Z" />
						</g>
						<g id="&lt;Group&gt;" style="opacity: 0.149">
							<path id="&lt;Path&gt;" class="shp4" d="M1497.87 2395.57C1499.93 2394.95 1501.97 2394.33 1504 2393.74C1549.33 2398.31 1643.32 2442.82 1695.45 2488.43C1737.03 2524.81 1777.8 2522.4 1854.43 2506.9C1875.28 2502.68 1897.99 2507.38 1912.33 2512.39L1909.17 2504.71C1911.01 2510.46 1912.48 2516.12 1913.6 2521.55L1733.44 2624.22C1725.68 2511.35 1537.21 2423.01 1497.25 2403.89C1493.58 2402.12 1493.98 2396.74 1497.87 2395.57Z" />
						</g>
						<g id="&lt;Group&gt;" style="opacity: 0.4">
							<g id="&lt;Group&gt;">
								<path id="&lt;Path&gt;" class="shp0" d="M1510.9 2410.45C1500.97 2405.38 1505.17 2407.68 1497.24 2403.89C1493.55 2402.12 1493.97 2396.76 1497.87 2395.56C1794.84 2305.07 1896.42 2437.75 1913.6 2521.55L1894.09 2532.66C1862.93 2456.7 1739.64 2355.49 1510.9 2410.45Z" />
							</g>
						</g>
						<g id="&lt;Group&gt;">
							<path id="&lt;Path&gt;" class="shp1" d="M1733.43 2640.23C1725.09 2640.23 1718.07 2633.77 1717.48 2625.33C1714.86 2587.28 1682.11 2509.91 1492.21 2419.22L1490.33 2418.33C1482.66 2414.66 1478.12 2406.8 1478.76 2398.31C1479.4 2389.82 1485.07 2382.73 1493.2 2380.25C1637.16 2336.39 1751.38 2338.66 1832.71 2387.02C1904.29 2429.58 1924.09 2493.02 1929.28 2518.33C1931.05 2526.99 1925.47 2535.44 1916.81 2537.22C1908.15 2538.97 1899.7 2533.42 1897.92 2524.76C1893.59 2503.62 1876.96 2450.56 1816.36 2414.53C1749.36 2374.7 1651.15 2370.73 1531.1 2402.7C1704.28 2490.66 1745.79 2570.6 1749.42 2623.13C1750.02 2631.94 1743.37 2639.58 1734.55 2640.2C1734.17 2640.22 1733.8 2640.23 1733.43 2640.23Z" />
						</g>
						<g id="&lt;Group&gt;">
							<path id="&lt;Path&gt;" class="shp5" d="M1970.48 3053.29C1971.41 3138.83 1900.69 3294.73 1591.31 3269.11C1587.25 3268.77 1585.71 3263.59 1588.93 3261.1C1623.95 3233.96 1788.92 3102.7 1772.65 2990.74" />
						</g>
						<g id="&lt;Group&gt;">
							<path id="&lt;Path&gt;" class="shp3" d="M1591.31 3269.12C1587.26 3268.76 1585.72 3263.59 1588.94 3261.09C1606.86 3247.19 1658.9 3205.97 1703.2 3154.01C1745.08 3104.92 1780.04 3046.21 1772.8 2991.94C1772.76 2991.55 1772.68 2991.13 1772.64 2990.74L1773.84 2991.11L1970.46 3053.28C1970.72 3077.29 1965.35 3106.85 1950.59 3136.38C1912.91 3212.05 1813.88 3287.53 1591.31 3269.12Z" />
						</g>
						<g id="&lt;Group&gt;" style="opacity: 0.251">
							<path id="&lt;Path&gt;" class="shp4" d="M1703.2 3154.01C1745.08 3104.92 1780.04 3046.21 1772.8 2991.94C1773.14 2991.68 1773.49 2991.38 1773.84 2991.11L1970.46 3053.28C1970.72 3077.29 1965.35 3106.85 1950.59 3136.38C1892.08 3163.49 1811.51 3175.22 1703.2 3154.01Z" />
						</g>
						<g id="&lt;Group&gt;">
							<path id="&lt;Path&gt;" class="shp1" d="M1657.37 3287.96C1635.85 3287.96 1613.4 3287 1589.99 3285.05C1581.51 3284.35 1574.46 3278.62 1572.04 3270.45C1569.62 3262.29 1572.4 3253.66 1579.13 3248.45C1624.42 3213.35 1771.08 3091.21 1756.81 2993.04C1755.54 2984.3 1761.6 2976.18 1770.35 2974.9C1779.13 2973.63 1787.22 2979.7 1788.49 2988.44C1802.99 3088.22 1690.93 3197.97 1622.04 3255.07C1744.46 3260.71 1838.87 3235.89 1896.16 3182.58C1951.01 3131.52 1954.66 3070.85 1954.47 3053.47C1954.38 3044.63 1961.46 3037.39 1970.3 3037.29C1979.13 3037.02 1986.38 3044.28 1986.48 3053.12C1986.77 3079.65 1980.67 3147.65 1917.97 3206.01C1859.42 3260.49 1771.94 3287.96 1657.37 3287.96Z" />
						</g>
						<g id="&lt;Group&gt;">
							<path id="&lt;Path&gt;" class="shp0" d="M3403.04 2625.75C3278.98 2899.54 3007.17 3073.6 2587.58 3147.93C2230.18 3211.23 1952.58 3175.6 1754.79 3041.03C1695.78 2922.5 1672.86 2789.96 1687.58 2659.65C1691.05 2629.03 1696.6 2598.62 1704.2 2568.5C1745.07 2525.56 1808.41 2481.67 1894.2 2436.84C1944.83 2410.37 2005.89 2383.46 2077.77 2359.87C2190.1 2322.99 2328.93 2294.25 2495.57 2287.91C2504.97 2287.57 2514.33 2287.27 2523.61 2287.14C2563.09 2286.27 2601.15 2286.95 2637.76 2288.93C2995.5 2308.19 3250.59 2420.46 3403.04 2625.75Z" />
						</g>
						<g id="&lt;Group&gt;">
							<g id="&lt;Group&gt;" style="opacity: 0.302">
								<path id="&lt;Path&gt;" class="shp1" d="M2427.89 3007.63C2332.99 3017.79 2245.6 2967.06 2204.71 2886.79C2158.47 2882.39 2123.2 2871.24 2086.5 2834.24C2065.01 2812.58 2027.92 2760.98 2010.49 2642.43C1991.85 2515.67 1897.39 2482.05 1844.6 2423.19C1897.07 2395.62 1949.96 2373.07 2028.4 2346.27C2117.28 2315.91 2223.36 2292.78 2346.34 2280.7C2318 2317.23 2294.66 2353.45 2292.78 2354.93C2292.46 2355.2 2292.22 2355.41 2292.06 2355.55C2365.48 2431.17 2350.2 2515.05 2323.36 2576.48C2341.23 2569.59 2360.31 2564.86 2380.27 2562.75C2503.12 2549.59 2613.37 2638.52 2626.54 2761.4C2639.66 2884.25 2550.73 2994.5 2427.89 3007.63Z" />
							</g>
						</g>
						<g id="&lt;Group&gt;">
							<g id="&lt;Group&gt;" style="opacity: 0.302">
								<path id="&lt;Path&gt;" class="shp1" d="M1683.31 2731.03C1683.75 2676.59 1690.65 2622.01 1704.21 2568.48C1746.48 2524.06 1812.01 2479.02 1900.82 2433.36C1872.17 2454.49 1850.87 2472.37 1836.93 2487.01C1812.35 2584.06 1809.54 2684.56 1827.76 2781.48C1827.88 2782.09 1827.99 2782.7 1828.11 2783.32C1850.23 2899.23 1934.22 2993.99 2046.13 3031.4C2185.42 3077.96 2420.42 3114.99 2724.34 3047.48C2807.29 3029.05 2898.38 2936.85 2923.33 2835.74C2976.15 2621.66 2900.95 2416.41 2939.45 2411.56C2991.2 2405.04 3061.68 2821.3 3106.93 2914.05C2983.23 2998.7 2814 3077.72 2587.15 3117.91C2229.74 3181.22 1952.13 3145.61 1754.31 3011.07C1726.09 2954.32 1706.14 2894.36 1694.59 2832.95C1688.27 2799.31 1684.54 2765.24 1683.31 2731.03Z" />
							</g>
						</g>
						<g id="&lt;Group&gt;">
							<path id="&lt;Path&gt;" class="shp3" d="M2984.31 3017.28C3008.42 2786.17 2983.43 2552.48 2910.97 2331.65C3160.37 2398.8 3307.66 2524.37 3369.17 2587.49C3390.88 2609.77 3394.6 2643.88 3378.1 2670.25C3331.38 2744.9 3213.98 2898.85 2984.31 3017.28Z" />
						</g>
						<g id="&lt;Group&gt;" style="opacity: 0.349">
							<path id="&lt;Path&gt;" class="shp0" d="M3378.1 2670.25C3376.59 2672.65 3375.01 2675.14 3373.36 2677.7C3375.69 2657.98 3369.27 2637.68 3354.68 2622.71C3295.52 2561.99 3156.93 2443.51 2924.47 2374.81C2920.16 2360.37 2915.67 2345.98 2910.97 2331.65C3160.37 2398.8 3307.66 2524.37 3369.17 2587.49C3390.88 2609.77 3394.6 2643.88 3378.1 2670.25Z" />
						</g>
						<g id="&lt;Group&gt;">
							<g id="&lt;Group&gt;" style="opacity: 0.302">
								<path id="&lt;Path&gt;" class="shp1" d="M2910.95 2331.65C2917.2 2333.32 2923.42 2335.04 2929.54 2336.84C2997.28 2490.4 3042.79 2605.58 3059.58 2749.08C3066.5 2808.3 3134.4 2838.78 3182.66 2803.77C3263.1 2745.4 3327.9 2683.96 3373.59 2630.83C3373.53 2630.9 3373.47 2630.97 3373.4 2631.05C3331.87 2700.07 3218.19 2857.49 2987.71 2980.18C3005.59 2761.2 2979.56 2540.67 2910.95 2331.65Z" />
							</g>
						</g>
						<g id="&lt;Group&gt;">
							<path id="&lt;Compound Path&gt;" fill-rule="evenodd" class="shp1" d="M2984.31 3033.29C2981.14 3033.29 2977.99 3032.35 2975.28 3030.5C2970.42 3027.18 2967.78 3021.47 2968.39 3015.62C2992.43 2785.23 2967.99 2556.78 2895.76 2336.64C2893.93 2331.05 2895.31 2324.91 2899.35 2320.64C2903.39 2316.38 2909.45 2314.66 2915.13 2316.2C3165.48 2383.6 3314.42 2508.29 3380.91 2576.62C3407.66 2604.1 3412.14 2646 3391.81 2678.51C3341.26 2759.34 3222.06 2912.69 2991.64 3031.51C2989.33 3032.7 2986.82 3033.29 2984.31 3033.29ZM2935.24 2355.14C2998.9 2561.28 3021.68 2774.29 3003.07 2989.19C3209.62 2876.11 3317.8 2736.49 3364.67 2661.54C3377.16 2641.57 3374.41 2615.83 3357.98 2598.94C3296.32 2535.59 3161.06 2421.99 2935.24 2355.14Z" />
						</g>
						<g id="&lt;Group&gt;">
							<path id="&lt;Compound Path&gt;" fill-rule="evenodd" class="shp1" d="M2308.65 3189.12C2164.03 3189.12 2048.27 3168.04 1965.91 3145.53C1823.78 3106.68 1748.87 3056.4 1745.75 3054.27C1743.48 3052.73 1741.64 3050.62 1740.42 3048.16C1703.34 2973.57 1680.05 2893.77 1671.2 2810.98C1662.34 2728.17 1668.22 2645.26 1688.69 2564.56C1689.37 2561.9 1690.72 2559.45 1692.61 2557.47C1695.21 2554.73 1757.79 2489.75 1888.49 2421.73C2008.41 2359.33 2210.97 2282.68 2494.96 2271.94C2643.86 2266.28 2785.21 2281.2 2915.13 2316.2C2920.34 2317.6 2924.49 2321.53 2926.17 2326.66C2999.8 2551.05 3024.72 2783.89 3000.25 3018.73C2999.76 3024.12 2996.57 3029.01 2991.65 3031.55C2872.06 3093.24 2737.04 3137.7 2590.34 3163.68C2487.23 3181.94 2393.03 3189.12 2308.65 3189.12ZM1767.14 3029.98C1783.12 3039.98 1854.94 3082.22 1976 3115.1C2102.97 3149.58 2311.64 3180.53 2584.76 3132.16C2725.13 3107.3 2854.45 3065.22 2969.26 3007.05C2991.53 2782.43 2967.72 2559.76 2898.44 2344.88C2773.93 2312.31 2638.63 2298.54 2496.17 2303.93C2219 2314.41 2021.59 2388.78 1904.79 2449.34C1793.42 2507.08 1732.16 2563.54 1718.65 2576.68C1699.99 2652.35 1694.73 2730.01 1703.02 2807.57C1711.32 2885.12 1732.89 2959.93 1767.14 3029.98Z" />
						</g>
						<g id="&lt;Group&gt;">
							<path id="&lt;Path&gt;" class="shp1" d="M1754.79 3057.06C1754.18 3057.06 1753.56 3057.03 1752.93 3056.95L1676.11 3048.06C1635.45 3043.34 1600.79 3016.79 1585.67 2978.75C1546.08 2879.24 1534.48 2770.8 1552.12 2665.16C1558.86 2624.78 1587.12 2591.5 1625.86 2578.3L1699.06 2553.35C1707.43 2550.48 1716.52 2554.98 1719.37 2563.34C1722.23 2571.7 1717.75 2580.8 1709.39 2583.65L1636.19 2608.59C1608.61 2617.99 1588.49 2641.69 1583.69 2670.43C1567.01 2770.31 1577.98 2872.83 1615.41 2966.93C1626.18 2994 1650.85 3012.91 1679.8 3016.26L1756.61 3025.16C1765.39 3026.17 1771.69 3034.12 1770.67 3042.9C1769.73 3051.05 1762.81 3057.06 1754.79 3057.06Z" />
						</g>
						<g id="&lt;Group&gt;">
							<path id="&lt;Path&gt;" class="shp6" d="M1244.72 2618.9C1391.28 2603.23 1488.11 2672.12 1535.21 2825.57C1521.63 2985.51 1441.57 3073.32 1295.01 3089C1075.17 3112.52 943.83 2888.83 597.17 2925.91C943.83 2888.83 1024.89 2642.42 1244.72 2618.9Z" />
						</g>
						<g id="&lt;Group&gt;">
							<path id="&lt;Path&gt;" class="shp6" d="M1244.72 2618.9C1391.28 2603.23 1488.11 2672.12 1535.21 2825.57C1521.63 2985.51 1441.57 3073.32 1295.01 3089C1075.17 3112.52 943.83 2888.83 597.17 2925.91C943.83 2888.83 1024.89 2642.42 1244.72 2618.9Z" />
						</g>
						<g id="&lt;Group&gt;" style="opacity: 0.4">
							<g id="&lt;Group&gt;">
								<path id="&lt;Path&gt;" class="shp0" d="M597.17 2925.91C943.83 2888.83 1024.89 2642.42 1244.72 2618.9C1381.25 2604.3 1460.22 2687.53 1500.48 2752.72C1456.06 2694.77 1381.51 2636.16 1265.17 2648.61C1077.76 2668.65 991.17 2850.66 754.94 2926.9C707.45 2920.83 655.35 2919.68 597.17 2925.91Z" />
							</g>
						</g>
						<g id="&lt;Group&gt;">
							<path id="&lt;Path&gt;" class="shp7" d="M1319.63 2677.88C1404.96 2668.75 1462.43 2719.12 1492.04 2828.97C1486.33 2942.61 1440.82 3003.99 1355.49 3013.12C1227.51 3026.81 1147.75 2865.8 945.92 2887.39C1147.75 2865.8 1191.65 2691.57 1319.63 2677.88Z" />
						</g>
						<g id="&lt;Group&gt;">
							<path id="&lt;Compound Path&gt;" fill-rule="evenodd" class="shp1" d="M1262.81 3106.72C1175.67 3106.73 1100.51 3070.91 1021.46 3033.23C911.73 2980.93 787.36 2921.66 598.87 2941.82C590.06 2942.77 582.19 2936.4 581.25 2927.61C581.19 2927.04 581.16 2926.46 581.16 2925.9C581.15 2917.82 587.25 2910.87 595.46 2909.99C783.95 2889.83 892.97 2805.6 989.16 2731.27C1067.28 2670.91 1141.07 2613.9 1243.02 2602.99C1338.52 2592.78 1422.09 2627.44 1484.74 2703.22C1531.38 2759.63 1549.75 2818.4 1550.51 2820.87C1551.11 2822.83 1551.33 2824.89 1551.16 2826.92C1550.94 2829.5 1545.41 2890.83 1511.76 2955.83C1466.56 3043.15 1392.19 3094.7 1296.71 3104.91C1285.2 3106.14 1273.9 3106.72 1262.81 3106.72ZM747.6 2909.82C864.48 2922.96 953.75 2965.51 1035.23 3004.34C1123.83 3046.56 1200.37 3083.05 1293.31 3073.09C1378.45 3063.98 1442.23 3019.88 1482.86 2942.02C1509.77 2890.47 1517.35 2840.12 1518.92 2827.31C1514.69 2815.15 1496.63 2767.53 1459.42 2722.83C1403.24 2655.32 1331.58 2625.69 1246.43 2634.82C1153.47 2644.76 1086.4 2696.59 1008.73 2756.6C937.31 2811.79 859.06 2872.25 747.6 2909.82Z" />
						</g>
						<g id="&lt;Group&gt;">
							<path id="&lt;Path&gt;" class="shp3" d="M1763.49 2891.73C1692.91 2899.27 1619.87 2878.81 1544.39 2830.37C1544.63 2830.13 1544.98 2829.79 1545.43 2829.38C1556 2819.15 1646.11 2734.71 1745.52 2724.03C1840.94 2713.8 1924.98 2774.6 1939.79 2786.01C1940.8 2786.79 1941.57 2787.4 1942.09 2787.84C1893.14 2849.64 1833.61 2884.27 1763.49 2891.73Z" />
						</g>
						<g id="&lt;Group&gt;" style="opacity: 0.4">
							<g id="&lt;Group&gt;">
								<path id="&lt;Path&gt;" class="shp0" d="M1545.42 2829.37C1555.99 2819.16 1646.12 2734.73 1745.53 2724.03C1840.94 2713.79 1924.99 2774.6 1939.8 2786.01C1940.81 2786.79 1941.57 2787.39 1942.09 2787.83C1940.13 2790.3 1937.3 2793.55 1933.6 2797.57C1891.47 2773.45 1822.69 2743.84 1747.87 2751.87C1672.21 2760 1601.19 2804.94 1557.76 2838.25C1552.06 2835.06 1547.61 2832.44 1544.4 2830.37C1544.64 2830.13 1544.98 2829.79 1545.42 2829.37Z" />
							</g>
						</g>
						<g id="&lt;Group&gt;" style="opacity: 0.251">
							<path id="&lt;Path&gt;" class="shp4" d="M1763.49 2891.73C1692.91 2899.27 1619.87 2878.81 1544.39 2830.37C1544.63 2830.13 1544.98 2829.79 1545.43 2829.38L1939.79 2786.01C1940.8 2786.79 1941.57 2787.4 1942.09 2787.84C1893.14 2849.64 1833.61 2884.27 1763.49 2891.73Z" />
						</g>
						<g id="&lt;Group&gt;">
							<path id="&lt;Compound Path&gt;" fill-rule="evenodd" class="shp1" d="M1740.39 2908.95C1638.45 2908.95 1540.19 2846.7 1535.74 2843.84C1531.66 2841.22 1528.98 2836.89 1528.47 2832.08C1527.95 2827.25 1529.65 2822.46 1533.09 2819.03C1537.14 2814.99 1633.64 2719.95 1743.84 2708.13C1854.43 2696.31 1948.3 2772.23 1952.24 2775.47C1958.98 2781.01 1960.05 2790.93 1954.63 2797.77C1951.46 2801.77 1875.77 2895.86 1765.18 2907.66C1756.93 2908.54 1748.65 2908.95 1740.39 2908.95ZM1571.44 2827.48C1606.75 2846.5 1687.1 2883.79 1761.78 2875.83C1836.52 2867.86 1894.94 2814.96 1918.38 2790.39C1890.22 2771.36 1821.74 2731.94 1747.25 2739.96C1672.57 2747.96 1601.93 2801.41 1571.44 2827.48Z" />
						</g>
						<g id="&lt;Group&gt;">
							<path id="&lt;Path&gt;" class="shp3" d="M2449.26 2927.7C2341.05 2939.28 2243.94 2860.94 2232.37 2752.72C2220.79 2644.51 2299.13 2547.4 2407.35 2535.83C2515.56 2524.25 2612.67 2602.59 2624.24 2710.81C2635.82 2819.02 2557.48 2916.13 2449.26 2927.7Z" />
						</g>
						<g id="&lt;Group&gt;" style="opacity: 0.302">
							<path id="&lt;Path&gt;" class="shp1" d="M2449.25 2927.69C2341.07 2939.25 2243.93 2860.96 2232.36 2752.74C2228.73 2718.71 2233.99 2685.77 2246.29 2656.24C2244.58 2670.71 2244.43 2685.56 2246.04 2700.67C2257.61 2808.89 2354.71 2887.24 2462.93 2875.67C2537.13 2867.72 2597.28 2819.53 2623.98 2755.18C2613.41 2844.4 2542.39 2917.72 2449.25 2927.69Z" />
						</g>
						<g id="&lt;Group&gt;">
							<path id="&lt;Compound Path&gt;" fill-rule="evenodd" class="shp1" d="M2427.89 2944.85C2379.43 2944.85 2332.78 2928.45 2294.53 2897.59C2250.24 2861.86 2222.51 2811.02 2216.46 2754.43C2210.4 2697.84 2226.75 2642.28 2262.48 2597.99C2298.21 2553.7 2349.06 2525.97 2405.64 2519.92C2462.23 2513.87 2517.79 2530.2 2562.08 2565.94C2606.37 2601.67 2634.1 2652.51 2640.15 2709.1C2646.21 2765.69 2629.86 2821.25 2594.13 2865.54C2558.39 2909.83 2507.55 2937.56 2450.96 2943.61C2443.25 2944.44 2435.55 2944.85 2427.89 2944.85ZM2428.65 2550.69C2422.15 2550.69 2415.61 2551.04 2409.05 2551.74C2360.96 2556.88 2317.76 2580.44 2287.39 2618.09C2257.03 2655.73 2243.14 2702.93 2248.28 2751.02C2253.43 2799.11 2276.99 2842.31 2314.63 2872.68C2352.26 2903.04 2399.45 2916.92 2447.56 2911.79C2495.65 2906.65 2538.85 2883.09 2569.22 2845.44C2599.58 2807.81 2613.47 2760.6 2608.33 2712.51C2603.18 2664.42 2579.62 2621.22 2541.98 2590.85C2509.48 2564.63 2469.83 2550.69 2428.65 2550.69Z" />
						</g>
						<g id="&lt;Group&gt;">
							<path id="&lt;Path&gt;" class="shp8" d="M2443.72 2853.84C2374.88 2861.2 2313.1 2811.36 2305.74 2742.52C2298.37 2673.67 2348.21 2611.9 2417.05 2604.53C2485.9 2597.17 2547.67 2647.01 2555.04 2715.85C2562.4 2784.69 2512.56 2846.47 2443.72 2853.84Z" />
						</g>
						<g id="&lt;Group&gt;" style="opacity: 0.302">
							<g id="&lt;Group&gt;">
								<path id="&lt;Path&gt;" class="shp0" d="M2443.71 2853.85C2374.86 2861.22 2313.1 2811.37 2305.74 2742.52C2304.13 2727.61 2305.22 2713.01 2308.64 2699.25C2308.73 2700.64 2308.86 2702.02 2309 2703.44C2316.36 2772.29 2378.12 2822.14 2446.97 2814.78C2500.92 2809.02 2543.18 2769.86 2555.41 2720.07C2560.36 2787.2 2511.14 2846.63 2443.71 2853.85Z" />
							</g>
						</g>
						<g id="&lt;Group&gt;" style="opacity: 0.349">
							<path id="&lt;Path&gt;" class="shp4" d="M2550.81 2769.18C2550.66 2767.04 2550.51 2764.89 2550.27 2762.72C2542.91 2693.87 2481.15 2644.02 2412.3 2651.39C2360.48 2656.91 2319.41 2693.3 2305.46 2740.3C2301.78 2674.08 2350.64 2615.91 2417.32 2608.79C2486.13 2601.43 2547.93 2651.23 2555.29 2720.08C2557.09 2737.12 2555.44 2753.74 2550.81 2769.18Z" />
						</g>
						<g id="&lt;Group&gt;">
							<path id="&lt;Compound Path&gt;" fill-rule="evenodd" class="shp1" d="M2430.11 2870.57C2397.96 2870.57 2367.01 2859.69 2341.63 2839.21C2312.24 2815.5 2293.84 2781.77 2289.82 2744.22C2285.81 2706.67 2296.65 2669.81 2320.36 2640.42C2344.07 2611.03 2377.8 2592.63 2415.35 2588.62C2492.88 2580.34 2562.66 2636.65 2570.95 2714.15C2579.24 2791.66 2522.93 2861.45 2445.42 2869.75L2445.42 2869.75C2440.3 2870.29 2435.19 2870.57 2430.11 2870.57ZM2430.47 2619.82C2426.6 2619.82 2422.69 2620.02 2418.75 2620.44C2389.71 2623.55 2363.61 2637.78 2345.27 2660.52C2326.93 2683.25 2318.54 2711.77 2321.65 2740.82C2324.76 2769.86 2338.99 2795.96 2361.72 2814.3C2384.46 2832.64 2412.99 2841.04 2442.02 2837.92C2442.02 2837.92 2442.02 2837.92 2442.02 2837.92C2471.06 2834.81 2497.16 2820.58 2515.5 2797.85C2533.84 2775.11 2542.23 2746.6 2539.13 2717.55C2533.13 2661.53 2485.59 2619.82 2430.47 2619.82Z" />
						</g>
						<g id="&lt;Group&gt;">
							<path id="&lt;Path&gt;" class="shp9" d="M2445.28 2266.48C2445.38 2265.8 2445.45 2265.12 2445.51 2264.44C2445.51 2264.53 2445.51 2264.64 2445.49 2264.75C2445.44 2265.32 2445.38 2265.91 2445.28 2266.48Z" />
						</g>
						<g id="&lt;Group&gt;">
							<g id="&lt;Group&gt;" style="opacity: 0.302">
								<path id="&lt;Path&gt;" class="shp1" d="M924.86 2946.7C1354.14 3032.67 1531.34 2952.45 1456.46 2706.02L1463.85 2703.5C1494.35 2737.45 1513.76 2774.02 1524.51 2798.19C1521.64 2823.5 1491.34 3037.03 1284.57 3059.15C1154.66 3073.05 1055.65 3000.63 924.86 2946.7Z" />
							</g>
						</g>
					</g>
				</g>
				<g id="&lt;Group&gt;">
					<g id="&lt;Group&gt;">
						<path id="&lt;Path&gt;" class="shp0" d="M1815.3 2289.97C1680.74 2292.43 1603.66 2270.44 1584.05 2224.02C1540.83 2121.65 1594.49 1797.01 1655.43 1720.87C1694.89 1671.57 1790.51 1656.31 1942.3 1675.1L1815.3 2289.97Z" />
					</g>
					<g id="&lt;Group&gt;" style="opacity: 0.302">
						<path id="&lt;Path&gt;" class="shp1" d="M1590.3 1902.36C1583.92 1979.82 1586.68 2051.05 1603.08 2089.92C1622.68 2136.35 1699.77 2158.33 1834.33 2155.87L1815.31 2289.97C1680.74 2292.42 1603.66 2270.44 1584.06 2224.01C1558.26 2162.9 1566.26 2021.9 1590.3 1902.36Z" />
					</g>
					<g id="&lt;Group&gt;">
						<path id="&lt;Compound Path&gt;" fill-rule="evenodd" class="shp1" d="M1806.94 2306.04C1763.33 2306.04 1599.29 2301.25 1569.31 2230.24C1522.97 2120.48 1578.58 1791.28 1642.93 1710.87C1705.89 1632.21 1920.05 1656.22 1944.26 1659.22L1961.48 1661.35L1828.38 2305.74L1815.59 2305.97C1813.8 2306.01 1810.85 2306.04 1806.94 2306.04ZM1848.12 1685.78C1778.09 1685.78 1696.62 1695.01 1667.92 1730.87C1610.67 1802.4 1557.59 2120.19 1598.8 2217.79C1616.13 2258.84 1727.69 2273.66 1802.24 2274.05L1923.05 1689.15C1902.76 1687.28 1876.36 1685.78 1848.12 1685.78ZM1815.3 2289.97L1815.35 2289.97L1815.3 2289.97Z" />
					</g>
					<g id="&lt;Group&gt;">
						<path id="&lt;Path&gt;" class="shp0" d="M1746.34 2033.04C1746.51 2070.42 1743.94 2135.99 1724.74 2155.22C1711.75 2168.23 1661.52 2175.99 1613.24 2152.15C1578.94 2135.21 1588.14 2056.93 1596.35 2013.02C1599.49 1996.2 1615.55 1985.02 1632.43 1987.79L1719.91 2002.14C1735.07 2004.63 1746.27 2017.67 1746.34 2033.04Z" />
					</g>
					<g id="&lt;Group&gt;" style="opacity: 0.302">
						<path id="&lt;Path&gt;" class="shp1" d="M1596.34 2013.03C1597.38 2007.42 1599.88 2002.47 1603.33 1998.42C1600.57 2036.2 1603.96 2075.38 1627.04 2086.77C1675.32 2110.61 1725.52 2102.85 1738.53 2089.86C1740.87 2087.52 1742.96 2084.49 1744.82 2080.9C1742.51 2111.64 1737.03 2142.9 1724.75 2155.2C1711.73 2168.23 1661.54 2175.99 1613.25 2152.15C1578.93 2135.21 1588.13 2056.94 1596.34 2013.03Z" />
					</g>
					<g id="&lt;Group&gt;">
						<path id="&lt;Compound Path&gt;" fill-rule="evenodd" class="shp1" d="M1678.97 2182.7C1656.47 2182.7 1630.76 2177.53 1606.6 2165.6C1573.78 2149.39 1565.37 2097.13 1581.6 2010.27C1586.2 1985.65 1610.09 1968.94 1634.86 1972.99L1722.34 1987.34C1744.83 1991.03 1761.23 2010.22 1761.34 2032.97C1761.66 2103.53 1752.92 2148.23 1735.35 2165.82C1724.82 2176.36 1703.87 2182.7 1678.97 2182.7ZM1627.35 2002.38C1619.56 2002.38 1612.56 2007.94 1611.09 2015.78C1598.77 2081.73 1602.22 2129.98 1619.88 2138.7C1663.9 2160.43 1707.15 2151.62 1714.12 2144.62C1722.65 2136.08 1731.66 2102.29 1731.34 2033.11C1731.3 2025.05 1725.47 2018.26 1717.48 2016.94L1630 2002.59C1629.11 2002.45 1628.22 2002.38 1627.35 2002.38Z" />
					</g>
					<g id="&lt;Group&gt;">
						<path id="&lt;Path&gt;" class="shp1" d="M1699.91 1712.15C1713.29 1706.34 1727.55 1702.26 1742.06 1699.85C1756.58 1697.35 1771.32 1696.5 1785.89 1696.3C1800.44 1696.11 1814.92 1696.75 1828.68 1696.73C1835.53 1696.7 1842.21 1696.43 1848.06 1695.54C1853.92 1694.73 1858.58 1692.74 1860.06 1691.03C1865.96 1684.19 1876.29 1683.43 1883.13 1689.34C1889.97 1695.24 1890.73 1705.57 1884.83 1712.41C1883.71 1713.7 1882.44 1714.78 1881.05 1715.63L1878.51 1717.19C1868.14 1723.54 1858.29 1724.28 1850.09 1724.45C1841.76 1724.48 1834.21 1723.61 1826.89 1722.62C1812.32 1720.55 1798.56 1717.94 1784.74 1716.16C1770.96 1714.38 1757.19 1713.23 1743.43 1713.62C1729.67 1713.93 1715.94 1715.81 1702.53 1719.48L1702.49 1719.49C1700.42 1720.06 1698.27 1718.84 1697.7 1716.76C1697.18 1714.86 1698.16 1712.91 1699.91 1712.15Z" />
					</g>
				</g>
				<g id="&lt;Group&gt;">
					<path id="&lt;Path&gt;" class="shp0" d="M2538.65 2221.11C2533.49 2233.79 2526.53 2245.8 2517.45 2257C2514.97 2260.08 2512.25 2262.92 2509.29 2265.56C2500.6 2273.36 2490.12 2279.44 2479.08 2284.25C2455.71 2294.45 2429.79 2299.09 2412.58 2303.17C2367.05 2314.05 2348.73 2327.5 2345.89 2329.78C2345.7 2329.91 2345.57 2330.02 2345.49 2330.1C2448.07 2438.92 2370.17 2561.87 2337.45 2612.92C2393.09 2683.93 2401.45 2749.25 2362.53 2808.89C2310.44 2888.75 2180.33 2855.94 2139.44 2792.89C2107.19 2743.11 2083.55 2697.3 2075.9 2610.16C2064.1 2476.57 1920.71 2470.21 1853.69 2398.55C1809.32 2351.1 1786.28 2284.45 1781.84 2202.91C1779.87 2166.9 1781.55 2128.01 1786.56 2086.6C1803.52 1947.41 1858.61 1779.73 1942.83 1597.8C2346.34 1653.18 2542.93 1701.28 2532.61 1742.12C2485.32 1929.24 2586.02 2104.88 2538.65 2221.11Z" />
				</g>
				<g id="&lt;Group&gt;" style="opacity: 0.302">
					<path id="&lt;Path&gt;" class="shp1" d="M2538.65 2221.11C2533.49 2233.79 2526.53 2245.8 2517.45 2257C2514.97 2260.08 2512.25 2262.92 2509.29 2265.56C2517.53 2255.68 2522.41 2242.96 2522.21 2229.15L2522.17 2225.87C2528.25 2224.91 2533.73 2223.39 2538.65 2221.11Z" />
				</g>
				<g id="&lt;Group&gt;" style="opacity: 0.302">
					<path id="&lt;Path&gt;" class="shp1" d="M2522.21 2229.15C2522.41 2242.96 2517.53 2255.68 2509.29 2265.56C2500.6 2273.36 2490.12 2279.44 2479.08 2284.25C2455.71 2294.45 2429.79 2299.09 2412.58 2303.17C2367.05 2314.05 2348.73 2327.5 2345.89 2329.78C2304.6 2305.21 2248.62 2281.13 2200.85 2293.01C2201.47 2292.13 2202.39 2290.91 2203.61 2289.37C2175.21 2287.29 2152.36 2263.64 2151.92 2234.59L2151.88 2233.19C2077.61 2253.56 2022.64 2254.75 1953.76 2246.81C1921.39 2243.07 1890.29 2263.71 1883.29 2295.54C1880.42 2308.58 1882.22 2321.7 1893.06 2333.3C1960.04 2404.95 2103.47 2411.32 2115.23 2544.91C2122.92 2632.05 2146.52 2677.86 2178.81 2727.59C2217.66 2787.6 2342.89 2827.61 2382.34 2721.47C2385.42 2749.64 2381.3 2780.12 2362.53 2808.89C2310.44 2888.75 2180.33 2855.94 2139.44 2792.89C2107.19 2743.11 2083.55 2697.3 2075.9 2610.16C2064.1 2476.57 1920.71 2470.21 1853.69 2398.55C1809.32 2351.1 1786.28 2284.45 1781.84 2202.91C1781.76 2201.27 1781.67 2199.63 1781.59 2197.95C1781.47 2195.47 1781.39 2192.94 1781.31 2190.38C1781.19 2187.5 1781.15 2184.58 1781.11 2181.62C1781.07 2178.7 1781.03 2175.78 1781.03 2172.82C1781.03 2169.1 1781.07 2165.38 1781.15 2161.58C1781.19 2158.5 1781.27 2155.38 1781.39 2152.21C1781.39 2151.77 1781.39 2151.29 1781.43 2150.85C1781.55 2147.73 1781.67 2144.61 1781.84 2141.49C1781.99 2138.29 1782.15 2135.05 1782.39 2131.77C1782.6 2128.13 1782.87 2124.45 1783.15 2120.73C1783.36 2118.21 1783.56 2115.69 1783.79 2113.17L1783.79 2112.97C1783.99 2110.73 1784.2 2108.48 1784.44 2106.24C1785.04 2099.76 1785.76 2093.2 1786.56 2086.6C1796.68 2091.96 1808.12 2096.68 1820.52 2100.92C1935.99 2140.29 2136.48 2134.25 2150.44 2133.77L2149.88 2096.84C2149.52 2070 2168.41 2047.15 2193.69 2041.59C2197.29 2040.79 2201.01 2040.39 2204.81 2040.31L2463.6 2036.47C2494.28 2036.03 2519.73 2060.71 2520.17 2091.4L2521.81 2200.51L2522.17 2225.87L2522.21 2229.15Z" />
				</g>
				<g id="&lt;Group&gt;" style="opacity: 0.302">
					<path id="&lt;Path&gt;" class="shp1" d="M2509.29 2265.56C2501.64 2274.76 2491.12 2281.45 2479.08 2284.25C2490.12 2279.44 2500.6 2273.36 2509.29 2265.56Z" />
				</g>
				<g id="&lt;Group&gt;" style="opacity: 0.302">
					<path id="&lt;Path&gt;" class="shp1" d="M1952.39 1599.16C1869.7 1790.81 1821.96 1963.97 1820.52 2100.92C1808.12 2096.68 1796.68 2091.96 1786.56 2086.6C1803.52 1947.41 1858.61 1779.73 1942.83 1597.8C1945.07 1598.1 1948.26 1598.55 1952.39 1599.16Z" />
				</g>
				<g id="&lt;Group&gt;">
					<path id="&lt;Compound Path&gt;" fill-rule="evenodd" class="shp1" d="M2268.4 2872C2268.32 2872 2268.24 2872 2268.15 2872C2211.28 2871.91 2152.82 2842.96 2126 2801.58C2095.92 2755.18 2068.24 2705.73 2059.95 2611.59C2053.06 2533.37 1996 2503.63 1935.6 2472.14C1902 2454.63 1867.26 2436.52 1841.99 2409.5C1715.81 2274.58 1746.47 1983.93 1928.31 1591.1C1931.27 1584.71 1938.04 1581.01 1945.01 1581.97C1946.38 1582.15 2083.81 1601.08 2224.41 1627.12C2514.73 1680.89 2535.85 1712.19 2543.8 1723.98C2549.75 1732.8 2549.43 1740.83 2548.12 1746.03C2524.34 1840.12 2539.6 1933.24 2553.06 2015.41C2569.37 2115 2583.46 2201.02 2529.89 2267.08C2503.86 2299.16 2457.39 2309.53 2426.63 2316.39C2422.93 2317.22 2419.45 2317.99 2416.29 2318.74C2394.69 2323.9 2379.8 2329.62 2370.19 2334.13C2456.43 2442.06 2390.53 2558.92 2356.75 2612.39C2376.68 2641.87 2430.01 2734.77 2375.95 2817.63C2353.07 2852.7 2314.88 2872 2268.4 2872ZM1952.39 1615.32C1780.74 1990.02 1749.79 2264.04 1865.37 2387.64C1886.91 2410.67 1917.75 2426.74 1950.39 2443.76C2012.74 2476.26 2083.4 2513.1 2091.83 2608.77C2099.49 2695.72 2124 2739.65 2152.86 2784.17C2173.78 2816.45 2222.29 2839.93 2268.2 2839.99C2268.26 2839.99 2268.33 2839.99 2268.4 2839.99C2293.42 2839.99 2327.66 2833.06 2349.14 2800.14C2400.65 2721.19 2325.61 2623.75 2324.85 2622.78C2320.65 2617.43 2320.3 2610 2323.97 2604.27C2355.23 2555.53 2428.43 2441.41 2333.84 2341.07C2330.86 2337.91 2329.29 2333.66 2329.51 2329.31C2329.72 2324.97 2331.69 2320.89 2334.97 2318.03C2337.04 2316.23 2356.66 2300.07 2408.86 2287.61C2412.17 2286.82 2415.8 2286.01 2419.66 2285.15C2446.09 2279.25 2486.02 2270.35 2505.03 2246.91C2549.55 2192.01 2536.54 2112.57 2521.47 2020.58C2507.63 1936.06 2491.95 1840.37 2516.45 1740.75C2510.05 1733.19 2470.08 1705.34 2221.59 1659.15C2104.42 1637.38 1988.81 1620.5 1952.39 1615.32Z" />
				</g>
				<g id="&lt;Group&gt;">
					<path id="&lt;Path&gt;" class="shp0" d="M1825.44 2029.51C1724.23 2009.7 1641.9 1972.51 1578.45 1917.94C1466.86 1821.96 1414.86 1686.67 1429.45 1597.82C1433.21 1574.88 1443.41 1560.04 1460.04 1553.29C1460.67 1535.09 1467.25 1521.32 1479.79 1511.98C1491.04 1503.6 1504.21 1500.18 1519.3 1501.73C1523.97 1486.27 1534.52 1477.27 1550.95 1474.72C1607.37 1465.98 1650.91 1525.88 1686.29 1594.7C1711.77 1644.26 1734.49 1667.82 1767.95 1693.81C1801.53 1719.89 1872.1 1749.48 1979.67 1782.58" />
				</g>
				<g id="&lt;Group&gt;" style="opacity: 0.302">
					<path id="&lt;Path&gt;" class="shp1" d="M1825.45 2029.51L1825.44 2029.51C1724.22 2009.69 1641.9 1972.51 1578.47 1917.96C1466.88 1821.98 1414.87 1686.67 1429.43 1597.8C1433.22 1574.87 1443.42 1560.02 1460.04 1553.27C1460.68 1535.08 1467.27 1521.32 1479.8 1511.98C1491.03 1503.61 1504.2 1500.19 1519.29 1501.74C1523.96 1486.27 1534.51 1477.27 1550.94 1474.74C1560.58 1473.26 1569.87 1473.74 1578.83 1475.98C1578.29 1477.15 1577.92 1478.11 1577.71 1478.86C1562.61 1477.31 1549.45 1480.74 1538.22 1489.14C1525.68 1498.47 1519.09 1512.24 1518.45 1530.43C1501.84 1537.18 1491.63 1552.02 1487.85 1574.96C1473.28 1663.82 1525.29 1799.09 1636.88 1895.07C1688.98 1939.9 1758.05 1969.08 1809.9 1986.31C1827.85 1992.28 1835.47 2013.46 1825.45 2029.51Z" />
				</g>
				<g id="&lt;Group&gt;">
					<path id="&lt;Path&gt;" class="shp1" d="M1825.45 2045.52C1824.43 2045.52 1823.4 2045.42 1822.36 2045.22C1815.99 2043.97 1665.28 2013.73 1568.02 1930.08C1447.59 1826.5 1399.21 1683.22 1413.65 1595.23C1418.42 1566.19 1434.69 1550.67 1445.08 1543.53C1447.09 1531.83 1452.98 1512 1470.22 1499.15C1483.5 1489.26 1498.81 1486.4 1509.16 1485.72C1515.93 1474.48 1528.53 1462 1548.5 1458.91C1619.87 1447.84 1669.45 1526.93 1700.53 1587.38C1724.84 1634.67 1746.43 1656.83 1777.77 1681.17C1825.24 1718.04 1982.8 1766.8 1984.38 1767.29C1992.83 1769.89 1997.57 1778.84 1994.97 1787.29C1992.37 1795.73 1983.42 1800.49 1974.97 1797.88C1968.27 1795.81 1810.21 1746.89 1758.14 1706.45C1723.99 1679.92 1698.96 1654.33 1672.06 1602.01C1629.87 1519.95 1592.18 1484.52 1553.4 1490.54C1539.57 1492.68 1535.03 1505.15 1534.55 1506.57C1532.18 1513.67 1525.12 1518.43 1517.67 1517.65C1517.6 1517.65 1500.84 1516.26 1489.35 1524.82C1479.19 1532.39 1476.29 1548.4 1476.03 1553.94C1475.74 1560.17 1471.84 1565.77 1466.06 1568.12C1465.61 1568.33 1449.26 1575.91 1445.24 1600.41C1432.24 1679.6 1477.41 1809.92 1588.89 1905.81C1679.64 1983.86 1827.04 2013.52 1828.52 2013.81C1837.19 2015.52 1842.84 2023.93 1841.14 2032.6C1839.64 2040.23 1832.95 2045.52 1825.45 2045.52Z" />
				</g>
				<g id="&lt;Group&gt;">
					<path id="&lt;Path&gt;" class="shp9" d="M2370.05 2273.12C2370.16 2272.44 2370.25 2271.76 2370.31 2271.08C2370.31 2271.17 2370.31 2271.28 2370.29 2271.39C2370.23 2271.96 2370.16 2272.55 2370.05 2273.12Z" />
				</g>
				<g id="&lt;Group&gt;">
					<path id="&lt;Path&gt;" class="shp0" d="M2443.65 2253.96C2429.29 2253.45 2413.2 2252.73 2395.74 2251.71C2425.04 2251.3 2452.33 2250.3 2476.68 2248.99C2466.32 2252.61 2455.12 2254.33 2443.65 2253.96Z" />
				</g>
				<g id="&lt;Group&gt;">
					<path id="&lt;Path&gt;" class="shp0" d="M2592.65 2120.8C2591.44 2147.81 2568.56 2168.74 2541.55 2167.53C2514.53 2166.32 2493.61 2143.44 2494.82 2116.43C2496.02 2089.41 2518.9 2068.49 2545.92 2069.69C2572.94 2070.9 2593.86 2093.78 2592.65 2120.8Z" />
				</g>
				<g id="&lt;Group&gt;" style="opacity: 0.2">
					<path id="&lt;Path&gt;" class="shp1" d="M2592.64 2120.79C2591.44 2147.81 2568.57 2168.75 2541.55 2167.55C2514.54 2166.34 2493.59 2143.43 2494.8 2116.42C2495.14 2108.95 2497.12 2101.92 2500.44 2095.72C2507.55 2112.59 2523.91 2124.81 2543.43 2125.68C2562.94 2126.55 2580.32 2115.84 2588.87 2099.67C2591.62 2106.14 2592.98 2113.33 2592.64 2120.79Z" />
				</g>
				<g id="&lt;Group&gt;">
					<path id="&lt;Compound Path&gt;" fill-rule="evenodd" class="shp1" d="M2543.77 2180.08C2542.85 2180.08 2541.92 2180.06 2540.99 2180.01C2507.13 2178.51 2480.82 2149.73 2482.33 2115.87C2483.84 2082.01 2512.67 2055.59 2546.48 2057.21C2580.34 2058.72 2606.65 2087.5 2605.14 2121.36C2603.67 2154.29 2576.41 2180.08 2543.77 2180.08ZM2543.72 2082.14C2524.35 2082.14 2508.18 2097.45 2507.3 2116.98C2506.87 2126.71 2510.25 2136.03 2516.82 2143.22C2523.4 2150.41 2532.38 2154.61 2542.11 2155.04C2562.23 2155.92 2579.27 2140.33 2580.17 2120.24C2581.06 2100.16 2565.45 2083.08 2545.36 2082.18C2544.81 2082.15 2544.26 2082.14 2543.72 2082.14ZM2592.65 2120.8L2592.7 2120.8L2592.65 2120.8Z" />
				</g>
				<g id="&lt;Group&gt;">
					<path id="&lt;Path&gt;" class="shp0" d="M2487.32 2237.68L2228.48 2241.5C2197.85 2241.96 2172.39 2217.26 2171.93 2186.59L2169.9 2048.85C2169.51 2022 2188.41 1999.16 2213.7 1993.59C2217.28 1992.78 2221 1992.36 2224.82 1992.29L2483.62 1988.48C2514.29 1988.02 2539.75 2012.72 2540.17 2043.39L2541.8 2152.48L2542.23 2181.13C2542.69 2211.8 2517.95 2237.22 2487.32 2237.68Z" />
				</g>
				<g id="&lt;Group&gt;" style="opacity: 0.302">
					<path id="&lt;Path&gt;" class="shp1" d="M2487.32 2237.68L2228.48 2241.5C2197.85 2241.96 2172.39 2217.26 2171.93 2186.59L2169.9 2048.85C2169.51 2022 2188.41 1999.16 2213.7 1993.59C2223.59 1999.95 2231.68 2005.17 2237.97 2009.24C2252.2 2119.62 2284.5 2174.29 2421.82 2174.5C2481.1 2174.58 2518.38 2164.99 2541.8 2152.48L2542.23 2181.13C2542.69 2211.8 2517.95 2237.22 2487.32 2237.68Z" />
				</g>
				<g id="&lt;Group&gt;">
					<path id="&lt;Compound Path&gt;" fill-rule="evenodd" class="shp1" d="M2227.66 2251.52C2210.52 2251.52 2194.32 2244.93 2181.93 2232.9C2169.3 2220.64 2162.2 2204.25 2161.94 2186.75L2159.9 2048.99C2159.37 2012.75 2188.42 1982.82 2224.67 1982.29L2483.48 1978.46C2483.81 1978.46 2484.14 1978.46 2484.47 1978.46C2520.27 1978.46 2549.66 2007.31 2550.19 2043.23L2552.22 2180.99C2552.48 2198.48 2545.87 2215.07 2533.61 2227.7C2521.35 2240.34 2504.96 2247.43 2487.46 2247.69L2228.64 2251.51L2228.65 2251.51C2228.32 2251.52 2227.99 2251.52 2227.66 2251.52ZM2484.46 1998.46C2484.24 1998.46 2484.01 1998.46 2483.78 1998.46L2224.96 2002.29C2199.75 2002.66 2179.53 2023.48 2179.9 2048.7L2181.94 2186.46C2182.12 2198.61 2187.06 2210.01 2195.86 2218.55C2204.66 2227.09 2216.22 2231.68 2228.35 2231.51L2487.16 2227.69C2499.32 2227.51 2510.72 2222.57 2519.26 2213.77C2527.8 2204.98 2532.4 2193.44 2532.22 2181.28L2530.19 2043.52C2529.82 2018.54 2509.37 1998.46 2484.46 1998.46Z" />
				</g>
				<g id="&lt;Group&gt;">
					<path id="&lt;Path&gt;" class="shp0" d="M2497.69 2236.51C2494.35 2237.26 2490.9 2237.65 2487.32 2237.68L2228.48 2241.5C2206.03 2241.82 2186.37 2228.68 2177.29 2209.5C2173.98 2202.53 2172.07 2194.77 2171.97 2186.59L2171.04 2125.4L2170.74 2105.21L2169.9 2048.85C2169.44 2018.18 2194.18 1992.76 2224.82 1992.29L2280.75 1991.48C2255.04 1996.72 2235.74 2019.74 2236.13 2046.86L2237.21 2121.27L2238.15 2184.64C2238.61 2215.27 2264.07 2240.02 2294.71 2239.55L2497.69 2236.51Z" />
				</g>
				<g id="&lt;Group&gt;" style="opacity: 0.302">
					<path id="&lt;Path&gt;" class="shp1" d="M2497.69 2236.51C2494.35 2237.26 2490.9 2237.65 2487.32 2237.68L2228.48 2241.5C2197.85 2241.96 2172.39 2217.26 2171.97 2186.59L2170.74 2105.21C2177.46 2119.49 2189.41 2136.97 2208.16 2138.55C2218.44 2139.43 2228.43 2131.9 2237.21 2121.27L2238.15 2184.64C2238.61 2215.27 2264.07 2240.02 2294.71 2239.55L2497.69 2236.51Z" />
				</g>
				<g id="&lt;Group&gt;">
					<path id="&lt;Compound Path&gt;" fill-rule="evenodd" class="shp1" d="M2227.61 2251.52C2210.5 2251.52 2194.32 2244.93 2181.93 2232.91C2169.29 2220.63 2162.2 2204.24 2161.95 2186.74L2159.92 2048.99C2159.36 2012.76 2188.41 1982.84 2224.67 1982.28L2280.59 1981.46C2280.64 1981.46 2280.69 1981.46 2280.73 1981.46C2285.83 1981.46 2290.12 1985.3 2290.67 1990.39C2291.23 1995.52 2287.79 2000.23 2282.74 2001.26C2261.2 2005.67 2245.81 2024.79 2246.13 2046.73L2248.17 2184.49C2248.34 2196.65 2253.28 2208.05 2262.08 2216.59C2270.88 2225.13 2282.42 2229.78 2294.54 2229.55L2497.56 2226.53C2502.66 2226.37 2507.06 2230.28 2507.64 2235.4C2508.22 2240.51 2504.83 2245.22 2499.8 2246.3C2495.71 2247.18 2491.54 2247.65 2487.4 2247.68L2228.63 2251.51C2228.29 2251.52 2227.95 2251.52 2227.61 2251.52ZM2243.11 2002.01L2224.97 2002.28C2199.75 2002.67 2179.53 2023.49 2179.92 2048.7L2181.95 2186.45L2181.95 2186.46C2182.12 2198.61 2187.06 2210.01 2195.86 2218.55C2204.66 2227.1 2216.1 2231.75 2228.33 2231.51L2248.43 2231.22C2248.34 2231.12 2248.24 2231.03 2248.15 2230.94C2235.51 2218.67 2228.41 2202.28 2228.17 2184.78L2226.13 2047.03C2225.88 2029.92 2232.27 2014.01 2243.11 2002.01Z" />
				</g>
				<g id="&lt;Group&gt;">
					<path id="&lt;Path&gt;" class="shp10" d="M2339.22 2115.36C2339.25 2118.76 2337 2134.19 2332.47 2161.64C2323.79 2161.72 2314.11 2161.81 2303.45 2161.91C2283.46 2162.09 2267.08 2141.54 2266.85 2116.02C2266.62 2090.49 2282.63 2069.65 2302.61 2069.47C2311.61 2069.39 2321.28 2069.31 2331.64 2069.21C2336.64 2094.45 2339.17 2109.83 2339.22 2115.36Z" />
				</g>
				<g id="&lt;Group&gt;" style="opacity: 0.2">
					<path id="&lt;Path&gt;" class="shp1" d="M2339.22 2115.36C2339.25 2118.76 2337 2134.19 2332.47 2161.64C2323.79 2161.72 2314.11 2161.81 2303.45 2161.91C2283.46 2162.09 2267.08 2141.54 2266.85 2116.02C2266.62 2090.49 2282.63 2069.65 2302.61 2069.47C2311.61 2069.39 2321.28 2069.31 2331.64 2069.21C2336.64 2094.45 2339.17 2109.83 2339.22 2115.36Z" />
				</g>
				<g id="&lt;Group&gt;">
					<path id="&lt;Compound Path&gt;" fill-rule="evenodd" class="shp1" d="M2303.18 2169.4C2291.29 2169.4 2280.18 2163.69 2271.88 2153.28C2263.92 2143.31 2259.47 2130.1 2259.35 2116.08C2259.22 2102.07 2263.43 2088.78 2271.2 2078.67C2279.39 2068.01 2290.53 2062.08 2302.55 2061.97L2322.81 2061.79C2331.52 2061.76 2339.05 2067.88 2340.67 2076.45C2344.64 2097.38 2346.67 2110.44 2346.72 2115.29C2346.73 2116.48 2346.75 2120.11 2341.3 2154.09C2339.9 2162.78 2332.48 2169.15 2323.67 2169.22L2303.52 2169.4C2303.41 2169.4 2303.29 2169.4 2303.18 2169.4ZM2322.98 2076.79C2322.97 2076.79 2322.96 2076.79 2322.95 2076.79L2302.68 2076.97C2295.37 2077.04 2288.42 2080.89 2283.1 2087.81C2277.36 2095.28 2274.25 2105.27 2274.35 2115.95C2274.44 2126.63 2277.73 2136.56 2283.6 2143.93C2289.04 2150.75 2296.02 2154.3 2303.38 2154.4L2323.54 2154.22C2325.01 2154.21 2326.25 2153.15 2326.49 2151.7C2330.31 2127.88 2331.7 2117.27 2331.72 2115.41C2331.68 2111.66 2329.52 2098.14 2325.94 2079.24C2325.67 2077.82 2324.43 2076.79 2322.98 2076.79Z" />
				</g>
				<g id="&lt;Group&gt;">
					<path id="&lt;Path&gt;" class="shp10" d="M2368.24 2115.1C2368.47 2140.63 2352.46 2161.46 2332.47 2161.64C2312.49 2161.82 2296.1 2141.28 2295.87 2115.75C2295.64 2090.23 2311.65 2069.39 2331.64 2069.21C2351.62 2069.03 2368.01 2089.58 2368.24 2115.1Z" />
				</g>
				<g id="&lt;Group&gt;" style="opacity: 0.702">
					<path id="&lt;Path&gt;" class="shp0" d="M2368.24 2115.09C2368.28 2118.44 2368.03 2121.69 2367.51 2124.83C2364.06 2103.58 2349.26 2087.67 2331.64 2087.81C2314.27 2087.98 2299.92 2103.72 2296.61 2124.55C2296.16 2121.69 2295.91 2118.76 2295.88 2115.75C2295.63 2090.21 2311.65 2069.38 2331.64 2069.21C2351.64 2069.03 2368 2089.59 2368.24 2115.09Z" />
				</g>
				<g id="&lt;Group&gt;" style="opacity: 0.2">
					<path id="&lt;Path&gt;" class="shp1" d="M2368.24 2115.09C2368.45 2140.63 2352.47 2161.46 2332.48 2161.64C2312.49 2161.81 2296.09 2141.3 2295.88 2115.75C2295.84 2110.45 2296.47 2105.36 2297.73 2100.61C2302.54 2119.17 2316.32 2132.54 2332.48 2132.4C2348.32 2132.26 2361.65 2119.14 2366.39 2101C2367.55 2105.43 2368.21 2110.17 2368.24 2115.09Z" />
				</g>
				<g id="&lt;Group&gt;">
					<path id="&lt;Compound Path&gt;" fill-rule="evenodd" class="shp1" d="M2332.21 2169.15C2308.27 2169.15 2288.64 2145.31 2288.37 2115.83C2288.1 2086.21 2307.48 2061.93 2331.57 2061.71C2343.58 2061.76 2354.83 2067.33 2363.21 2077.84C2371.16 2087.81 2375.61 2101.02 2375.74 2115.03C2376.01 2144.65 2356.63 2168.93 2332.54 2169.15C2332.43 2169.15 2332.32 2169.15 2332.21 2169.15ZM2331.9 2076.71C2331.83 2076.71 2331.77 2076.71 2331.71 2076.71C2315.89 2076.86 2303.18 2094.34 2303.37 2115.69C2303.56 2136.95 2316.48 2154.15 2332.21 2154.15C2332.27 2154.15 2332.34 2154.15 2332.4 2154.15C2348.22 2154 2360.93 2136.52 2360.74 2115.17C2360.64 2104.49 2357.36 2094.56 2351.48 2087.19C2346.09 2080.43 2339.14 2076.71 2331.9 2076.71Z" />
				</g>
				<g id="&lt;Group&gt;">
					<path id="&lt;Path&gt;" class="shp1" d="M2406.84 2247.88C2406.81 2247.88 2406.78 2247.88 2406.75 2247.88C2401.23 2247.83 2396.79 2243.31 2396.84 2237.79L2397.46 2168.09C2397.63 2148.53 2407.53 2130.49 2423.93 2119.83C2434.96 2112.68 2441.45 2100.55 2441.3 2087.41L2440.19 1989.16C2440.13 1983.64 2444.56 1979.11 2450.08 1979.05C2455.51 1979.16 2460.13 1983.42 2460.19 1988.94L2461.3 2087.18C2461.53 2107.22 2451.63 2125.69 2434.83 2136.61C2424.06 2143.6 2417.57 2155.43 2417.46 2168.27L2416.84 2237.96C2416.79 2243.46 2412.32 2247.88 2406.84 2247.88Z" />
				</g>
				<g id="&lt;Group&gt;">
					<path id="&lt;Path&gt;" class="shp0" d="M2169.91 2085.72C2204.96 2111.79 2205.21 2144.95 2170.65 2185.2C2022.67 2221.17 1895.76 2209.27 1789.93 2149.48C1768.71 2134.48 1759.44 2114.41 1762.13 2089.27C1765.28 2059.73 1778.38 2042.13 1801.42 2036.48C1871.52 2075.97 1994.35 2092.38 2169.91 2085.72Z" />
				</g>
				<g id="&lt;Group&gt;" style="opacity: 0.302">
					<path id="&lt;Path&gt;" class="shp1" d="M2170.64 2185.2C2022.66 2221.18 1895.75 2209.28 1789.91 2149.47C1768.71 2134.48 1759.45 2114.41 1762.15 2089.26C1762.95 2081.86 1764.55 2075.46 1766.75 2069.94C1772.11 2082.61 1779.83 2092.51 1789.91 2099.66C1895.75 2159.44 2022.66 2171.33 2170.64 2135.35C2177.66 2127.19 2183.42 2117.44 2187.93 2106.1C2200.65 2130.59 2194.89 2156.96 2170.64 2185.2Z" />
				</g>
				<g id="&lt;Group&gt;">
					<path id="&lt;Compound Path&gt;" fill-rule="evenodd" class="shp1" d="M2027 2215.14C1882.89 2215.14 1788.87 2163.24 1783.78 2160.37C1783.41 2160.16 1783.05 2159.93 1782.71 2159.69C1781.16 2158.59 1744.95 2132.43 1749.7 2087.94C1755.3 2035.51 1796.68 2024.77 1798.44 2024.34C1801.53 2023.57 1804.79 2024.03 1807.56 2025.59C1908.41 2082.41 2166.84 2073.33 2169.44 2073.23C2172.28 2073.12 2175.08 2073.98 2177.37 2075.69C2194.04 2088.09 2203.53 2103.66 2205.57 2121.96C2209.64 2158.51 2181.34 2191.93 2180.13 2193.34C2178.43 2195.32 2176.15 2196.72 2173.61 2197.34C2120.73 2210.2 2071.48 2215.14 2027 2215.14ZM1796.69 2138.93C1807.51 2144.74 1958.29 2222.41 2163.5 2174.05C2169.17 2166.39 2183.06 2145.25 2180.71 2124.63C2179.57 2114.57 2174.66 2105.94 2165.74 2098.36C2129.36 2099.43 1903.52 2103.83 1800.44 2050.16C1792.9 2053.7 1777.39 2064.09 1774.56 2090.6C1771.6 2118.32 1792.97 2136.07 1796.69 2138.93Z" />
				</g>
				<g id="&lt;Group&gt;">
					<path id="&lt;Path&gt;" class="shp1" d="M2199.42 2285.12C2213.15 2282.37 2226.13 2281.38 2239.64 2281.32C2253.04 2281.33 2266.51 2282.61 2279.87 2285.15C2286.59 2286.27 2293.16 2288.16 2299.79 2289.93C2303.07 2290.94 2306.3 2292.13 2309.57 2293.24L2314.45 2294.97L2319.22 2297.04C2332.14 2302.18 2344.05 2309.69 2355.62 2317.7C2362.91 2322.75 2364.72 2332.74 2359.68 2340.02C2354.64 2347.31 2344.65 2349.12 2337.36 2344.08C2336.94 2343.79 2336.53 2343.47 2336.14 2343.14L2335.36 2342.48C2326.6 2335.05 2317.48 2327.68 2307.03 2322.26L2303.19 2320.06L2299.19 2318.18C2296.51 2316.95 2293.85 2315.62 2291.13 2314.45C2285.57 2312.36 2280.03 2310.07 2274.23 2308.49C2262.73 2305.02 2250.78 2302.58 2238.63 2301.3C2226.6 2300.04 2213.87 2299.8 2202.3 2300.86L2201.72 2300.92C2197.33 2301.33 2193.44 2298.09 2193.03 2293.69C2192.65 2289.6 2195.48 2285.93 2199.42 2285.12Z" />
				</g>
				<g id="&lt;Group&gt;">
					<path id="&lt;Path&gt;" class="shp1" d="M2581.54 1871.79C2576.1 1874.75 2570.62 1877.59 2565.1 1880.39C2536.09 1888.79 2390.42 1926.12 2195.73 1890.99C2002.61 1848.06 1882.74 1757.28 1859.21 1738.32C1855.17 1733.6 1851.21 1728.8 1847.33 1723.91C1851.04 1711.75 1856.25 1702.04 1862.97 1694.79C1863.93 1695.64 1865.35 1696.81 1867.21 1698.31C1890.74 1717.27 2010.61 1808.05 2203.73 1850.98C2398.42 1886.11 2544.09 1848.78 2573.1 1840.38C2575.42 1839.71 2577.17 1839.18 2578.34 1838.78C2581.76 1848.09 2582.82 1859.09 2581.54 1871.79Z" />
				</g>
				<g id="&lt;Group&gt;">
					<path id="&lt;Path&gt;" class="shp11" d="M2883.6 1433.65C2846.75 1616.75 2727.95 1762.52 2573.08 1840.38C2544.09 1848.78 2398.42 1886.1 2203.75 1850.98C2010.61 1808.05 1890.72 1717.28 1867.23 1698.32C1754.54 1566.61 1701.38 1386.24 1738.24 1203.13C1801.89 886.84 2109.9 682.07 2426.19 745.73C2742.45 809.38 2947.26 1117.35 2883.6 1433.65Z" />
				</g>
				<g id="&lt;Group&gt;" style="opacity: 0.4">
					<path id="&lt;Path&gt;" class="shp0" d="M1869.82 1700.39C1868.86 1699.63 1867.99 1698.93 1867.23 1698.32C1754.54 1566.61 1701.38 1386.24 1738.24 1203.13C1801.89 886.84 2109.9 682.07 2426.19 745.73C2568.81 774.43 2688.75 852.83 2771.64 959.27C2690.4 868.17 2580.05 801.66 2451.19 775.73C2134.9 712.07 1826.89 916.84 1763.24 1233.13C1728.92 1403.62 1772.67 1571.71 1869.82 1700.39Z" />
				</g>
				<g id="&lt;Group&gt;">
					<g id="&lt;Group&gt;" style="opacity: 0.302">
						<path id="&lt;Path&gt;" class="shp1" d="M2568.85 1841.56C2531.95 1851.74 2390.4 1884.67 2203.76 1850.99C2010.61 1808.05 1890.73 1717.28 1867.22 1698.32C1832.05 1657.22 1802.75 1611.37 1780.13 1562.19C1782.8 1567.95 1785.56 1573.65 1788.39 1579.32C1830.62 1596.32 1879.14 1612.2 1933.47 1624.27C2128.15 1659.4 2273.8 1622.06 2302.8 1613.65C2311.51 1609.27 2320.09 1604.64 2328.57 1599.84C2330.15 1599.4 2331.61 1598.99 2332.8 1598.65C2487.69 1520.79 2606.48 1375.02 2643.32 1191.91C2667.33 1072.57 2653.1 954.41 2609.14 850.1C2797.7 978.28 2901.42 1211.08 2853.61 1448.66C2818.81 1621.44 2711.03 1760.96 2568.85 1841.56Z" />
					</g>
				</g>
				<g id="&lt;Group&gt;">
					<path id="&lt;Path&gt;" class="shp10" d="M2503.84 1954.97C2420.94 1985.83 2313.74 1986.81 2182.23 1957.89C2049.75 1933.68 1951.26 1891.3 1886.76 1830.78C1833.32 1780.62 1825.39 1735.3 1862.99 1694.8C1863.93 1695.63 1865.35 1696.81 1867.23 1698.32C1890.72 1717.28 2010.61 1808.05 2203.75 1850.98C2398.42 1886.1 2544.09 1848.78 2573.08 1840.38C2575.41 1839.71 2577.17 1839.18 2578.36 1838.77C2597.36 1890.66 2572.52 1929.39 2503.84 1954.97Z" />
				</g>
				<g id="&lt;Group&gt;" style="opacity: 0.302">
					<path id="&lt;Path&gt;" class="shp1" d="M2581.54 1871.79C2576.1 1874.75 2570.62 1877.59 2565.1 1880.39C2536.09 1888.79 2390.42 1926.12 2195.73 1890.99C2002.61 1848.06 1882.74 1757.28 1859.21 1738.32C1855.17 1733.6 1851.21 1728.8 1847.33 1723.91C1851.04 1711.75 1856.25 1702.04 1862.97 1694.79C1863.93 1695.64 1865.35 1696.81 1867.21 1698.31C1890.74 1717.27 2010.61 1808.05 2203.73 1850.98C2398.42 1886.11 2544.09 1848.78 2573.1 1840.38C2575.42 1839.71 2577.17 1839.18 2578.34 1838.78C2581.76 1848.09 2582.82 1859.09 2581.54 1871.79Z" />
				</g>
				<g id="&lt;Group&gt;">
					<path id="&lt;Compound Path&gt;" fill-rule="evenodd" class="shp1" d="M2358.41 1992.44C2267.78 1992.44 2186.49 1975.2 2179.07 1973.58C2167.42 1971.43 1973.93 1934.53 1875.8 1842.45C1785.09 1757.3 1850.59 1684.64 1851.26 1683.91C1857.17 1677.55 1867.09 1677.06 1873.59 1682.81C1873.72 1682.93 1874.95 1683.99 1877.26 1685.84C1899.01 1703.41 2016.98 1793 2206.91 1835.29C2398.37 1869.77 2541.81 1832.78 2568.63 1825.01C2571.49 1824.19 2573.02 1823.68 2573.22 1823.62C2581.45 1820.85 2590.4 1825.12 2593.38 1833.27C2593.72 1834.2 2626.01 1926.55 2509.43 1969.97C2509.42 1969.97 2509.42 1969.97 2509.42 1969.97C2463.88 1986.93 2409.65 1992.44 2358.41 1992.44ZM1866.51 1718.05C1857.15 1736.6 1849.37 1773.74 1897.71 1819.11C1989.96 1905.67 2183.17 1941.79 2185.11 1942.15C2185.29 1942.18 2185.48 1942.22 2185.66 1942.26C2187.59 1942.68 2379.84 1984.06 2498.26 1939.97C2560.33 1916.86 2567.56 1879.64 2566.1 1858.86C2520.23 1870.62 2380.48 1899.13 2200.91 1866.73C2200.7 1866.69 2200.48 1866.65 2200.28 1866.61C2022.16 1827.01 1904.31 1746.68 1866.51 1718.05ZM2503.84 1954.97L2503.89 1954.97L2503.84 1954.97Z" />
				</g>
				<g id="&lt;Group&gt;">
					<path id="&lt;Path&gt;" class="shp1" d="M1620.02 1961.04C1614.59 1961.04 1609.59 1957.48 1608.01 1952C1606.1 1945.36 1609.93 1938.44 1616.56 1936.53C1778.74 1889.8 1781.02 1717.27 1781.04 1709.95C1781.05 1703.06 1786.64 1697.47 1793.54 1697.47C1793.54 1697.47 1793.55 1697.47 1793.55 1697.47C1800.45 1697.48 1806.04 1703.07 1806.04 1709.96C1806.04 1711.94 1803.95 1908.56 1623.48 1960.55C1622.33 1960.88 1621.16 1961.04 1620.02 1961.04Z" />
				</g>
				<g id="&lt;Group&gt;">
					<path id="&lt;Path&gt;" class="shp0" d="M2496.3 1745.51C2496.62 1744.28 2496.9 1743.32 2497.11 1742.66L2496.3 1745.51Z" />
				</g>
				<g id="&lt;Group&gt;" style="opacity: 0.302">
					<g id="&lt;Group&gt;">
						<path id="&lt;Path&gt;" class="shp1" d="M1877.18 1661.94C1877.24 1662.14 1877.33 1662.31 1877.39 1662.51L1877.11 1661.82C1877.14 1661.87 1877.16 1661.89 1877.18 1661.94Z" />
					</g>
					<g id="&lt;Group&gt;">
						<path id="&lt;Path&gt;" class="shp1" d="M1877.39 1662.51L1885.83 1682.08C1882.86 1675.71 1880.01 1669.22 1877.39 1662.51Z" />
					</g>
					<g id="&lt;Group&gt;">
						<path id="&lt;Path&gt;" class="shp1" d="M2641.33 1777.57L2640.82 1778.18C2640.94 1778.01 2641.08 1777.83 2641.22 1777.66C2641.25 1777.62 2641.3 1777.61 2641.33 1777.57Z" />
					</g>
				</g>
				<g id="&lt;Group&gt;">
					<g id="&lt;Group&gt;">
						<path id="&lt;Path&gt;" class="shp0" d="M1877.6 1660.72L1886.62 1675.94C1883.46 1670.98 1880.42 1665.92 1877.6 1660.72Z" />
					</g>
					<g id="&lt;Group&gt;">
						<path id="&lt;Path&gt;" class="shp0" d="M2641.17 1776.37C2636.94 1780.51 2632.53 1784.44 2628.05 1788.23L2641.17 1776.37Z" />
					</g>
					<g id="&lt;Group&gt;">
						<path id="&lt;Path&gt;" class="shp0" d="M2743.53 1712.89C2738.68 1730.81 2704.09 1707.91 2696.59 1702.69C2695.96 1702.26 2695.18 1702.84 2695.24 1703.63C2695.5 1706.91 2696.45 1714.29 2699.82 1726.37C2703.96 1741.27 2707.46 1752.88 2703.5 1759.8C2699.27 1767.12 2686.18 1768.2 2670.68 1764.05C2662.02 1761.71 2651.37 1767.97 2641.56 1776.01L2641.46 1776.09C2636.69 1779.99 2632.1 1784.28 2628.05 1788.23L2627.77 1788.49C2611.17 1802.5 2593.02 1814.44 2573.71 1824.47C2548.85 1836.87 2522.18 1845.56 2494.59 1851.36C2408.24 1869.15 2322.76 1871.63 2238.16 1858.82C2153.55 1846 2072.64 1818.32 1995.43 1775.76C1970.77 1762.05 1947.89 1745.85 1927.82 1726.64C1912.32 1711.35 1898.52 1694.56 1886.81 1676.27C1886.79 1676.23 1886.76 1676.17 1886.74 1676.14C1886.69 1676.07 1886.67 1676.01 1886.62 1675.94C1883.92 1670.96 1880.81 1665.5 1877.41 1660.36C1870.4 1649.75 1862.06 1640.55 1853.07 1640.21C1837.03 1639.58 1824.85 1634.68 1822.98 1626.43C1821.24 1618.66 1828.02 1608.6 1836.39 1595.6C1843.18 1585.06 1846.28 1578.29 1847.5 1575.23C1847.79 1574.49 1847.21 1573.71 1846.49 1573.93C1837.81 1576.7 1797.98 1588.34 1798.63 1569.78C1798.99 1559.47 1820 1531.4 1830.47 1500.99C1850.65 1442.2 1863.24 1407.08 1868.24 1395.61C1868.45 1395.05 1894.33 1332.45 1925.58 1288.21C1909.69 1248.7 1843.76 1073.66 1902.05 1019.67C1910.61 1011.74 1928.93 1012.35 1952.1 1018.06C2019.17 1034.46 2126.83 1093.07 2156.24 1109.57C2205.44 1094.76 2259.48 1089.22 2317.69 1095.48C2323.93 1096.12 2337.33 1097.13 2352.86 1099.51C2366.66 1101.63 2382.75 1105.06 2388.21 1106.16C2445.66 1117.41 2495.67 1138.72 2538.24 1167.43C2582.64 1157.96 2785.04 1117.53 2807.65 1156.83C2807.97 1157.36 2808.25 1157.88 2808.55 1158.44C2845.59 1227.92 2732.35 1373.57 2705.66 1406.36C2722.4 1457.87 2728.59 1525.32 2728.62 1525.93C2730 1538.35 2731.63 1575.64 2733.52 1637.77C2734.48 1669.91 2746.24 1702.94 2743.53 1712.89Z" />
					</g>
				</g>
				<g id="&lt;Group&gt;">
					<path id="&lt;Path&gt;" class="shp0" d="M1886.62 1675.94L1877.6 1660.72C1880.42 1665.92 1883.46 1670.98 1886.62 1675.94Z" />
				</g>
				<g id="&lt;Group&gt;">
					<path id="&lt;Path&gt;" class="shp0" d="M2628.05 1788.23C2632.53 1784.44 2636.94 1780.51 2641.17 1776.37L2628.05 1788.23Z" />
				</g>
				<g id="&lt;Group&gt;">
					<path id="&lt;Path&gt;" class="shp0" d="M2640 1515.5C2669.95 1515.5 2698.78 1510.75 2725.84 1502.04C2727.75 1516.34 2728.61 1525.7 2728.62 1525.93C2730 1538.36 2731.63 1575.64 2733.52 1637.77C2734.48 1669.91 2746.24 1702.94 2743.53 1712.89C2738.68 1730.81 2704.09 1707.91 2696.59 1702.69C2695.96 1702.26 2695.18 1702.84 2695.24 1703.63C2695.5 1706.91 2696.45 1714.29 2699.82 1726.37C2703.96 1741.27 2707.46 1752.88 2703.5 1759.8C2699.27 1767.12 2686.19 1768.2 2670.68 1764.05C2662.02 1761.71 2651.37 1767.97 2641.56 1776.01L2641.46 1776.08C2636.69 1779.99 2632.1 1784.28 2628.05 1788.23L2627.77 1788.49C2611.17 1802.5 2593.02 1814.44 2573.71 1824.47C2548.85 1836.87 2522.18 1845.56 2494.59 1851.36C2408.24 1869.15 2322.76 1871.63 2238.16 1858.82C2153.55 1846 2072.64 1818.32 1995.43 1775.76C1970.77 1762.05 1947.9 1745.85 1927.82 1726.64C1912.32 1711.35 1898.52 1694.56 1886.81 1676.27C1886.78 1676.23 1886.77 1676.17 1886.74 1676.14C1886.69 1676.07 1886.67 1676.01 1886.62 1675.94C1883.92 1670.96 1880.81 1665.5 1877.41 1660.36C1870.4 1649.75 1862.06 1640.55 1853.07 1640.21C1837.03 1639.58 1824.85 1634.68 1822.98 1626.43C1821.24 1618.66 1828.02 1608.6 1836.39 1595.6C1843.18 1585.06 1846.28 1578.29 1847.5 1575.23C1847.79 1574.49 1847.21 1573.71 1846.49 1573.93C1837.81 1576.7 1797.98 1588.34 1798.63 1569.78C1798.99 1559.47 1820 1531.4 1830.47 1500.99C1850.65 1442.2 1863.24 1407.08 1868.24 1395.61C1868.45 1395.05 1894.33 1332.45 1925.58 1288.21C1909.69 1248.7 1843.76 1073.66 1902.05 1019.67C1910.61 1011.74 1928.93 1012.35 1952.1 1018.06C2019.17 1034.46 2126.83 1093.07 2156.24 1109.57C2205.44 1094.76 2259.48 1089.22 2317.69 1095.48C2323.93 1096.12 2337.33 1097.13 2352.86 1099.51C2366.66 1101.63 2382.75 1105.06 2388.21 1106.16C2389.26 1106.37 2390.28 1106.64 2391.33 1106.85C2371.35 1145.38 2360 1189.1 2360 1235.5C2360 1390.14 2485.36 1515.5 2640 1515.5Z" />
				</g>
				<g id="&lt;Group&gt;">
					<path id="&lt;Path&gt;" class="shp12" d="M2705.66 1406.36C2716.22 1438.84 2722.57 1477.64 2725.84 1502.04C2698.78 1510.75 2669.95 1515.5 2640 1515.5C2485.36 1515.5 2360 1390.14 2360 1235.5C2360 1189.1 2371.35 1145.38 2391.33 1106.85C2447.45 1118.26 2496.45 1139.25 2538.24 1167.43C2582.64 1157.96 2785.04 1117.53 2807.65 1156.83C2807.97 1157.36 2808.25 1157.88 2808.55 1158.44C2845.59 1227.92 2732.35 1373.57 2705.66 1406.36Z" />
				</g>
				<g id="&lt;Group&gt;" style="opacity: 0.302">
					<g id="&lt;Group&gt;">
						<path id="&lt;Path&gt;" class="shp1" d="M1877.4 1660.36C1877.46 1660.44 1877.51 1660.53 1877.55 1660.58C1877.62 1660.72 1877.69 1660.86 1877.77 1660.99L1877.4 1660.36Z" />
					</g>
					<g id="&lt;Group&gt;">
						<path id="&lt;Path&gt;" class="shp1" d="M1886.57 1675.88C1883.48 1671.04 1880.53 1666.09 1877.77 1660.99L1886.57 1675.88Z" />
					</g>
					<g id="&lt;Group&gt;">
						<path id="&lt;Path&gt;" class="shp1" d="M2628.09 1788.19L2640.87 1776.65C2636.75 1780.68 2632.49 1784.51 2628.09 1788.19Z" />
					</g>
					<g id="&lt;Group&gt;">
						<path id="&lt;Path&gt;" class="shp1" d="M2699.81 1726.35C2703.98 1741.29 2707.47 1752.89 2703.51 1759.8C2699.28 1767.12 2686.19 1768.19 2670.68 1764.02C2662 1761.72 2651.39 1767.98 2641.57 1776.02L2640.87 1776.65C2641.09 1776.45 2641.27 1776.28 2641.47 1776.08C2636.72 1779.96 2632.16 1784.25 2628.09 1788.19C2628.04 1788.25 2627.98 1788.3 2627.9 1788.36L2627.88 1788.38C2627.86 1788.38 2627.86 1788.39 2627.87 1788.41L2627.85 1788.43C2627.8 1788.45 2627.79 1788.47 2627.77 1788.49C2611.17 1802.51 2593.03 1814.45 2573.7 1824.47C2548.84 1836.86 2522.17 1845.58 2494.58 1851.36C2408.22 1869.14 2322.74 1871.62 2238.14 1858.81C2153.53 1846 2072.63 1818.31 1995.43 1775.76C1970.77 1762.07 1947.88 1745.83 1927.82 1726.64C1912.32 1711.35 1898.51 1694.57 1886.81 1676.27C1886.79 1676.24 1886.77 1676.19 1886.76 1676.16L1886.74 1676.13L1886.72 1676.1C1884 1671.16 1880.93 1665.72 1877.55 1660.58C1877.49 1660.5 1877.46 1660.44 1877.42 1660.36L1877.4 1660.36C1877.38 1660.33 1877.36 1660.3 1877.34 1660.27C1870.34 1649.68 1862.06 1640.56 1853.07 1640.19C1837.04 1639.58 1824.86 1634.68 1822.98 1626.43C1821.22 1618.66 1828.02 1608.61 1836.4 1595.57C1836.43 1595.53 1836.46 1595.48 1836.49 1595.44C1841.93 1598.43 1849.88 1600.19 1859.07 1600.55C1868.04 1600.9 1876.33 1610.01 1883.35 1620.63C1883.37 1620.66 1883.41 1620.69 1883.43 1620.72C1886.85 1625.92 1889.97 1631.44 1892.72 1636.46L1892.74 1636.49L1892.82 1636.6C1904.52 1654.93 1918.33 1671.71 1933.82 1687C1953.88 1706.19 1976.77 1722.4 2001.43 1736.12C2078.63 1778.67 2159.54 1806.36 2244.14 1819.17C2328.75 1831.98 2414.23 1829.5 2500.58 1811.72C2528.18 1805.92 2554.84 1797.22 2579.71 1784.83C2599.03 1774.81 2617.17 1762.87 2633.78 1748.83L2633.91 1748.72C2633.99 1748.66 2634.04 1748.62 2634.1 1748.55C2638.16 1744.61 2642.72 1740.32 2647.47 1736.44C2647.5 1736.42 2647.55 1736.4 2647.57 1736.38C2657.4 1728.31 2668.01 1722.06 2676.68 1724.38C2685.57 1726.77 2693.68 1727.44 2699.77 1726.19C2699.78 1726.24 2699.8 1726.29 2699.81 1726.35Z" />
					</g>
				</g>
				<g id="&lt;Group&gt;" style="opacity: 0.502">
					<g id="&lt;Group&gt;">
						<path id="&lt;Path&gt;" class="shp0" d="M2640.34 1783.42C2640.37 1783.4 2640.42 1783.38 2640.44 1783.36L2639.85 1783.9C2640.01 1783.73 2640.19 1783.59 2640.34 1783.42Z" />
					</g>
				</g>
				<g id="&lt;Group&gt;">
					<path id="&lt;Path&gt;" class="shp13" d="M2663.6 1357.61C2644.4 1300.14 2619.25 1262.38 2607.17 1246.3C2603.73 1241.71 2605.26 1234.4 2610.26 1231.81C2659.2 1206.52 2719.7 1200.16 2742.57 1198.6C2751.21 1198.02 2758.37 1205.58 2758.3 1215.4C2758.21 1226.41 2754.29 1244.15 2740.71 1272.51C2720.98 1313.71 2691.18 1346.25 2676.38 1360.94C2672.09 1365.21 2665.56 1363.47 2663.6 1357.61Z" />
				</g>
				<g id="&lt;Group&gt;">
					<path id="&lt;Compound Path&gt;" fill-rule="evenodd" class="shp1" d="M2670.91 1373.31C2669.58 1373.31 2668.25 1373.16 2666.93 1372.84C2660.92 1371.4 2656.13 1366.88 2654.1 1360.73C2649.55 1347.14 2644.35 1333.75 2638.67 1320.97C2623.22 1286.36 2607.3 1263.1 2599.18 1252.31C2595.71 1247.66 2594.51 1241.69 2595.85 1235.88C2597.16 1230.21 2600.73 1225.49 2605.67 1222.94C2639.36 1205.53 2677.96 1196.98 2704.41 1192.87C2716.77 1190.92 2729.74 1189.45 2741.89 1188.62C2748.58 1188.15 2754.91 1190.47 2759.86 1195.12C2765.27 1200.21 2768.35 1207.62 2768.31 1215.46C2768.18 1230.73 2761.93 1251.37 2749.72 1276.82C2729.56 1318.95 2699.53 1352.06 2683.41 1368.04C2679.97 1371.46 2675.49 1373.31 2670.91 1373.31ZM2615.46 1240.4C2623.9 1251.92 2640.74 1276.54 2656.94 1312.83C2662.43 1325.18 2667.48 1338.06 2671.98 1351.18C2687.64 1335.27 2713.88 1305.4 2731.68 1268.18L2731.69 1268.18C2745.29 1239.79 2748.24 1223.76 2748.31 1215.32C2748.32 1213.05 2747.54 1210.99 2746.17 1209.7C2745.29 1208.88 2744.3 1208.53 2743.26 1208.57C2731.68 1209.37 2719.32 1210.77 2707.5 1212.63C2682.66 1216.49 2646.62 1224.43 2615.46 1240.4Z" />
				</g>
				<g id="&lt;Group&gt;" style="opacity: 0.302">
					<path id="&lt;Path&gt;" class="shp1" d="M2688.7 1254.18C2676.87 1278.86 2661.45 1300.43 2647.8 1316.91C2632.23 1282 2616.12 1258.19 2607.17 1246.3C2603.74 1241.7 2605.26 1234.41 2610.26 1231.83C2641.76 1215.55 2678 1207.1 2705.95 1202.75C2704.74 1213.91 2700.15 1230.28 2688.7 1254.18Z" />
				</g>
				<g id="&lt;Group&gt;">
					<path id="&lt;Path&gt;" class="shp13" d="M1967.06 1253.51C1957.27 1235.09 1938.45 1195.19 1931.8 1149.99C1927.23 1118.89 1928.74 1100.78 1931.92 1090.24C1934.76 1080.83 1943.83 1075.73 1951.91 1078.85C1973.3 1087.11 2029.2 1111.1 2068.46 1149.75C2072.47 1153.7 2071.76 1161.14 2067.11 1164.5C2050.82 1176.28 2015.61 1204.9 1980.26 1254.11C1976.65 1259.13 1969.9 1258.85 1967.06 1253.51Z" />
				</g>
				<g id="&lt;Group&gt;">
					<path id="&lt;Compound Path&gt;" fill-rule="evenodd" class="shp1" d="M1973.7 1267.71C1973.32 1267.71 1972.95 1267.7 1972.57 1267.67C1966.53 1267.28 1961.18 1263.74 1958.24 1258.2C1947.58 1238.16 1928.7 1197.64 1921.92 1151.45C1917.8 1123.52 1917.94 1101.96 1922.33 1087.36C1924.62 1079.83 1929.76 1073.66 1936.43 1070.4C1942.53 1067.43 1949.31 1067.11 1955.52 1069.51C1966.88 1073.91 1978.83 1079.16 1990.08 1084.68C2014.11 1096.43 2048.44 1116.04 2075.47 1142.64C2079.43 1146.53 2081.45 1152.1 2081.01 1157.9C2080.58 1163.85 2077.66 1169.2 2073.01 1172.59C2062.02 1180.51 2039.91 1198.02 2014.91 1226.51C2005.7 1237.02 1996.77 1248.28 1988.38 1259.94C1984.87 1264.85 1979.45 1267.71 1973.7 1267.71ZM1947.03 1087.93C1946.43 1087.93 1945.82 1088.08 1945.19 1088.38C1943.5 1089.21 1942.14 1090.94 1941.47 1093.14C1939.05 1101.21 1937.11 1117.39 1941.71 1148.53L1941.71 1148.54C1947.69 1189.35 1963.91 1225.65 1974.15 1245.49C1982.35 1234.28 1990.98 1223.48 1999.87 1213.32C2026.03 1183.52 2049.37 1164.99 2061.07 1156.53C2036.02 1132 2003.88 1113.69 1981.27 1102.64C1970.52 1097.36 1959.12 1092.35 1948.3 1088.17C1947.89 1088.01 1947.46 1087.93 1947.03 1087.93ZM2061.26 1156.39C2061.2 1156.39 2061.17 1156.42 2061.17 1156.46C2061.2 1156.44 2061.23 1156.42 2061.27 1156.39C2061.26 1156.39 2061.26 1156.39 2061.26 1156.39ZM1975.9 1248.82L1975.95 1248.82L1975.9 1248.82Z" />
				</g>
				<g id="&lt;Group&gt;" style="opacity: 0.302">
					<path id="&lt;Path&gt;" class="shp1" d="M1985.67 1093.66C2011.08 1106.08 2043.19 1124.89 2068.45 1149.76C2072.46 1153.71 2071.76 1161.12 2067.12 1164.5C2055.05 1173.21 2032.61 1191.18 2007.4 1219.91C1999.25 1200.14 1990.9 1174.97 1986.91 1147.89C1983.05 1121.66 1983.52 1104.67 1985.67 1093.66Z" />
				</g>
				<g id="&lt;Group&gt;">
					<g id="&lt;Group&gt;">
						<path id="&lt;Path&gt;" class="shp1" d="M2168.69 1856.52C2167.55 1856.52 2166.39 1856.37 2165.24 1856.04C2122.81 1843.88 2076.47 1826.45 2076 1826.28C2024.53 1805.97 1990.8 1787.48 1989.39 1786.7C1983.34 1783.37 1981.14 1775.77 1984.47 1769.72C1987.81 1763.67 1995.41 1761.47 2001.45 1764.8C2001.79 1764.99 2035.3 1783.35 2085 1802.95C2085.28 1803.06 2130.7 1820.14 2172.12 1832C2178.76 1833.91 2182.6 1840.83 2180.7 1847.46C2179.12 1852.95 2174.12 1856.52 2168.69 1856.52Z" />
					</g>
					<g id="&lt;Group&gt;">
						<path id="&lt;Path&gt;" class="shp1" d="M2321.32 1877.35C2313.3 1877.35 2304.89 1877.3 2296.15 1877.18C2289.25 1877.09 2283.72 1871.42 2283.82 1864.52C2283.91 1857.61 2289.61 1852.25 2296.48 1852.18C2361.59 1853.05 2408.15 1850.23 2408.61 1850.2C2415.48 1849.71 2421.43 1855.02 2421.86 1861.91C2422.28 1868.8 2417.05 1874.73 2410.16 1875.16C2409.75 1875.18 2373.99 1877.35 2321.32 1877.35Z" />
					</g>
					<g id="&lt;Group&gt;">
						<path id="&lt;Compound Path&gt;" fill-rule="evenodd" class="shp1" d="M2409.37 1875.18C2402.94 1875.18 2397.47 1870.25 2396.93 1863.72C2396.35 1856.84 2401.47 1850.8 2408.34 1850.22C2457.66 1846.11 2491.72 1839.18 2492.06 1839.11L2501.61 1837.15C2525.71 1831.42 2548.03 1823.47 2568.1 1813.47C2586.58 1803.88 2603.78 1792.47 2619.07 1779.63L2621.08 1777.73C2624.96 1774.03 2628.97 1770.34 2633.08 1766.94L2633.18 1766.86C2633.46 1766.63 2633.74 1766.4 2634.02 1766.18L2634.43 1765.85C2647.01 1755.72 2660.49 1748.55 2673.89 1752.14C2685.13 1755.16 2691.05 1754.05 2692.74 1753.33C2693.36 1749.99 2690.43 1739.49 2688.26 1731.74L2687.75 1729.89C2684.12 1716.86 2683.07 1708.59 2682.76 1704.82C2682.35 1699.61 2684.99 1694.57 2689.5 1691.98C2693.94 1689.44 2699.52 1689.68 2703.72 1692.61C2716.06 1701.2 2726.14 1705.71 2731.35 1706.96C2730.88 1702.5 2729.28 1694.57 2727.94 1687.91C2725.08 1673.74 2721.52 1656.1 2720.98 1638.33C2718.24 1547.61 2716.25 1528.25 2716.16 1527.47L2716.1 1526.56C2716.07 1526.4 2709.94 1460.24 2693.75 1410.41L2691.64 1403.94L2695.94 1398.66C2759.82 1320.18 2824.57 1211.44 2796.81 1163.26C2787.37 1146.88 2694.44 1147.12 2540.81 1179.83L2535.62 1180.94L2531.22 1177.97C2488.43 1149.12 2439.49 1129.14 2385.77 1118.6L2381.92 1117.82C2374.97 1116.4 2362.03 1113.75 2350.95 1112.05C2339.04 1110.24 2328.39 1109.24 2321.34 1108.57C2319.39 1108.39 2317.72 1108.23 2316.37 1108.09C2261.91 1102.25 2209.25 1106.83 2159.83 1121.72L2154.74 1123.25L2150.11 1120.66C2013.06 1043.91 1924.37 1016.18 1910.51 1029.02C1869.73 1066.81 1899.37 1189.85 1937.15 1283.73L1939.69 1290.05L1935.76 1295.61C1905.61 1338.31 1880.08 1399.79 1879.84 1400.39C1879.37 1401.49 1871.74 1419.4 1842.25 1505.24C1836.48 1522.05 1827.86 1537.84 1820.93 1550.53C1817.71 1556.43 1813.88 1563.44 1812.08 1567.72C1817.43 1568.08 1828.39 1566.73 1842.69 1562.19C1847.56 1560.65 1852.96 1562.07 1856.44 1565.81C1859.98 1569.62 1861.01 1575.21 1859.07 1580.07C1857.35 1584.35 1853.84 1591.73 1846.88 1602.54L1845.86 1604.12C1841.54 1610.81 1835.71 1619.84 1835.21 1623.48C1836.68 1624.68 1842.01 1627.45 1853.53 1627.89C1867.37 1628.43 1878.12 1639.23 1887.12 1652.61L1887.36 1652.85L1887.99 1653.9C1891.05 1658.56 1893.9 1663.49 1896.62 1668.38L1896.87 1668.6L1897.7 1670.31C1908.62 1687.25 1921.64 1703.2 1936.56 1717.94C1954.75 1735.32 1976.64 1751.21 2001.47 1765.01C2007.5 1768.36 2009.67 1775.97 2006.32 1782.01C2002.96 1788.04 1995.36 1790.22 1989.32 1786.86C1962.63 1772.02 1939.02 1754.87 1919.14 1735.87C1902.94 1719.86 1888.86 1702.65 1877.15 1684.56L1876.64 1683.77C1876.51 1683.57 1876.38 1683.37 1876.25 1683.17L1875.83 1682.51C1872.56 1677.35 1869.64 1672.42 1866.94 1667.49C1858.89 1655.26 1854.61 1652.95 1852.57 1652.87C1829.17 1651.97 1813.93 1643.39 1810.76 1629.36C1808.03 1617.25 1814.86 1606.07 1823.83 1592.16C1810.6 1593.8 1800.7 1592.16 1794.26 1587.27C1788.75 1583.08 1785.86 1576.78 1786.11 1569.52C1786.39 1561.62 1791.41 1552.44 1798.99 1538.55C1805.46 1526.69 1813.52 1511.93 1818.61 1497.12C1848.72 1409.46 1856.44 1391.52 1856.76 1390.8L1856.77 1390.81C1859.79 1383.53 1882.91 1329.09 1911.47 1286.8C1888.73 1228.85 1832.89 1066.87 1893.52 1010.68C1927.67 979.02 2055 1039.07 2157.73 1096.28C2208.88 1081.62 2263.1 1077.22 2319 1083.23L2323.69 1083.68C2331.02 1084.37 2342.09 1085.41 2354.72 1087.34C2366.43 1089.13 2379.77 1091.86 2386.94 1093.33L2390.62 1094.07C2445.76 1104.89 2496.25 1125.15 2540.76 1154.29C2655.82 1130.08 2795.22 1110.42 2818.47 1150.78C2859.75 1222.41 2758.44 1360.57 2719.56 1409.19C2734.45 1458.42 2740.28 1516.71 2741 1524.73L2741.01 1524.73C2741.1 1525.51 2743.18 1544.93 2745.97 1637.58C2746.44 1653.23 2749.77 1669.72 2752.44 1682.96C2755.57 1698.48 2757.64 1708.73 2755.57 1716.35C2753.67 1723.36 2749.03 1728.53 2742.53 1730.89C2734.94 1733.65 2724.99 1732.28 2712.84 1726.81C2717.28 1742.75 2720.5 1755.46 2714.31 1766.21C2707.13 1778.68 2690.04 1782.37 2667.42 1776.29C2665.43 1775.78 2660.66 1776.7 2649.36 1785.99C2645.34 1789.89 2641.11 1793.72 2636.46 1797.67L2635.82 1798.21L2634.14 1799.62C2617.8 1813.22 2599.36 1825.41 2579.43 1835.75C2554.63 1848.11 2526.99 1857.51 2497.11 1863.77L2479.3 1867.5L2479.42 1866.77C2464.25 1869.24 2440.17 1872.66 2410.42 1875.14C2410.07 1875.17 2409.72 1875.18 2409.37 1875.18ZM2689.41 1713.12C2689.43 1713.13 2689.44 1713.14 2689.45 1713.14C2689.44 1713.14 2689.43 1713.13 2689.41 1713.12Z" />
					</g>
				</g>
				<g id="&lt;Group&gt;" style="opacity: 0.302">
					<g id="&lt;Group&gt;">
						<path id="&lt;Path&gt;" class="shp1" d="M1876.25 1613.69C1876.36 1613.89 1876.5 1614.07 1876.61 1614.27L1876.17 1613.61C1876.19 1613.63 1876.24 1613.66 1876.25 1613.69Z" />
					</g>
					<g id="&lt;Group&gt;">
						<path id="&lt;Path&gt;" class="shp1" d="M1876.61 1614.27L1885.58 1628.03C1882.44 1623.55 1879.43 1618.98 1876.61 1614.27Z" />
					</g>
					<g id="&lt;Group&gt;">
						<path id="&lt;Path&gt;" class="shp1" d="M2640.3 1729.41C2640.33 1729.39 2640.37 1729.37 2640.4 1729.35L2639.71 1729.92C2639.92 1729.75 2640.11 1729.59 2640.3 1729.41Z" />
					</g>
				</g>
				<g id="&lt;Group&gt;" style="opacity: 0.302">
					<g id="&lt;Group&gt;">
						<path id="&lt;Path&gt;" class="shp1" d="M1870.75 1649.95C1870.88 1650.15 1871 1650.37 1871.13 1650.57L1870.68 1649.88C1870.7 1649.9 1870.74 1649.93 1870.75 1649.95Z" />
					</g>
					<g id="&lt;Group&gt;">
						<path id="&lt;Path&gt;" class="shp1" d="M1871.13 1650.57L1880.34 1664.64C1880.3 1664.62 1880.29 1664.57 1880.25 1664.54C1877.05 1659.99 1874 1655.33 1871.13 1650.57Z" />
					</g>
				</g>
				<g id="&lt;Group&gt;" style="opacity: 0.302">
					<g id="&lt;Group&gt;">
						<path id="&lt;Path&gt;" class="shp14" d="M1876.36 1613.11C1876.48 1613.31 1876.6 1613.53 1876.73 1613.72L1876.26 1613.01C1876.28 1613.03 1876.32 1613.06 1876.34 1613.09L1876.36 1613.11Z" />
					</g>
					<g id="&lt;Group&gt;">
						<path id="&lt;Path&gt;" class="shp14" d="M1876.73 1613.72L1885.83 1627.67C1882.66 1623.13 1879.58 1618.49 1876.73 1613.72Z" />
					</g>
					<g id="&lt;Group&gt;">
						<path id="&lt;Path&gt;" class="shp14" d="M2640.23 1728.94C2640.28 1728.9 2640.33 1728.87 2640.38 1728.83L2639.87 1729.26C2639.99 1729.15 2640.1 1729.06 2640.23 1728.94Z" />
					</g>
				</g>
				<g id="&lt;Group&gt;">
					<g id="&lt;Group&gt;">
						<g id="&lt;Group&gt;" style="opacity: 0.349">
							<path id="&lt;Path&gt;" class="shp0" d="M2337.79 1700.5C2337.39 1699.52 2337.04 1698.5 2336.77 1697.44C2337.15 1698.44 2337.48 1699.46 2337.79 1700.5Z" />
						</g>
						<g id="&lt;Group&gt;">
							<path id="&lt;Path&gt;" class="shp1" d="M2317.92 1603.43C2316.52 1612.7 2303.2 1619.05 2291.27 1622.93C2278.79 1626.99 2265.79 1625.02 2255.07 1617.44C2244.82 1610.21 2233.98 1600.19 2235.38 1590.93C2239.61 1563 2322.15 1575.5 2317.92 1603.43Z" />
						</g>
						<g id="&lt;Group&gt;" style="opacity: 0.502">
							<path id="&lt;Path&gt;" class="shp0" d="M2293.85 1594.18C2293.44 1596.85 2288.29 1598.49 2283.65 1599.42C2278.8 1600.4 2273.65 1599.62 2269.3 1597.25C2265.15 1594.98 2260.71 1591.9 2261.12 1589.23C2262.34 1581.17 2295.07 1586.13 2293.85 1594.18Z" />
						</g>
					</g>
					<g id="&lt;Group&gt;">
						<path id="&lt;Path&gt;" class="shp1" d="M2209.52 1628.24C2211.41 1631.22 2213.68 1635.1 2216.03 1637.92C2218.39 1640.87 2220.9 1643.3 2223.43 1644.89C2225.91 1646.58 2228.37 1647.4 2230.95 1647.94C2233.66 1648.14 2236.62 1648.38 2239.92 1647.65C2246.35 1646.57 2251.16 1643.52 2255.75 1638.18C2260.22 1632.98 2263.7 1624.78 2266.11 1617.45L2266.52 1616.22C2268 1611.73 2272.84 1609.28 2277.34 1610.76C2280.74 1611.88 2282.96 1614.94 2283.2 1618.3C2283.64 1624.46 2283.1 1629.55 2281.92 1635.18C2280.65 1640.66 2278.81 1646.25 2275.57 1651.47C2269.67 1662.07 2257.67 1671.1 2245.13 1673.24C2239.08 1674.71 2232.31 1674.74 2225.59 1673.41C2218.82 1671.82 2212.52 1668.3 2207.64 1663.87C2202.78 1659.36 2199.31 1654.11 2196.96 1648.75C2194.63 1643.22 2193.23 1638.17 2192.8 1631.87C2192.47 1627.16 2196.03 1623.08 2200.74 1622.75C2203.98 1622.53 2206.91 1624.14 2208.54 1626.69L2209.52 1628.24Z" />
					</g>
					<g id="&lt;Group&gt;">
						<path id="&lt;Path&gt;" class="shp1" d="M2349.92 1655.66C2347.64 1661.56 2344.8 1665.97 2340.94 1670.56C2337.11 1674.98 2332.24 1678.97 2326.27 1681.84C2320.29 1684.62 2313.23 1686.12 2306.29 1685.63C2299.48 1684.92 2293.02 1682.88 2287.69 1679.68C2276.34 1673.92 2267.55 1661.75 2265.05 1649.88C2263.51 1643.94 2263.4 1638.05 2263.81 1632.44C2264.35 1626.71 2265.35 1621.69 2267.58 1615.93C2269.3 1611.52 2274.27 1609.34 2278.68 1611.05C2282.01 1612.35 2284.08 1615.51 2284.14 1618.88L2284.16 1620.18C2284.29 1627.9 2285.19 1636.76 2287.92 1643.06C2290.72 1649.51 2294.41 1653.84 2300.23 1656.78C2303.17 1658.46 2306.07 1659.11 2308.71 1659.72C2311.34 1659.97 2313.94 1659.91 2316.81 1659.03C2319.69 1658.26 2322.81 1656.69 2325.94 1654.57C2329.01 1652.56 2332.34 1649.53 2335.02 1647.24L2336.4 1646.07C2340 1643.01 2345.4 1643.44 2348.46 1647.04C2350.56 1649.51 2351 1652.84 2349.92 1655.66Z" />
					</g>
				</g>
				<g id="&lt;Group&gt;">
					<path id="&lt;Path&gt;" class="shp15" d="M2551.84 1699.09C2550.07 1710.73 2528.99 1717.19 2504.74 1713.52C2480.5 1709.85 2462.27 1697.43 2464.03 1685.79C2465.8 1674.15 2486.88 1667.7 2511.13 1671.37C2535.37 1675.04 2553.6 1687.45 2551.84 1699.09Z" />
				</g>
				<g id="&lt;Group&gt;">
					<path id="&lt;Path&gt;" class="shp15" d="M2085.55 1633.61C2083.79 1645.25 2062.7 1651.71 2038.46 1648.04C2014.21 1644.37 1995.98 1631.95 1997.75 1620.32C1999.51 1608.68 2020.59 1602.22 2044.84 1605.89C2069.09 1609.56 2087.31 1621.98 2085.55 1633.61Z" />
				</g>
				<g id="&lt;Group&gt;">
					<path id="&lt;Compound Path&gt;" fill-rule="evenodd" class="shp1" d="M2367.86 1881.71C2318.2 1881.71 2261.84 1877.73 2200.91 1866.73C2200.7 1866.69 2200.48 1866.65 2200.28 1866.61C2003.2 1822.8 1879.9 1729.11 1857.18 1710.78C1856.42 1710.16 1855.71 1709.47 1855.07 1708.73C1734.21 1567.46 1685.91 1382.03 1722.55 1199.97C1754.18 1042.81 1845.12 907.38 1978.61 818.62C2112.11 729.87 2272.18 698.4 2429.35 730.04C2753.77 795.33 2964.58 1112.39 2899.29 1436.8C2862.65 1618.86 2746.37 1771.17 2580.27 1854.68C2579.39 1855.12 2578.48 1855.48 2577.54 1855.75C2558.1 1861.38 2480.08 1881.71 2367.86 1881.71ZM2206.91 1835.29C2395.24 1869.2 2537.1 1833.97 2567.22 1825.41C2723.76 1746.21 2833.32 1602.35 2867.91 1430.49C2929.72 1123.37 2730.15 823.23 2423.03 761.42C2274.25 731.47 2122.71 761.25 1996.34 845.28C1869.96 929.3 1783.87 1057.51 1753.93 1206.29C1719.34 1378.15 1764.71 1553.19 1878.43 1686.79C1902.89 1706.33 2020.09 1793.7 2206.91 1835.29ZM2883.6 1433.64L2883.65 1433.64L2883.6 1433.64Z" />
				</g>
				<g id="&lt;Group&gt;">
					<path id="&lt;Path&gt;" class="shp1" d="M2044.57 2542.03C2042.12 2542.03 2039.64 2541.31 2037.47 2539.8C2031.79 2535.87 2030.38 2528.09 2034.31 2522.41C2035.96 2520.03 2075.37 2463.67 2137.93 2416.84C2222.5 2353.54 2308.39 2339.1 2386.32 2375.11C2392.59 2378 2395.32 2385.43 2392.43 2391.7C2389.53 2397.96 2382.1 2400.71 2375.84 2397.8C2207.53 2320.06 2056.36 2534.48 2054.86 2536.65C2052.43 2540.16 2048.53 2542.03 2044.57 2542.03Z" />
				</g>
				<g id="&lt;Group&gt;" style="opacity: 0.4">
					<path id="&lt;Path&gt;" class="shp0" d="M2224.34 932.84C2200.08 968.8 2161.64 994.1 2103.39 977.83C2061.67 966.17 2060.58 938.17 2082.83 898.24C2104.31 859.69 2199.04 807.14 2270.6 825.59C2358.91 848.36 2241.49 907.41 2224.34 932.84Z" />
				</g>
				<g id="&lt;Group&gt;">
					<g id="&lt;Group&gt;">
						<path id="&lt;Path&gt;" class="shp1" d="M2445.68 1444.44C2484.04 1427.93 2524.79 1457.62 2536.71 1510.76C2548.62 1563.89 2527.19 1620.35 2488.83 1636.86C2450.48 1653.37 2409.72 1623.67 2397.81 1570.54C2385.89 1517.4 2407.33 1460.94 2445.68 1444.44Z" />
					</g>
					<g id="&lt;Group&gt;">
						<path id="&lt;Path&gt;" class="shp0" d="M2441.66 1485.45C2452.43 1484.59 2461.35 1499.44 2461.58 1518.61C2461.81 1537.77 2453.27 1554.01 2442.5 1554.87C2431.73 1555.72 2422.81 1540.88 2422.58 1521.71C2422.35 1502.54 2430.89 1486.3 2441.66 1485.45Z" />
					</g>
					<g id="&lt;Group&gt;">
						<path id="&lt;Path&gt;" class="shp0" d="M2500.88 1550.58C2506.24 1549.96 2511.05 1557.22 2511.63 1566.79C2512.21 1576.37 2508.34 1584.64 2502.98 1585.26C2497.63 1585.88 2492.81 1578.63 2492.23 1569.05C2491.65 1559.47 2495.52 1551.21 2500.88 1550.58Z" />
					</g>
				</g>
				<g id="&lt;Group&gt;">
					<g id="&lt;Group&gt;">
						<path id="&lt;Path&gt;" class="shp1" d="M2189.36 1535.2C2161.88 1582.22 2114.04 1598.14 2082.5 1570.77C2050.96 1543.4 2047.67 1483.1 2075.16 1436.09C2102.64 1389.08 2150.48 1373.15 2182.01 1400.52C2213.55 1427.89 2216.84 1488.19 2189.36 1535.2Z" />
					</g>
					<g id="&lt;Group&gt;">
						<path id="&lt;Path&gt;" class="shp0" d="M2180.57 1481.16C2174.54 1499.36 2161.53 1510.79 2151.53 1506.71C2141.53 1502.63 2138.32 1484.56 2144.36 1466.37C2150.4 1448.17 2163.4 1436.73 2173.4 1440.82C2183.4 1444.9 2186.61 1462.97 2180.57 1481.16Z" />
					</g>
					<g id="&lt;Group&gt;">
						<path id="&lt;Path&gt;" class="shp0" d="M2099.84 1505.13C2096.38 1514.08 2089.59 1519.53 2084.68 1517.31C2079.76 1515.1 2078.58 1506.04 2082.04 1497.09C2085.5 1488.15 2092.29 1482.69 2097.2 1484.91C2102.12 1487.13 2103.3 1496.18 2099.84 1505.13Z" />
					</g>
				</g>
			</g>
		</g>
	</g>
</svg>