<svg xmlns="http://www.w3.org/2000/svg" viewBox="0 0 150 150"><defs><style>.a{fill:#ffb020;}.b{fill:#fff;}</style></defs><title>MyPoints</title><circle class="a" cx="75" cy="75" r="75"/><path class="b" d="M60,47.29v-5.7c0-1.34.42-1.76,1.77-1.76h5.08V38.47c0-1.31,0-2.62,0-3.93,0-1.07.47-1.53,1.55-1.54H81.64c1,0,1.51.46,1.52,1.49,0,1.5,0,3,0,4.49v.84H86.8c.59,0,1.17,0,1.76,0A1.31,1.31,0,0,1,90,41.34c0,1.94,0,3.88,0,5.89.33,0,.63.06.92.06h10.66c1.3,0,1.73.42,1.73,1.72V115.2c0,1.4-.4,1.8-1.79,1.8h-53c-1.44,0-1.82-.38-1.82-1.84q0-17.77,0-35.56,0-15.24,0-30.5c0-1.4.4-1.81,1.78-1.81H60ZM90,50v4.71c0,1.41-.39,1.8-1.79,1.8H61.79c-1.4,0-1.8-.39-1.8-1.78V50H49.36v64.35h51.29V50ZM87.31,53.8V42.45c-1.76,0-3.46,0-5.16,0-1,0-1.6-.42-1.61-1.45,0-1.43,0-2.86,0-4.28v-1a1.37,1.37,0,0,0-.31-.08c-3.41,0-6.82,0-10.23,0-.47,0-.52.24-.52.62q0,2.31,0,4.62c0,1.13-.4,1.54-1.5,1.55H62.69V53.8Z"/><path class="b" d="M75,100.81H58.47a5.46,5.46,0,0,1-.7,0,1.32,1.32,0,0,1,0-2.61,3.54,3.54,0,0,1,.56,0H92a1.34,1.34,0,0,1,1.43,1.32A1.29,1.29,0,0,1,92,100.8c-2.15,0-4.3,0-6.45,0Z"/><path class="b" d="M75,86.61H91.41a6.66,6.66,0,0,1,.77,0,1.26,1.26,0,0,1,1.2,1.23,1.27,1.27,0,0,1-1.07,1.35,3.33,3.33,0,0,1-.63,0H58.38a3.34,3.34,0,0,1-.83-.08,1.26,1.26,0,0,1-.93-1.32,1.28,1.28,0,0,1,1.07-1.21,5.9,5.9,0,0,1,.84,0Z"/><path class="b" d="M75,77.68c-5.6,0-11.21,0-16.82,0-.61,0-1.2-.12-1.37-.73A2,2,0,0,1,57,75.58a1.31,1.31,0,0,1,1-.52q14.77,0,29.56,0c1.38,0,2.75,0,4.13,0a2.13,2.13,0,0,1,.94.18,1.17,1.17,0,0,1,.76,1.41,1.23,1.23,0,0,1-1.25,1H75Z"/><path class="b" d="M87.29,70.1H85.5V59.84c.89,0,1.77,0,2.64,0,.15,0,.34.33.4.54.46,1.76.9,3.53,1.34,5.3a1.74,1.74,0,0,0,.37.78c.39-1.55.77-3.1,1.17-4.64.17-.65.18-1.54.61-1.87s1.29-.12,2-.14c.27,0,.55,0,.86,0V70.09H93.07V62.75l-.17,0c-.2.82-.41,1.64-.61,2.46-.35,1.45-.7,2.91-1,4.37-.09.4-.25.58-.7.58-1.36,0-1.36,0-1.67-1.28q-.65-2.73-1.3-5.46a.89.89,0,0,0-.31-.54Z"/><path class="b" d="M70.85,70.13c.45-1.23.85-2.35,1.27-3.46.76-2.06,1.54-4.11,2.27-6.18a.83.83,0,0,1,1-.67c1.38,0,1.39,0,1.89,1.32,1.13,3,2.24,5.89,3.41,9-.7,0-1.31,0-1.93,0-.1,0-.22-.14-.3-.23a.82.82,0,0,1-.1-.26c-.24-.59-.31-1.43-.74-1.69s-1.31-.12-2-.12c-1.81,0-1.84,0-2.41,1.71a.76.76,0,0,1-.9.62C71.84,70.1,71.4,70.13,70.85,70.13Zm4.89-7.63h-.16L74.39,66H77Z"/><path class="b" d="M61.75,62.69l-1.83.46c-.09-.16-.16-.3-.23-.44a2,2,0,0,0-1.79-1.25,2,2,0,0,0-2,1.1,5.55,5.55,0,0,0,0,4.87,2.07,2.07,0,0,0,3.68-.07c.14-.29.24-.6.41-1l1.85.63A3.85,3.85,0,0,1,59,70.15a4.2,4.2,0,0,1-4.51-1.32,6.64,6.64,0,0,1,0-7.72,4.31,4.31,0,0,1,4.34-1.33,3.49,3.49,0,0,1,2.82,2.62C61.72,62.46,61.73,62.53,61.75,62.69Z"/><path class="b" d="M70.4,68.38v1.71H63.61V60h1.9v8.4Z"/><path class="b" d="M83.53,70.09H81.67V59.89h1.86Z"/></svg>