<svg xmlns="http://www.w3.org/2000/svg" viewBox="0 0 200 218"><defs><style>.a{fill:#5f2788;}.b{fill:#7775ee;}.c{fill:#5a7293;}.d{fill:#f9f9fa;}.e{fill:#eba895;}.f{fill:#fdfcfd;}.g{fill:#e9e8f7;}.h{fill:#fdfdfd;}.i{fill:#cfc3fc;}.j{fill:#fdfdfe;}.k{fill:#637aa1;}.l{fill:#573a4f;}.m{fill:#6766dc;}.n{fill:#c4b7fd;}.o{fill:#9d97e6;}</style></defs><title>faq</title><path class="a" d="M117.79,187.44c1.11-.62,2.21.07,3.33.06,5.09-.07,10.2-.24,15.29.05,3.36.18,6.8-.05,10.12.95,1,.31,2,.71,2.24,1.78s-.64,1.81-1.56,2.38A24.53,24.53,0,0,1,135,196.08c-4.77.18-9.54.2-14.2,1.41-.45.12-1.14,0-1.17.62,0,.81.81.56,1.24.66,2.33.55,4.76-.07,7.12.56,1.78.47,3.46,1.06,4.57,2.61.79,1.11.8,2.09-.69,2.71a9.85,9.85,0,0,1-3.82.82H92.38q-10.14,0-20.3,0a45.24,45.24,0,0,1-6.57-.63c-1.63-.24-3.06-1-3.21-2.64s1.37-2.52,2.64-3.32a5.56,5.56,0,0,1,1.51-.55c.61-.17,1.28-.42,1.31-1.05,0-.79-.69-1.2-1.35-1.5a29.76,29.76,0,0,0-6.07-2.13c-2-.42-4-.81-6-1.13a2.77,2.77,0,0,1-2.22-1.85c-.38-1,.51-1.55,1.13-2,2-1.58,4.45-1.77,6.79-1.82,6-.14,12,0,18,0a5.4,5.4,0,0,0,2.11,3c.69.61,1.67.86,2.16,1.72-.67.21-1.26.55-1.25,1.33a2,2,0,0,0,1.36,1.75,11.46,11.46,0,0,0,7.38.49c5.41,2.06,10.83,3.24,16.28.12.79,0,1.64.65,2.32-.27.2.94.8.37,1.26.35a2.72,2.72,0,0,0,2.18-.55l.16.06.15-.09a1.58,1.58,0,0,0,1.49-1l0,0c1.29-1.06.11-1.56-.5-2.2l1.57-1.07A7,7,0,0,0,117.79,187.44Z"/><path class="b" d="M88.81,185.31c-.4-3-1.38-5.92-1.56-9a21.84,21.84,0,0,1,.25-5.18c.47-2.61,1.63-4.72,4.54-5.37a32,32,0,0,0,3.23-1.05h4.91a30.51,30.51,0,0,1,4.9,1.69,4.29,4.29,0,0,1,2.38,3c1.32,3.8.79,7.64.13,11.49-.26,1.51-1,2.93-.84,4.53v0a1.45,1.45,0,0,0-1.2.08,18.17,18.17,0,0,1-8.89,1.52c-2-.24-4.2.11-5.75-1.69q-.39-5.67-.79-11.34l-.64,0c.33,3.76.49,7.53,1.12,11.26l-1.8.07Zm16-1.51a28.26,28.26,0,0,0,.76-10A42.88,42.88,0,0,0,104.76,183.8Z"/><path class="a" d="M95.23,163.07a3.52,3.52,0,0,0-3.41-1.1c-1.33.27-2.2-1.14-1.9-2.92a2,2,0,0,0-.41-1.89,3.42,3.42,0,0,1,.57-4.94,1.34,1.34,0,0,0,.63-1.7c-.62-2.57.61-4,3.25-4.08.59,0,1,.08,1.42-.65,1-1.65,2.38-1.55,3.19.16.32.69.44.69,1.07.34,1.86-1,2.87-.54,3.37,1.56.17.7.27,1,1.14,1.18,1.64.26,2.62,2.38,2.24,4.7a4,4,0,0,0,.3,2.69c.83,1.65.06,3-1.78,3.54-.41.13-1-.12-1.16.57-.34,2-1.82,2.5-3.49,2.82C98.59,163.1,97,162,95.23,163.07Z"/><path class="c" d="M117.79,187.44a7,7,0,0,1-3.09,2.91c-.1-.54.33-1.38-.35-1.57s-.58.67-.8,1.1-.47,0-.71-.08c-.58-.11-.88-1.4-1.55-.59-.54.65.43,1.08.78,1.57l.5.73c0,.9,1.15,1.19,1.06,2.11l0,0c-.75,0-1.53-.08-1.49,1l-.15.09-.16-.06c-.4-.51-.74-1.21-1.54-1s-.65.92-.64,1.52c-.46,0-1.06.59-1.26-.35l-.19-.55c.33,0,.68,0,.79-.45,0,0-.12-.18-.19-.18-.43,0-.57.26-.61.62l-1.81.34c.84-3,.32-6.12.34-9.19v0l6.59-1.68C116.8,182.84,118,183.82,117.79,187.44Z"/><path class="c" d="M82.33,191.44c-.49-.86-1.47-1.11-2.16-1.72a5.4,5.4,0,0,1-2.11-3c.35-3.19,1.35-3.86,4.52-3l6.23,1.59v.09c.2,3.09-.6,6.26.71,9.27l-1-.38C86.42,193.46,84.53,192.11,82.33,191.44Z"/><path class="a" d="M78,11.42a3.91,3.91,0,0,1-3.7,4c-1.63,0-3.46-1.92-3.49-3.68a3.33,3.33,0,0,1,3.46-3.51C76.44,8.2,78,9.5,78,11.42Z"/><path class="d" d="M92.38,205.48h6.49a6.26,6.26,0,0,0,.36,2.15,4.32,4.32,0,0,0-2.52,3.24c-.06.63-.47.81-1,.67a19.52,19.52,0,0,1-2.83-.93c-1-.46-1.58-1.19-.63-2.27C93.07,207.41,92.09,206.42,92.38,205.48Z"/><path class="a" d="M85.63,121.25a2.77,2.77,0,0,1-3-2.84,2.85,2.85,0,0,1,2.79-2.91,3,3,0,0,1,3,2.93A2.76,2.76,0,0,1,85.63,121.25Z"/><path class="a" d="M156.64,194.31c1.74,0,3.48-.17,5.12.64.31.15.74.17.73.64a.79.79,0,0,1-.72.7,20.68,20.68,0,0,1-9.92,0c-.39-.1-.82-.32-.73-.87s.47-.61.9-.75A15.29,15.29,0,0,1,156.64,194.31Z"/><path class="a" d="M49.82,199.72c-.92-.13-2-.25-3.15-.46a1.11,1.11,0,0,1-.93-1,.93.93,0,0,1,.72-.93,11,11,0,0,1,7.35,0c.38.16,1,.38,1,.94s-.64.62-1.08.74A14.92,14.92,0,0,1,49.82,199.72Z"/><path class="a" d="M14.91,28a2,2,0,0,1,1.91,2.24c.05,1.49-.51,2.41-2.13,2.46s-2.52-.73-2.55-2.1A2.72,2.72,0,0,1,14.91,28Z"/><path class="a" d="M35.89,141.6a1.48,1.48,0,0,1-1.59,1.59,1.79,1.79,0,1,1,0-3.57C35.44,139.62,35.91,140.35,35.89,141.6Z"/><path class="a" d="M164.61,6.43c1.34-.1,1.67.93,1.75,1.82a1.52,1.52,0,0,1-1.55,1.63c-.88,0-1.9-.32-1.89-1.64A1.62,1.62,0,0,1,164.61,6.43Z"/><path class="e" d="M95.23,163.07c1.74-1.1,3.36,0,5,.28,0,.46-.05.92-.08,1.38H95.27C95.26,164.17,95.24,163.62,95.23,163.07Z"/><path class="a" d="M175.87,139.27c-.06.62-.34,1.34-1.23,1.25a1.22,1.22,0,0,1-1.25-1.28,1.36,1.36,0,0,1,1.35-1.4C175.59,137.78,175.89,138.33,175.87,139.27Z"/><path class="a" d="M39.61,189.23c1.46-1.54,3-.74,4.19-1.22.19-.08.33.28.28.53a.81.81,0,0,1-.74.68C42.25,189.26,41.16,189.23,39.61,189.23Z"/><path class="a" d="M36.19,198.26c.61.08,1.64-.19,1.61.59s-1.13.78-1.85.83c-.56,0-1.38.09-1.32-.72S35.59,198.34,36.19,198.26Z"/><path class="f" d="M96.71,210.86a4.32,4.32,0,0,1,2.52-3.24v1.08c-.86.11-1,.79-1.08,1.44a1.09,1.09,0,0,0-1.08.72Z"/><path class="g" d="M139.76,202.91a3.24,3.24,0,0,1,2.77,0A3,3,0,0,1,139.76,202.91Z"/><path class="d" d="M98.15,210.14c.12-.65.22-1.33,1.08-1.44C99.1,209.36,99,210,98.15,210.14Z"/><path class="d" d="M110,205.47h1.08c0,.36-.14.7-.62.65S110.07,205.76,110,205.47Z"/><path class="d" d="M97.07,210.86a1.09,1.09,0,0,1,1.08-.72C98.11,210.87,97.59,210.87,97.07,210.86Z"/><path class="h" d="M128.73,92.09H128c-.79-.48-1.58,0-2.37,0-1.44,0-2.11-.42-1.94-1.92.13-1,.18-2.1.27-3.15,0-.24,0-.48,0-.72l.81-3.56c2.14-4.4,6-7.22,9.51-10.37,1.2-1.07,2.48-2.07,3.61-3.21a5,5,0,0,0,.87-6.25c-1.12-1.85-4.07-2.72-6.79-2-3.39.92-4.83,3.45-5.44,6.66-.46,2.42-.5,2.36-2.9,2q-6.47-.93-13-1.61c-1.2-.13-1.42-.38-1.26-1.63a22.62,22.62,0,0,1,6.09-13.1c3.28-3.46,7.55-5,12.1-5.74a35.7,35.7,0,0,1,16.49,1c7.44,2.39,13,7.94,13.29,16.57a14.11,14.11,0,0,1-4.08,10.06,79.48,79.48,0,0,1-7.78,6.89c-1.67,1.43-3.46,2.79-4.28,5-.91,1.19-.9,2.61-1,4-.06.38,0,.81-.41,1-2.57,0-5.15-.1-7.71,0C131,92.18,129.88,91.49,128.73,92.09Z"/><path class="h" d="M128.38,96.76l.73-.31.7-.06,5,0c.28.38.69.33,1.08.35a1.55,1.55,0,0,0,.31,0,1.35,1.35,0,0,0,1.12.69h0a.72.72,0,0,0,.7.37h0c.11.13.23.25.35.38,2.45,3,3.51,6.22,1.37,9.91a6.92,6.92,0,0,1-4.06,3.33,12.28,12.28,0,0,1-7.42,0c-6-2-6.39-9.81-2.82-12.74a12.34,12.34,0,0,0,1.11-1.17.78.78,0,0,0,.74-.64.85.85,0,0,0,.31-.09Z"/><path class="i" d="M124.83,82.77,124,86.33C123.28,84.92,123.87,83.8,124.83,82.77Z"/><path class="j" d="M143.14,124.14l.07-.15-.09.13Z"/><path class="f" d="M30.08,75.07c0-7.77,3.75-12.93,11.91-16.17,5.45-2.16,11-3.16,16.78-.95,6.61,2.54,11,10.39,6.45,18.17-1.28,2.16-2.71,4.23-4.08,6.34S58.7,87,59.52,89.74c.23.75-.13,1.09-.82,1.29q-5.33,1.59-10.65,3.21c-.62.19-.93.1-1.16-.59-1.31-3.85-1.51-7.63.65-11.25,1.47-2.47,3-4.9,4.53-7.33a5.15,5.15,0,0,0,1-4.4c-.87-2.88-4.37-3.53-7.14-1.42A5.77,5.77,0,0,0,43.77,75c.2,1.59-.14,2.31-1.92,2.51-3.32.38-6.62,1-9.89,1.69-1.34.29-1.56-.28-1.66-1.28S30.15,76,30.08,75.07Z"/><path class="f" d="M55.42,108.32a6.14,6.14,0,0,1-6-4.56,5.89,5.89,0,0,1,2.65-6.82c3.73-2,6.72-2.31,9.36.37a6.2,6.2,0,0,1-1.58,9.88A10.21,10.21,0,0,1,55.42,108.32Z"/><path class="k" d="M89.51,194.67c-1.31-3-.51-6.18-.71-9.27l1.8-.07.31,0c1.55,1.8,3.77,1.45,5.75,1.69a18.17,18.17,0,0,0,8.89-1.52,1.45,1.45,0,0,1,1.2-.08c0,3.07.5,6.16-.33,9.2l-.32.48c-5.45,3.12-10.87,1.94-16.28-.12C89.72,194.9,89.62,194.78,89.51,194.67Z"/><path class="l" d="M89.51,194.67c.11.11.21.23.31.34a11.46,11.46,0,0,1-7.38-.49,2,2,0,0,1-1.36-1.75c0-.78.58-1.12,1.25-1.33,2.2.67,4.09,2,6.22,2.85Z"/><path class="k" d="M112.57,191.51l-.5-.73c-.35-.49-1.32-.92-.78-1.57.67-.81,1,.48,1.55.59.24,0,.5.51.71.08s.07-1.31.8-1.1.25,1,.35,1.57c-.52.36-1,.72-1.57,1.07Z"/><path class="l" d="M109.68,195.21c0-.6-.1-1.3.64-1.52s1.14.46,1.54,1A2.72,2.72,0,0,1,109.68,195.21Z"/><path class="l" d="M112.57,191.51l.56-.09c.61.64,1.79,1.14.5,2.2C113.72,192.7,112.53,192.41,112.57,191.51Z"/><path class="l" d="M112.17,194.63c0-1.11.74-1,1.49-1A1.58,1.58,0,0,1,112.17,194.63Z"/><path class="l" d="M106.1,195.13l.32-.48,1.8-.35h0l.19.55C107.74,195.78,106.89,195.16,106.1,195.13Z"/><path class="m" d="M90.91,185.36l-.31,0c-.63-3.73-.79-7.5-1.12-11.26l.64,0Q90.51,179.69,90.91,185.36Z"/><path class="m" d="M104.76,183.8a42.88,42.88,0,0,1,.76-10A28.26,28.26,0,0,1,104.76,183.8Z"/><path class="l" d="M108.22,194.3c0-.36.18-.65.61-.62.07,0,.2.14.19.18-.11.41-.46.42-.79.45Z"/><path class="n" d="M193.91,59.19a48.93,48.93,0,0,0-9-6.45c-1-.58-1.44-1-1.17-2.3a12.83,12.83,0,0,0-2.08-10.52,4.78,4.78,0,0,0-2.15-3.26c-1.67-1.95-3.41-3.8-5.91-4.77-5-1.91-9.81-1.3-14.61.5-1.32.5-2,.39-2.66-1-3.55-7.25-9.41-11.7-17.14-13.79l-.36,0-1.08-.33-1.08-.06a.7.7,0,0,0-.29,0,2.64,2.64,0,0,0-2.23-.62l-.72,0a15.27,15.27,0,0,0-11.15,1.78.79.79,0,0,0-.72.36l-.38.33h0a.75.75,0,0,0-.72.36h0l-.36.35h0a.69.69,0,0,0-.7.36h0a.79.79,0,0,0-.73.36,16,16,0,0,0-7.55,8.92c-.33,1-.7,1.34-1.78.83a25.63,25.63,0,0,0-12.14-2.59A20.58,20.58,0,0,0,80.84,35.9C87.56,38.58,91.45,43.6,93,50.57a2.9,2.9,0,0,1,.1.88c0,.52.27,1.22-.22,1.52s-.86-.42-1.27-.69c-.24-.16-.41-.45-.9-.24a7.39,7.39,0,0,0,2.51,2.83,4.66,4.66,0,0,1,1.58,2.5c2.72,10.33,5.7,20.6,8.07,31,1.76,7.77-1.28,15.16-8.62,19.38-.77.45-1.85.55-2.21,1.6a20.15,20.15,0,0,0,7.58,1.81c3.55.25,3.51.19,4.45,3.47,1.34,4.67,3.38,8.93,7.28,12.09,3.43,2.79,7.55,3.81,11.75,4.52A19.69,19.69,0,0,0,139,127.58c1.42-1.08,2.74-2.28,4.1-3.43a34.87,34.87,0,0,1-4.91,14.43,24.62,24.62,0,0,1-4.52,5.25,4.86,4.86,0,0,0,.93.06c11-2.75,19-9,23.32-19.6.88-2.21,2-3,4.33-3.51,8.59-1.89,15.49-7.18,16.56-16.73a2.33,2.33,0,0,1,1.63-2.08,36.08,36.08,0,0,0,13.89-10.25c4.28-5.17,5.74-11.31,5.65-17.91C199.92,68.12,198.15,63.16,193.91,59.19Zm-69.86,36.5h0Zm15.75,12.48a6.92,6.92,0,0,1-4.06,3.33,12.28,12.28,0,0,1-7.42,0c-6-2-6.39-9.81-2.82-12.74a13.55,13.55,0,0,0,1.11-1.16h0a.78.78,0,0,0,.74-.64.85.85,0,0,0,.31-.09h0l.72-.06.73-.31h0l.7-.06,5,0h0c.28.38.69.33,1.08.35a1.55,1.55,0,0,0,.31,0h0a1.35,1.35,0,0,0,1.12.69h0a.72.72,0,0,0,.7.37h0l.35.38C140.88,101.29,141.94,104.48,139.8,108.17ZM125.71,95.71a3.06,3.06,0,0,1,.5.52A3.06,3.06,0,0,0,125.71,95.71Zm2-2.89.06-.17Zm25.66-17.64a79.48,79.48,0,0,1-7.78,6.89c-1.67,1.43-3.46,2.79-4.28,5h0c-.91,1.18-.9,2.6-1,4-.06.38,0,.81-.41,1h0c-2.57,0-5.15-.1-7.71,0-1.16.06-2.31-.63-3.46,0H128c-.79-.48-1.58,0-2.37,0-1.44,0-2.11-.42-1.94-1.92.13-1,.18-2.1.27-3.15h0c0-.24,0-.48,0-.72-.74-1.41-.15-2.53.81-3.56,2.14-4.4,6-7.22,9.51-10.37,1.2-1.07,2.48-2.07,3.61-3.21a5,5,0,0,0,.87-6.25c-1.12-1.85-4.07-2.72-6.79-2-3.39.92-4.83,3.45-5.44,6.66-.46,2.42-.5,2.36-2.9,2q-6.47-.91-13-1.6c-1.2-.13-1.42-.38-1.26-1.63a22.62,22.62,0,0,1,6.09-13.1c3.28-3.46,7.55-5,12.1-5.74a35.7,35.7,0,0,1,16.49,1c7.44,2.39,13,7.94,13.29,16.57A14.11,14.11,0,0,1,153.37,75.18ZM174,45.82c.36.17.54-.08.73-.31-.19.23-.37.48-.73.31Zm-6.31,6.34c-.69-1.19-.89-2.71-2.37-3.37h0C166.76,49.45,167,51,167.65,52.16Z"/><path class="o" d="M102.86,88.38c-2.37-10.41-5.35-20.68-8.07-31a4.66,4.66,0,0,0-1.58-2.5A7.39,7.39,0,0,1,90.7,52c.49-.21.66.08.9.24.41.27.66,1.08,1.27.69s.19-1,.22-1.52a2.9,2.9,0,0,0-.1-.88c-1.54-7-5.43-12-12.15-14.67a20.76,20.76,0,0,0-11.14-.11Q41.88,43.28,14,50.66C3.72,53.37-2,62.9.67,73.12q5.19,19.62,10.43,39.2a14.5,14.5,0,0,0,2.15,4.73c4.11,5.81,9.63,8.8,16.88,8.17,1-.09,2-.24,2.73.82a23,23,0,0,0,6.35,5.77,13.94,13.94,0,0,0,6.08,2.74,25.61,25.61,0,0,1-4.12-9.17c-.59-2.63-.54-2.7,2.07-3.4,12.78-3.4,25.54-6.87,38.34-10.2,3.46-.89,6.82-2.28,10.45-2.42.36-1,1.44-1.15,2.21-1.6C101.58,103.54,104.62,96.15,102.86,88.38ZM4.7,72.75c-.33.74-1.46,1.36-.28,2.29a.62.62,0,0,1-.2.41.69.69,0,0,1-.8-.23c-.59-.67-1.14-1.37-1.75-2-.43-.46-.81-.85-.38-1.54S2.11,70.48,3,70.51A1.73,1.73,0,0,1,4.7,72.75Zm-.89-3.67a3.41,3.41,0,0,1,2.33,2.31A4.17,4.17,0,0,1,3.81,69.08Zm3.51,1.49a18.37,18.37,0,0,1-3.8-3.64c1.06-1,2,3,3.11-.47-.38,2.24,1.27,1.7,2.26,2.17C8.25,69.27,6.5,68.76,7.32,70.57Zm15.24,52.49,0,0ZM59.9,107.19a10.21,10.21,0,0,1-4.48,1.13,6.14,6.14,0,0,1-6-4.56,5.89,5.89,0,0,1,2.65-6.82c3.73-2,6.72-2.31,9.36.37A6.2,6.2,0,0,1,59.9,107.19Zm5.32-31.07c-1.28,2.16-2.71,4.23-4.08,6.34S58.7,87,59.52,89.74c.23.75-.13,1.09-.82,1.29q-5.33,1.59-10.65,3.21c-.62.19-.93.1-1.16-.59-1.31-3.85-1.51-7.63.65-11.25,1.47-2.47,3-4.9,4.53-7.33a5.15,5.15,0,0,0,1-4.4c-.87-2.88-4.37-3.53-7.14-1.42A5.77,5.77,0,0,0,43.77,75c.2,1.59-.14,2.31-1.92,2.51-3.32.38-6.62,1-9.89,1.69-1.34.29-1.56-.28-1.66-1.28s-.15-1.91-.22-2.86c0-7.77,3.75-12.93,11.91-16.17,5.45-2.16,11-3.16,16.78-.95C65.38,60.49,69.81,68.34,65.22,76.12ZM90.9,59.48l.17.21Zm0-5.41a1.19,1.19,0,0,1,.47.16,1.19,1.19,0,0,0-.47-.16.57.57,0,0,0-.17.35A.57.57,0,0,1,90.89,54.07ZM91,55.39s0,0,0-.08,0,0,0,.08l-.62-.06Zm-1,1.1a.77.77,0,0,1,.23.06A.77.77,0,0,0,89.93,56.49Zm-2.12,3.17c-.21.28-.4.61-.6.9h0C87.41,60.27,87.6,59.94,87.81,59.66Zm.2-.27c-.05,0-.09.11-.14.17s.09-.12.14-.17a1.45,1.45,0,0,1,.29-.27A1.45,1.45,0,0,0,88,59.39ZM87.51,58a.49.49,0,0,1-.3.19A.49.49,0,0,0,87.51,58Zm-2.63,5h0l.09.1Zm.32-2.26h0Zm.28,1.59a.11.11,0,0,1,0-.08.11.11,0,0,0,0,.08.53.53,0,0,0,.13.13l.18.1-.18-.1A.53.53,0,0,1,85.48,62.37Zm-.14-3.19a2.42,2.42,0,0,0-.14.63A2.42,2.42,0,0,1,85.34,59.18Zm-2.25,2.17a1.6,1.6,0,0,1,.4-.25,1.6,1.6,0,0,0-.4.25,1.06,1.06,0,0,0-.29.37A1.06,1.06,0,0,1,83.09,61.35Zm-.39,1.71a3.14,3.14,0,0,1,0-.54A3.14,3.14,0,0,0,82.7,63.06Zm-1.54,2.19a.53.53,0,0,0-.63.14.74.74,0,0,0-.29.48.74.74,0,0,1,.29-.48A.53.53,0,0,1,81.16,65.25Zm1.11-2.5a4.59,4.59,0,0,0-.15.44,4.59,4.59,0,0,1,.15-.44ZM79.1,64.5a1.31,1.31,0,0,0,.09.17.92.92,0,0,0,.18.23.92.92,0,0,1-.18-.23,1.31,1.31,0,0,1-.09-.17,2.47,2.47,0,0,1-.1-.29A2.47,2.47,0,0,0,79.1,64.5ZM76,73.6a3,3,0,0,1-.51.08A3,3,0,0,0,76,73.6a2.54,2.54,0,0,0,.9-.45A2.54,2.54,0,0,1,76,73.6Zm1.27-.79a2.94,2.94,0,0,0,.31-.41A2.94,2.94,0,0,1,77.27,72.81ZM81.45,68a.38.38,0,0,1-.09.09.38.38,0,0,0,.09-.09.51.51,0,0,0,.09-.13A.51.51,0,0,1,81.45,68ZM83,66.17a.37.37,0,0,0,.06-.25A.37.37,0,0,1,83,66.17Zm.45-2a1.34,1.34,0,0,1-.55-.59,1.34,1.34,0,0,0,.55.59,2,2,0,0,0,1.56.24A2,2,0,0,1,83.4,64.14Zm2.8-.66a.71.71,0,0,0,0-.21A.66.66,0,0,1,86.2,63.48Zm1.75-2a1.56,1.56,0,0,1-.27.2,1.2,1.2,0,0,1-.31.13,1.2,1.2,0,0,0,.31-.13,1.56,1.56,0,0,0,.27-.2,2.89,2.89,0,0,0,.24-.25A2.89,2.89,0,0,1,88,61.47ZM90,60a3.31,3.31,0,0,0-.74-.78,1,1,0,0,0-.4-.18.7.7,0,0,0-.43.08.7.7,0,0,1,.43-.08,1,1,0,0,1,.4.18A3.31,3.31,0,0,1,90,60a1.51,1.51,0,0,0,.21.23A1.51,1.51,0,0,1,90,60Zm1.24.08a.2.2,0,0,0,0-.11A.2.2,0,0,1,91.19,60Zm1.67-4.37a.71.71,0,0,1,.13.26A.71.71,0,0,0,92.86,55.66Z"/><path class="o" d="M3,70.51c-.84,0-1.26.51-1.66,1.15s-.05,1.08.38,1.54c.61.65,1.16,1.35,1.75,2a.69.69,0,0,0,.8.23.62.62,0,0,0,.2-.41c-1.18-.93,0-1.55.28-2.29A1.73,1.73,0,0,0,3,70.51Z"/><path class="o" d="M8.89,68.63c-1-.47-2.64.07-2.26-2.17-1.09,3.47-2-.53-3.11.47a18.37,18.37,0,0,0,3.8,3.64C6.5,68.76,8.25,69.27,8.89,68.63Z"/><path class="o" d="M3.81,69.08a4.17,4.17,0,0,0,2.33,2.31A3.41,3.41,0,0,0,3.81,69.08Z"/></svg>