<svg xmlns="http://www.w3.org/2000/svg" viewBox="0 0 151 148"><defs><style>.a{fill:#86b1f2;}.b{fill:#f47257;}.c{fill:#3c8f7c;}.d{fill:#96d9c9;}.e{fill:#50bfa5;}.f{fill:#b75742;}.g{fill:#f7cc7f;}.h{fill:#fae0b2;}.i,.q{fill:#fff;}.j{fill:#f48c7f;}.k{fill:#466eb6;}.l{fill:#355389;}.m{fill:#f7a491;}.n{fill:#231f20;}.n,.o,.p,.q,.r,.s,.t,.u,.v{fill-rule:evenodd;}.o{fill:#929497;}.p{fill:#ec1c24;}.r{fill:#29b895;}.s{fill:#1f4098;}.t{fill:#f8e200;}.u{fill:#e61e26;}.v{fill:#110706;}</style></defs><title>gifts</title><path class="a" d="M136,41.94l2.09-1.08,2.07,1.1a.32.32,0,0,0,.47-.34l-.38-2.31,1.69-1.64a.32.32,0,0,0-.18-.55l-2.32-.35-1-2.11a.32.32,0,0,0-.58,0l-1,2.11-2.33.32a.32.32,0,0,0-.18.55l1.67,1.65-.41,2.31A.33.33,0,0,0,136,41.94Z"/><rect class="b" x="28.9" y="84.4" width="102.68" height="10.75"/><path class="c" d="M104.27,122.44a198.26,198.26,0,0,0-74.12-22.21Q31.58,83.43,33,66.62a229.32,229.32,0,0,1,85.7,25.68Q111.51,107.38,104.27,122.44Z"/><path class="d" d="M32.42,94.09q1-10.49,2-21a4.82,4.82,0,0,0,5.44-4,227.93,227.93,0,0,1,71.86,21.53,5.11,5.11,0,0,0,2.62,6.4L105.43,116a4.28,4.28,0,0,0-5.93,2.09,199.63,199.63,0,0,0-63.1-18.9A4.51,4.51,0,0,0,32.42,94.09Z"/><path class="e" d="M85.85,95.24a11.63,11.63,0,0,1-14.49,7.24A12.41,12.41,0,0,1,62.9,88.16c1.34-6.23,8-10,14.68-7.89S87.94,89.24,85.85,95.24Z"/><path class="c" d="M71.31,100.36c.17-.67.33-1.34.5-2a10.5,10.5,0,0,1-2.43-1.14,1.3,1.3,0,0,1-.47-1.69l0-.07a1.25,1.25,0,0,1,1.8-.44,7.9,7.9,0,0,0,2.23,1c1.22.34,2.17.12,2.39-.73s-.35-1.51-1.82-2.49c-2.14-1.41-3.5-2.88-3-5,.43-1.87,2.16-3,4.67-2.77.17-.67.33-1.34.5-2l2.22.62-.48,1.86a10.6,10.6,0,0,1,2,.88,1.31,1.31,0,0,1,.52,1.76h0a1.32,1.32,0,0,1-1.84.38,7.09,7.09,0,0,0-1.88-.82c-1.44-.42-2,0-2.2.65s.5,1.35,2.19,2.56c2.37,1.65,3.09,3.14,2.56,5s-2.29,3-4.83,2.77c-.18.72-.37,1.43-.56,2.15Z"/><path class="e" d="M59.37,87.92q-8.86-2-17.86-3.32c.13-1.08.27-2.16.41-3.23Q51.05,82.66,60,84.74Z"/><path class="e" d="M105.38,104.26q-8.23-4-16.75-7.33l1.08-3.06q8.63,3.34,17,7.44Z"/><path class="c" d="M115.09,84A179,179,0,0,0,48,113.47L31.5,84.92A207,207,0,0,1,109,50.84Q112.05,67.41,115.09,84Z"/><path class="d" d="M46.31,107.14,36.11,89.23a5.28,5.28,0,0,0,1.81-6.63,205.55,205.55,0,0,1,65-28.58,4.53,4.53,0,0,0,5.48,3.42q2,10.34,3.94,20.66a4.51,4.51,0,0,0-3.21,5.43,180.46,180.46,0,0,0-57.08,25.1A3.89,3.89,0,0,0,46.31,107.14Z"/><path class="e" d="M86.39,74.07a12.52,12.52,0,0,1-6.68,15,10.77,10.77,0,0,1-14.19-6A12.1,12.1,0,0,1,72,67.43,10.47,10.47,0,0,1,86.39,74.07Z"/><path class="c" d="M78.5,87.39l-.75-1.91a10,10,0,0,1-2.43.64A1.18,1.18,0,0,1,74,85.07V85a1.29,1.29,0,0,1,1.08-1.49,6.82,6.82,0,0,0,2.22-.6c1.09-.5,1.67-1.28,1.37-2.1s-1.1-1-2.73-.82c-2.36.24-4.18-.06-5-2-.73-1.76-.07-3.75,1.91-5.17-.25-.64-.5-1.28-.76-1.92l2-.91c.23.59.46,1.19.68,1.78a8.58,8.58,0,0,1,1.94-.55,1.17,1.17,0,0,1,1.36,1.06h0A1.36,1.36,0,0,1,77,73.74a6.54,6.54,0,0,0-1.85.53c-1.29.6-1.48,1.36-1.26,1.92s1.12.76,3,.65c2.67-.2,4,.53,4.68,2.37a4.47,4.47,0,0,1-2,5.27l.79,2.07Z"/><path class="e" d="M62.78,85.1q-7.68,4-15,8.72L46.26,91q7.45-4.77,15.24-8.84C61.92,83.13,62.35,84.11,62.78,85.1Z"/><path class="e" d="M105.82,68.83q-8.32,2-16.44,4.82l-.9-3.12q8.22-2.82,16.66-4.89C105.37,66.7,105.59,67.77,105.82,68.83Z"/><path class="c" d="M118.9,104.87a181.74,181.74,0,0,0-73.33,10.75l-9.75-32a210.09,210.09,0,0,1,84.79-12.42Z"/><path class="d" d="M45.33,109,39.39,89a5.07,5.07,0,0,0,3.33-5.94,208.43,208.43,0,0,1,71.1-10.42,4.79,4.79,0,0,0,4.64,4.77q-.45,10.52-.91,21a4.34,4.34,0,0,0-4.44,4.4A182.91,182.91,0,0,0,50.67,112,4.12,4.12,0,0,0,45.33,109Z"/><path class="e" d="M92.76,87.67a12.06,12.06,0,0,1-10.11,12.71A11.42,11.42,0,0,1,70,90.8,11.65,11.65,0,0,1,80,77.42,11.06,11.06,0,0,1,92.76,87.67Z"/><path class="c" d="M81.84,98.46l-.3-2a9.91,9.91,0,0,1-2.56,0A1.24,1.24,0,0,1,78,95V95a1.25,1.25,0,0,1,1.43-1.16,7.62,7.62,0,0,0,2.34,0c1.19-.2,2-.8,1.84-1.67s-.86-1.24-2.52-1.52c-2.39-.4-4.12-1.17-4.46-3.27-.31-1.89.8-3.64,3.09-4.5l-.3-2,2.18-.36c.09.64.18,1.27.26,1.91a8.93,8.93,0,0,1,2.06,0A1.22,1.22,0,0,1,85,83.72h0a1.31,1.31,0,0,1-1.47,1.12,6.85,6.85,0,0,0-2,0c-1.42.23-1.79.92-1.7,1.52s.94,1,2.86,1.44c2.7.51,3.87,1.58,4.1,3.53s-.91,3.75-3.24,4.56l.3,2.21Z"/><path class="e" d="M66.78,92.07q-8.53,1.84-16.93,4.45L49,93.38q8.51-2.64,17.17-4.51Z"/><path class="e" d="M113.24,87.74q-8.71-.24-17.41.31c-.06-1.09-.12-2.17-.17-3.26q8.81-.54,17.66-.31C113.29,85.57,113.27,86.65,113.24,87.74Z"/><rect class="b" x="28.9" y="84.4" width="102.68" height="45.19"/><path class="f" d="M131.58,118.05h-25.4a2.09,2.09,0,0,0-2,2.14h0a2.09,2.09,0,0,0,2,2.14h-3.3a2.08,2.08,0,0,0-2,2.13h0a2.09,2.09,0,0,0,2,2.14h.57a2.09,2.09,0,0,0-2,2.13,2.2,2.2,0,0,0,.17.86h30Z"/><rect class="f" x="32.68" y="86.63" width="93.47" height="3.51"/><rect class="c" x="27.77" y="100.97" width="49.08" height="28.07" rx="12.1"/><rect class="g" x="30.93" y="106.55" width="12.09" height="7.03"/><rect class="g" x="52.31" y="104.77" width="21.43" height="1.31"/><rect class="g" x="32.71" y="119.76" width="39.45" height="1.62"/><rect class="g" x="32.71" y="123.57" width="39.45" height="1.62"/><rect class="f" x="33.87" y="95.94" width="43.58" height="1.16"/><circle class="h" cx="102.4" cy="78.71" r="9.71"/><path class="g" d="M109.07,74a8.14,8.14,0,1,1-11.35-2A8.14,8.14,0,0,1,109.07,74Z"/><path class="i" d="M103.34,84.44,103,83.12a6.68,6.68,0,0,1-1.74.16.84.84,0,0,1-.78-.82v0a.83.83,0,0,1,.88-.84,4.75,4.75,0,0,0,1.56-.15c.79-.21,1.25-.66,1.1-1.21s-.68-.74-1.79-.81c-1.61-.09-2.81-.51-3.17-1.85a2.64,2.64,0,0,1,1.67-3.09l-.36-1.32,1.36-.36.33,1.21a6.92,6.92,0,0,1,1.31-.16.82.82,0,0,1,.82.82h0a.82.82,0,0,1-.84.84,4.09,4.09,0,0,0-1.26.16c-.9.24-1.09.7-1,1.09s.68.62,2,.74c1.8.14,2.67.72,3,2a2.73,2.73,0,0,1-1.76,3.22l.38,1.41Z"/><circle class="h" cx="111.56" cy="109.77" r="9.71" transform="translate(-28.38 179.86) rotate(-71.14)"/><path class="g" d="M118.23,105.09a8.15,8.15,0,1,1-11.35-2A8.15,8.15,0,0,1,118.23,105.09Z"/><path class="i" d="M112.5,115.5l-.35-1.31a6.68,6.68,0,0,1-1.74.15.82.82,0,0,1-.78-.81v-.06a.81.81,0,0,1,.87-.83,4.78,4.78,0,0,0,1.57-.15c.79-.21,1.25-.66,1.1-1.22s-.68-.73-1.79-.8c-1.62-.1-2.81-.52-3.17-1.86a2.65,2.65,0,0,1,1.67-3.09l-.36-1.31,1.35-.37.33,1.22a6.27,6.27,0,0,1,1.31-.16.83.83,0,0,1,.83.82h0a.82.82,0,0,1-.84.83,4.83,4.83,0,0,0-1.27.16c-.89.24-1.08.71-1,1.1s.68.61,2,.74c1.8.13,2.67.71,3,2a2.74,2.74,0,0,1-1.77,3.22l.38,1.41Z"/><circle class="h" cx="92.7" cy="97.62" r="9.71" transform="translate(-1.61 1.56) rotate(-0.95)"/><circle class="g" cx="92.7" cy="97.62" r="8.15" transform="translate(-31.7 46.16) rotate(-24.01)"/><path class="i" d="M90.17,102.85l.47-1.28a6.43,6.43,0,0,1-1.51-.87A.83.83,0,0,1,89,99.58l0,0a.82.82,0,0,1,1.19-.18,5.21,5.21,0,0,0,1.37.78c.77.28,1.4.17,1.6-.37s-.13-1-1-1.69c-1.27-1-2-2-1.53-3.34a2.65,2.65,0,0,1,3.14-1.57l.46-1.27,1.32.47-.43,1.19a6.58,6.58,0,0,1,1.17.62.82.82,0,0,1,.2,1.14h0a.82.82,0,0,1-1.17.2,4.62,4.62,0,0,0-1.12-.59c-.88-.32-1.3,0-1.43.33S93,96.16,94,97c1.4,1.15,1.78,2.12,1.34,3.34A2.75,2.75,0,0,1,92,102l-.5,1.37Z"/><rect class="j" x="82.2" y="103.22" width="43.96" height="23.56"/><path class="f" d="M104.14,120.19h0a2.09,2.09,0,0,0,2,2.14h-3.3a2.08,2.08,0,0,0-2,2.13h0a2.09,2.09,0,0,0,2,2.14h.57a1.89,1.89,0,0,0-.82.18h23.53v-8.73h-20A2.09,2.09,0,0,0,104.14,120.19Z"/><path class="g" d="M131.84,130.87H105.6a1.9,1.9,0,0,1-1.9-1.91h0a1.9,1.9,0,0,1,1.9-1.9h26.24a1.91,1.91,0,0,1,1.91,1.9h0A1.91,1.91,0,0,1,131.84,130.87Z"/><path class="h" d="M131.31,127.06H105.07a1.92,1.92,0,0,1-1.91-1.91h0a1.91,1.91,0,0,1,1.91-1.9h26.24a1.9,1.9,0,0,1,1.9,1.9h0A1.91,1.91,0,0,1,131.31,127.06Z"/><path class="g" d="M134.39,123.25H108.15a1.92,1.92,0,0,1-1.91-1.91h0a1.92,1.92,0,0,1,1.91-1.91h26.24a1.91,1.91,0,0,1,1.9,1.91h0A1.91,1.91,0,0,1,134.39,123.25Z"/><polygon class="k" points="101.01 40.7 101.35 42.95 97.77 43.89 97.85 47.26 95.29 48.4 95.87 49.69 99.29 48.17 99.22 44.98 102.94 44.01 102.43 40.61 101.01 40.7"/><path class="d" d="M67.21,33.55l.69-1.71a9.23,9.23,0,0,1-2-1.25,1.13,1.13,0,0,1-.18-1.53l0-.06a1.12,1.12,0,0,1,1.63-.18,6.44,6.44,0,0,0,1.82,1.12c1,.41,1.88.3,2.17-.42s-.12-1.35-1.27-2.33c-1.67-1.43-2.62-2.86-1.92-4.6s2.26-2.38,4.34-2l.69-1.71,1.76.71-.64,1.58a8.84,8.84,0,0,1,1.55.9,1.12,1.12,0,0,1,.22,1.56h0a1.12,1.12,0,0,1-1.59.22A5.76,5.76,0,0,0,73,23c-1.16-.47-1.75-.12-2,.38s.24,1.23,1.54,2.42c1.83,1.62,2.3,3,1.65,4.57s-2.33,2.52-4.55,2L69,34.26Z"/><path class="a" d="M70.47,51.79a.7.7,0,0,1-.13.9A7,7,0,0,1,68.11,54,5.64,5.64,0,0,1,63.75,54a5.26,5.26,0,0,1-2.24-2l-.83.31a.54.54,0,0,1-.7-.32v0a.54.54,0,0,1,.31-.7L61,51c-.11-.23-.18-.37-.23-.5a5,5,0,0,1-.22-.76l-.7.26a.54.54,0,0,1-.7-.32h0a.55.55,0,0,1,.32-.7l.85-.32a5.68,5.68,0,0,1,.4-3,6,6,0,0,1,3.42-3.1,6.2,6.2,0,0,1,2.12-.42.74.74,0,0,1,.74.7h0a.73.73,0,0,1-.71.77,5.31,5.31,0,0,0-1.65.35,4,4,0,0,0-2.23,2,3.22,3.22,0,0,0-.24,2l4.77-1.79a.54.54,0,0,1,.7.32h0a.54.54,0,0,1-.32.7l-5,1.87c.06.24.13.48.18.63s.15.38.26.63l5-1.88a.57.57,0,0,1,.72.33h0a.55.55,0,0,1-.33.71l-4.78,1.8a3.44,3.44,0,0,0,1.4,1.22,3.83,3.83,0,0,0,3.06,0,5.53,5.53,0,0,0,1.59-.9.72.72,0,0,1,1.06.19Z"/><polygon class="e" points="57.44 34.77 55.27 34.99 54.53 31.55 51.32 31.48 50.34 28.99 49.08 29.48 50.39 32.81 53.43 32.88 54.2 36.46 57.46 36.13 57.44 34.77"/><path class="h" d="M82.48,32.19,84.8,33s3.68-1.19,4-1.94.46-2.57,1-2.62a1.58,1.58,0,0,1,1.77,1.37c.18.9-1.15,3.51-.94,3.79a12.85,12.85,0,0,0,2.42,1A1.81,1.81,0,0,1,94.28,36h0a1,1,0,0,1-.63,1.07l-.66.26.21.69a1,1,0,0,1-.63,1.23l-.51.18.16.41a1,1,0,0,1-.64,1.32l-.45.13,0,.12a1,1,0,0,1-.73,1.11l-.44.12-6.18-2a4.43,4.43,0,0,1-1.57-.91l-2-1.08a.52.52,0,0,1-.24-.62l1.91-5.47A.51.51,0,0,1,82.48,32.19Z"/><path class="g" d="M45.8,56.72l.49-2.43,2.28-1a.34.34,0,0,0,0-.61l-2.16-1.22L46.22,49a.34.34,0,0,0-.57-.22l-1.82,1.68-2.42-.55a.34.34,0,0,0-.39.47l1,2.26-1.27,2.13a.34.34,0,0,0,.33.51L43.58,55l1.63,1.87A.34.34,0,0,0,45.8,56.72Z"/><path class="d" d="M10.85,38.35l28,14.4a3.2,3.2,0,0,0,4.25-1.56l7.15-13.87A3.21,3.21,0,0,0,49,33l-28-14.41a3.23,3.23,0,0,0-4.26,1.56L9.65,34A3.21,3.21,0,0,0,10.85,38.35Z"/><rect class="l" x="25.24" y="21.37" width="4.74" height="37.6" transform="translate(-20.74 46.33) rotate(-62.76)"/><rect class="g" x="18.98" y="22.17" width="8.29" height="4.6" transform="translate(13.8 -7.88) rotate(27.29)"/><path class="m" d="M37.56,52.08c-.05-.13-.14-.31-.1-.39.3-.45,0-.95-.24-.56a2.51,2.51,0,0,0-.32,1,8.8,8.8,0,0,0,.2.9A.66.66,0,0,0,37.56,52.08Z"/><circle class="h" cx="118.43" cy="32.39" r="9.71" transform="translate(-4.22 26.84) rotate(-12.7)"/><path class="g" d="M125.09,27.71a8.14,8.14,0,1,1-11.34-2A8.14,8.14,0,0,1,125.09,27.71Z"/><path class="i" d="M119.37,38.12,119,36.81a6.61,6.61,0,0,1-1.73.15.83.83,0,0,1-.79-.81v-.06a.83.83,0,0,1,.88-.83,4.78,4.78,0,0,0,1.57-.15c.79-.21,1.24-.66,1.09-1.22s-.67-.73-1.79-.8c-1.61-.1-2.8-.52-3.17-1.86a2.65,2.65,0,0,1,1.67-3.09l-.35-1.31,1.35-.37.33,1.22a6.27,6.27,0,0,1,1.31-.16.83.83,0,0,1,.83.82h0a.83.83,0,0,1-.85.83,4.81,4.81,0,0,0-1.26.16c-.9.24-1.08.71-1,1.1s.69.61,2,.74c1.8.13,2.67.71,3,2a2.74,2.74,0,0,1-1.77,3.22l.38,1.41Z"/><path class="m" d="M121,42.1l1-.93s-.49-.58-.29-.69.89.52.84.69a4,4,0,0,1-.65.72Z"/><polygon class="n" points="84.25 31.83 80.86 39.71 86.04 46.32 94.61 45.44 98 37.57 92.87 30.91 84.25 31.83"/><path class="o" d="M94.49,32.49c-.62-2.21-1.92-4.71-3.37-5-1.91-.28-4,2.09-5.4,5.68L87.21,33c8.66-.84,16.19,1.31,16.78,5.11.31,3.31-4.73,5.87-8.72,7.12,2.09-1,6.1-2.71,6-4.86-.35-3.15-6.21-4.21-13.15-3.72-1.24.12-2.48.29-3.68.51-.12.5-.22,1-.32,1.51-1,6.53-.33,12.07,3,12.45,1.25,0,4.46-1.13,6.08-5.46-2,6.8-4.91,9.65-7.82,9.06-3.84-.61-5.72-7.8-4.51-16L81,38c-4,1.22-6.84,3.09-6.48,5.24.25.81,1.84,2.36,5.76,3.18-6.73-1-8.37-3.33-8.51-5-.32-3.06,4-6,10.22-7.52,1.75-5.53,4.79-9.33,7.8-9C92.05,25,93.89,28.36,94.49,32.49Z"/><polygon class="p" points="81.89 31.15 78.49 39.02 83.68 45.64 92.25 44.76 95.63 36.89 90.51 30.23 81.89 31.15"/><path class="q" d="M80.55,34.31,78.42,39A23.34,23.34,0,0,1,81,38l-.12.67c-.15,1-.25,2-.31,2.92l3.21,4.09a29,29,0,0,1,.36-7c.1-.52.2-1,.32-1.51,1.2-.22,2.44-.39,3.68-.51a34.89,34.89,0,0,1,7.49.19l-3.08-4a37,37,0,0,0-5.33.14l-1.49.19A18.4,18.4,0,0,1,87,30.58L83.09,31c-.41.9-.79,1.84-1.16,2.88C81.43,34,81,34.18,80.55,34.31Z"/><path class="r" d="M55.51,12.83a.62.62,0,0,1,.51-.12.4.4,0,0,1,.21.4V19c1.84,0,3.68,0,5.53,0a.37.37,0,0,1,.38.2.67.67,0,0,1-.11.51q-.73,1.33-1.5,2.64a1.11,1.11,0,0,1-.61.45,2.72,2.72,0,0,1-.64,0c-.61,0-1.22,0-1.83,0a1.18,1.18,0,0,0-.78.2.63.63,0,0,0-.08.65,8.77,8.77,0,0,0,.64,1.26,5.73,5.73,0,0,1-.63-.47,11.14,11.14,0,0,1-1.67-1.83,13,13,0,0,1-2.32-6.89,1.55,1.55,0,0,1,.67-1.41c.75-.49,1.49-1,2.23-1.49Z"/><path class="s" d="M45.52,16.74a.47.47,0,0,1,.44-.21h3.35a1.28,1.28,0,0,1,.58.11,1.67,1.67,0,0,1,.44.4l1.23,1.39s.06.08.1,0c.22-.24.43-.5.66-.74a9,9,0,0,0,1.27,3.35,13,13,0,0,0,3,3.38,5.73,5.73,0,0,0,.63.47l.39.45a.41.41,0,0,1,.1.43.4.4,0,0,1-.38.2H54a1.39,1.39,0,0,1-.57-.09,1.72,1.72,0,0,1-.45-.4l-1.21-1.37a.52.52,0,0,0-.11-.1l-1.26,1.45a2,2,0,0,1-.47.41,1.19,1.19,0,0,1-.56.1h-3.4a.43.43,0,0,1-.41-.23.5.5,0,0,1,.17-.46q1.76-2,3.53-4c-1.18-1.36-2.38-2.71-3.55-4.08A.44.44,0,0,1,45.52,16.74Z"/><path class="t" d="M17,56.91h0a3,3,0,0,1,2.73,2.84V56.34A2.49,2.49,0,0,1,22.29,54a2.5,2.5,0,0,1,2.62,2.34v1.13a2.48,2.48,0,0,1,2.49-1.82,2.42,2.42,0,0,1,2.54,2.27v1.22a2.62,2.62,0,0,1,5.15-.08v-1a2.55,2.55,0,0,1,5.07,0v1c.1-.21.3-.69.45-.94a2.61,2.61,0,0,1,2.24-1.23,2.54,2.54,0,0,1,2.48,1.8V57.37a2.75,2.75,0,0,1,5.47,0V60h0V63.2h0v5.4a2.75,2.75,0,0,1-5.47,0v1a2.55,2.55,0,0,1-5.08,0v-.7a2.63,2.63,0,0,1-5.17-.1v.88a2.61,2.61,0,0,1-5.18,0v1.77a2.56,2.56,0,0,1-5.09,0V70.13A2.56,2.56,0,0,1,22.26,72a2.49,2.49,0,0,1-2.61-2.34V68.47A3,3,0,0,1,17,71.1c-1.52,0-2.76-1.51-2.76-3.36V60.28C14.19,58.43,15.43,56.91,17,56.91Z"/><path class="u" d="M17.05,63.46a2.87,2.87,0,0,1,2.6,1.66,2.86,2.86,0,0,1,5.16-.1A2.86,2.86,0,0,1,30,65a2.86,2.86,0,0,1,5.14,0,2.86,2.86,0,0,1,5.12,0,2.86,2.86,0,0,1,5.14,0,2.9,2.9,0,1,1,0,2.54,2.86,2.86,0,0,1-5.14.07,2.86,2.86,0,0,1-5.13,0,2.87,2.87,0,0,1-5.15,0,2.86,2.86,0,0,1-2.56,1.6,2.9,2.9,0,0,1-2.56-1.58,2.86,2.86,0,0,1-5.16-.06,2.88,2.88,0,1,1-2.61-4.13Z"/><path class="q" d="M38.22,65.82a.78.78,0,0,0-.56-.24.8.8,0,0,0-.8.81.79.79,0,0,0,.23.56.8.8,0,0,0,.57.24.78.78,0,0,0,.56-.24.81.81,0,0,0,0-1.13Zm.25-2.24a3.06,3.06,0,0,1,.71.33v2.48a1.54,1.54,0,0,1-.45,1.09,1.51,1.51,0,0,1-2.15,0,1.56,1.56,0,0,1,0-2.19,1.51,1.51,0,0,1,1.89-.21Z"/><path class="q" d="M17.66,65.81a.77.77,0,0,0-1.12,0,.81.81,0,0,0,0,1.13.8.8,0,0,0,.56.24.76.76,0,0,0,.56-.24.81.81,0,0,0,0-1.13Zm-.56-1a1.52,1.52,0,0,1,1.08.45,1.54,1.54,0,0,1,.45,1.09,1.51,1.51,0,0,1-.45,1.09,1.5,1.5,0,0,1-2.16,0,1.51,1.51,0,0,1-.45-1.09A1.54,1.54,0,0,1,16,65.28,1.52,1.52,0,0,1,17.1,64.83Z"/><path class="q" d="M22.81,65.78a.8.8,0,0,0-1.36.57.79.79,0,0,0,.23.56.79.79,0,0,0,1.13,0,.79.79,0,0,0,.23-.56.84.84,0,0,0-.23-.57Zm-.56-1a1.48,1.48,0,0,1,1.07.45,1.53,1.53,0,0,1,.45,1.09,1.54,1.54,0,0,1-.45,1.09,1.48,1.48,0,0,1-1.07.45,1.53,1.53,0,0,1-1.09-.45,1.58,1.58,0,0,1-.44-1.09,1.56,1.56,0,0,1,.44-1.09A1.53,1.53,0,0,1,22.25,64.81Z"/><path class="q" d="M31.79,65.86a.8.8,0,0,1,1.47,0Zm.75-1.07a1.52,1.52,0,0,0-1.08.45A1.56,1.56,0,0,0,31,66.33a1.58,1.58,0,0,0,.44,1.09,1.52,1.52,0,0,0,1.08.45,1.5,1.5,0,0,0,1.08-.45,1.62,1.62,0,0,0,.42-.77h-.71a.86.86,0,0,1-1.67-.27h2.41v0a1.53,1.53,0,0,0-.45-1.09A1.5,1.5,0,0,0,32.54,64.79Z"/><path class="q" d="M27.41,64.78a1.49,1.49,0,0,1,1.08.45,1.51,1.51,0,0,1,.45,1h-.73a.89.89,0,0,0-.23-.52.81.81,0,0,0-1.13,0,.89.89,0,0,0-.23.52h0v1.58h-.74V66.27a1.51,1.51,0,0,1,.45-1A1.48,1.48,0,0,1,27.41,64.78Z"/><path class="q" d="M43.36,65.82a.81.81,0,0,0-.56-.23.79.79,0,0,0-.56.23.8.8,0,0,0,0,1.14.79.79,0,0,0,.56.23.81.81,0,0,0,.56-.23.82.82,0,0,0,0-1.14Zm-.56-1a1.52,1.52,0,0,1,1.08.45,1.57,1.57,0,0,1,0,2.18,1.52,1.52,0,0,1-1.08.45,1.5,1.5,0,0,1-1.08-.45,1.55,1.55,0,0,1,0-2.18A1.5,1.5,0,0,1,42.8,64.85Z"/><path class="q" d="M48.52,65.81a.8.8,0,0,0-1.36.56.8.8,0,1,0,1.59,0,.79.79,0,0,0-.23-.56Zm-.56-1a1.48,1.48,0,0,1,1.07.45,1.54,1.54,0,0,1,.45,1.09A1.53,1.53,0,0,1,49,67.46a1.51,1.51,0,0,1-2.15,0,1.53,1.53,0,0,1-.45-1.09,1.54,1.54,0,0,1,.45-1.09A1.49,1.49,0,0,1,48,64.83Z"/><path class="v" d="M27.93,60.52a.8.8,0,0,0-1.12,0,.8.8,0,0,0-.24.57.8.8,0,0,0,1.6,0,.8.8,0,0,0-.24-.57Zm5.13,0a.81.81,0,0,0-1.13,0,.84.84,0,0,0-.23.57.82.82,0,0,0,.23.57.79.79,0,0,0,1.13,0,.82.82,0,0,0,.23-.57.84.84,0,0,0-.23-.57Zm-.57-.93a1.48,1.48,0,0,1,1,.44A1.51,1.51,0,0,1,34,61.09a1.5,1.5,0,0,1-1.49,1.5,1.46,1.46,0,0,1-1-.44A1.49,1.49,0,0,1,31,61.09,1.51,1.51,0,0,1,31.45,60a1.46,1.46,0,0,1,1-.44Zm-10.25,0A1.52,1.52,0,0,1,23.75,61h0V62.6h-.71V61a.9.9,0,0,0-.24-.52.81.81,0,0,0-1.15,0,.83.83,0,0,0-.23.52V62.6h-.71V61h0a1.5,1.5,0,0,1,.44-1,1.52,1.52,0,0,1,1.07-.45Zm21.06.91a.8.8,0,0,0-1.12,0,.8.8,0,0,0,0,1.14.8.8,0,0,0,1.12,0,.8.8,0,0,0,0-1.14Zm-.56-.93a1.48,1.48,0,0,1,1,.44,1.5,1.5,0,0,1,.43,1.06v1.52h-.61v-.3a1.55,1.55,0,0,1-.87.28,1.48,1.48,0,0,1-1.05-.44,1.52,1.52,0,0,1,0-2.12,1.48,1.48,0,0,1,1.05-.44Zm-26,0h.71v3h-.71v-3Zm30.43.11h.37V58.45h.69v1.24h.42v.64h-.42v1.15c0,.28.12.41.44.45v.66c-.69,0-1.15-.17-1.13-1.11V60.33h-.37v-.64Zm-8.81.78a1.34,1.34,0,0,0-.83-.33c-.29,0-.45.33-.16.47l.34.11c.55.16,1.12.33,1.06,1.07a.85.85,0,0,1-.22.5.92.92,0,0,1-.44.25,1.43,1.43,0,0,1-.51.05A2.06,2.06,0,0,1,36.39,62l.38-.5a1.56,1.56,0,0,0,.9.42,1,1,0,0,0,.3,0,.42.42,0,0,0,.15-.08.33.33,0,0,0,.05-.12c0-.23-.3-.33-.61-.42-.51-.15-1-.29-1-.9a.91.91,0,0,1,.15-.52.79.79,0,0,1,.36-.29,1,1,0,0,1,.47-.1,2.06,2.06,0,0,1,1.15.42l-.32.54Zm-11-.87a1.48,1.48,0,0,1,.81.24V58.26h.67v2.83a1.48,1.48,0,1,1-3,0A1.51,1.51,0,0,1,26.32,60a1.47,1.47,0,0,1,1.05-.43Zm0,0Z"/><path class="u" d="M31.79,65.86a.8.8,0,0,1,1.47,0Z"/></svg>