<svg xmlns="http://www.w3.org/2000/svg" viewBox="0 0 840 432"><defs><style>.a{fill:#fcc659;}.b{fill:#f49b51;}.c{fill:#2e4882;}.d{fill:#9aade5;}.e{fill:#fff;}.f{fill:#bac8f3;}.g{fill:#e9ecf2;}.h{fill:#5f2788;}.i{fill:#26b2c9;}</style></defs><title>koin</title><path class="a" d="M153.34,164.28A21.67,21.67,0,1,0,174.41,142,21.66,21.66,0,0,0,153.34,164.28Zm4.22-.59a17.45,17.45,0,0,1,17-17.43H175a17.43,17.43,0,1,1-17.45,17.91Z"/><path class="b" d="M157.56,163.69v.47A17.44,17.44,0,1,0,175,146.25h-.49A17.45,17.45,0,0,0,157.56,163.69Z"/><path class="a" d="M174.05,177v-3.38c-3.34-.55-5.13-3-5.13-5.52,0-2.9,1.69-4.59,5-5.95,2.82-1.17,4-2,4-3.7,0-1.3-1-2.8-3.45-2.8a7.82,7.82,0,0,0-4.09,1.11l-.81-2.15a8.72,8.72,0,0,1,4.22-1.14v-3.15h2v3.28c3,.49,4.91,2.54,4.91,5.24s-2.05,4.32-5.36,5.62c-2.4,1-3.67,2.08-3.67,3.86s1.56,3.19,3.86,3.19a8.66,8.66,0,0,0,4.68-1.4l.78,2.18a9.42,9.42,0,0,1-5,1.43V177Z"/><path class="c" d="M158.27,159.33l.12-.43a17.25,17.25,0,0,1,9.26-10.83l-.2-.42a17.7,17.7,0,0,0-9.51,11.09l-.13.47Z"/><path class="c" d="M167.65,148.07A17.22,17.22,0,0,1,179.26,147l.11-.46a17.58,17.58,0,0,0-11.92,1.1Z"/><path class="c" d="M159.69,172.61l.4-.24a17.08,17.08,0,0,1-2.21-6.34l-.47.06A17.46,17.46,0,0,0,159.69,172.61Z"/><path class="c" d="M160.89,147.57a21.67,21.67,0,0,1,5.59-3.54l-.2-.46a21.8,21.8,0,0,0-5.72,3.62Z"/><path class="c" d="M162.77,181.89l.28-.42a21.43,21.43,0,0,1-6.13-29.27l-.43-.27a21.81,21.81,0,0,0-3.41,12.36A22,22,0,0,0,162.77,181.89Z"/><path class="a" d="M510.77,323.2A21.67,21.67,0,1,0,531.85,301,21.66,21.66,0,0,0,510.77,323.2Zm4.22-.59a17.46,17.46,0,0,1,17-17.43h.49A17.44,17.44,0,1,1,515,323.09C515,322.93,515,322.77,515,322.61Z"/><path class="b" d="M515,322.61c0,.16,0,.32,0,.48a17.44,17.44,0,1,0,17.45-17.92H532A17.46,17.46,0,0,0,515,322.61Z"/><path class="a" d="M531.49,336v-3.38c-3.35-.55-5.13-3-5.13-5.52,0-2.89,1.69-4.58,5-5.95,2.83-1.17,4-2,4-3.7,0-1.3-.94-2.8-3.44-2.8a7.89,7.89,0,0,0-4.1,1.11l-.81-2.15a8.76,8.76,0,0,1,4.23-1.14v-3.15h2v3.28c3,.49,4.91,2.54,4.91,5.24s-2.05,4.32-5.36,5.62c-2.41,1-3.68,2.08-3.68,3.87s1.56,3.18,3.87,3.18a8.66,8.66,0,0,0,4.68-1.4l.78,2.18a9.48,9.48,0,0,1-5,1.43V336Z"/><path class="c" d="M515.71,318.25l.12-.43A17.19,17.19,0,0,1,525.08,307l-.2-.43a17.68,17.68,0,0,0-9.5,11.09l-.13.47Z"/><path class="c" d="M525.08,307a17.17,17.17,0,0,1,11.61-1.07l.12-.46a17.66,17.66,0,0,0-11.93,1.1Z"/><path class="c" d="M517.12,331.53l.41-.24a17.1,17.1,0,0,1-2.22-6.34l-.47.06A17.64,17.64,0,0,0,517.12,331.53Z"/><path class="c" d="M518.33,306.49a21.77,21.77,0,0,1,5.59-3.54l-.2-.46a21.8,21.8,0,0,0-5.72,3.62Z"/><path class="c" d="M520.2,340.81l.29-.42a21.44,21.44,0,0,1-9.46-17.2,21.21,21.21,0,0,1,3.33-12.06l-.43-.28a21.94,21.94,0,0,0,6.27,30Z"/><path class="a" d="M481,108.72a21.67,21.67,0,1,0,21.08-22.25A21.67,21.67,0,0,0,481,108.72Zm4.22-.59a17.46,17.46,0,0,1,17-17.43h.49a17.45,17.45,0,1,1-17.45,17.92C485.2,108.45,485.2,108.29,485.2,108.13Z"/><path class="b" d="M485.2,108.13c0,.16,0,.32,0,.48a17.44,17.44,0,1,0,17.45-17.92h-.49A17.46,17.46,0,0,0,485.2,108.13Z"/><path class="a" d="M501.7,121.48V118.1c-3.35-.56-5.13-3-5.13-5.53,0-2.89,1.69-4.58,5-5.95,2.83-1.16,4-2,4-3.7,0-1.3-.94-2.79-3.44-2.79a7.91,7.91,0,0,0-4.1,1.1l-.81-2.14A8.55,8.55,0,0,1,501.51,98V94.8h2v3.28c3,.49,4.91,2.53,4.91,5.23s-2.05,4.32-5.36,5.62c-2.41,1-3.68,2.08-3.68,3.87S501,116,503.26,116a8.66,8.66,0,0,0,4.68-1.39l.78,2.17a9.39,9.39,0,0,1-5,1.43v3.29Z"/><path class="c" d="M485.92,103.77l.12-.42a17.21,17.21,0,0,1,9.25-10.83l-.2-.43a17.7,17.7,0,0,0-9.5,11.1l-.13.46Z"/><path class="c" d="M495.29,92.52a17.17,17.17,0,0,1,11.61-1.07L507,91a17.72,17.72,0,0,0-11.93,1.1Z"/><path class="c" d="M487.33,117.05l.41-.24a17,17,0,0,1-2.22-6.34l-.47.07A17.59,17.59,0,0,0,487.33,117.05Z"/><path class="c" d="M488.54,92a21.41,21.41,0,0,1,5.59-3.54l-.2-.47a22.1,22.1,0,0,0-5.72,3.63Z"/><path class="c" d="M490.41,126.33l.29-.42a21.42,21.42,0,0,1-6.13-29.26l-.43-.27a21.93,21.93,0,0,0,6.27,30Z"/><path class="a" d="M264,60.19a31.88,31.88,0,1,0,31-32.74A31.88,31.88,0,0,0,264,60.19Zm6.21-.87a25.68,25.68,0,0,1,25-25.64l.72,0A25.66,25.66,0,1,1,270.22,60C270.21,59.79,270.21,59.55,270.21,59.32Z"/><path class="b" d="M270.21,59.32c0,.23,0,.47,0,.7a25.66,25.66,0,1,0,25.67-26.36l-.72,0A25.68,25.68,0,0,0,270.21,59.32Z"/><path class="a" d="M294.48,79V74c-4.92-.81-7.55-4.35-7.55-8.13,0-4.25,2.49-6.74,7.41-8.75,4.16-1.72,5.93-3,5.93-5.45,0-1.91-1.39-4.11-5.07-4.11a11.46,11.46,0,0,0-6,1.63L288,46a12.75,12.75,0,0,1,6.22-1.67V39.7h3v4.83c4.4.72,7.22,3.73,7.22,7.7,0,4.16-3,6.35-7.89,8.27-3.54,1.43-5.4,3.06-5.4,5.69s2.29,4.68,5.69,4.68a12.78,12.78,0,0,0,6.88-2.05l1.15,3.2a14,14,0,0,1-7.31,2.1V79Z"/><path class="c" d="M271.27,52.9c.05-.21.11-.41.17-.62a25.31,25.31,0,0,1,13.62-15.93l-.3-.63a26.06,26.06,0,0,0-14,16.32l-.19.69Z"/><path class="c" d="M285.06,36.35a25.34,25.34,0,0,1,17.08-1.57l.17-.68a26,26,0,0,0-17.55,1.62Z"/><path class="c" d="M273.34,72.44l.6-.35a25.3,25.3,0,0,1-3.26-9.33l-.69.1A25.87,25.87,0,0,0,273.34,72.44Z"/><path class="c" d="M275.12,35.61a31.5,31.5,0,0,1,8.23-5.21l-.3-.68a32.09,32.09,0,0,0-8.42,5.33Z"/><path class="c" d="M277.88,86.1l.41-.62a31.57,31.57,0,0,1-13.91-25.3,31.24,31.24,0,0,1,4.9-17.75l-.63-.4a32,32,0,0,0-5,18.17A32.35,32.35,0,0,0,277.88,86.1Z"/><path class="a" d="M213.69,251.92a31.88,31.88,0,1,0,31-32.73A31.87,31.87,0,0,0,213.69,251.92Zm6.21-.86a25.69,25.69,0,0,1,25-25.65h.71a25.65,25.65,0,1,1-25.67,26.36Z"/><path class="b" d="M219.9,251.06v.7a25.66,25.66,0,1,0,25.67-26.36h-.71A25.69,25.69,0,0,0,219.9,251.06Z"/><path class="a" d="M244.17,270.69v-5c-4.92-.81-7.55-4.35-7.55-8.12,0-4.26,2.48-6.74,7.41-8.75,4.16-1.72,5.92-3,5.92-5.45,0-1.91-1.38-4.11-5.06-4.11a11.65,11.65,0,0,0-6,1.62l-1.19-3.15a12.67,12.67,0,0,1,6.21-1.68v-4.63h3v4.82c4.4.72,7.22,3.73,7.22,7.7,0,4.16-3,6.36-7.89,8.27-3.54,1.44-5.4,3.06-5.4,5.69s2.29,4.69,5.68,4.69a12.73,12.73,0,0,0,6.89-2.06l1.15,3.2a14,14,0,0,1-7.32,2.11v4.83Z"/><path class="c" d="M221,244.64c.05-.21.11-.42.17-.63a25.38,25.38,0,0,1,13.62-15.92l-.29-.64a26,26,0,0,0-14,16.33c-.08.25-.14.47-.19.68Z"/><path class="c" d="M234.74,228.09a25.29,25.29,0,0,1,17.08-1.58l.18-.67a26,26,0,0,0-17.55,1.61Z"/><path class="c" d="M223,264.18l.6-.35a25,25,0,0,1-3.26-9.33l-.69.1A25.93,25.93,0,0,0,223,264.18Z"/><path class="c" d="M224.81,227.35a31.44,31.44,0,0,1,8.22-5.21l-.29-.69a32.13,32.13,0,0,0-8.42,5.34Z"/><path class="c" d="M227.56,277.83l.42-.62a31.52,31.52,0,0,1-9-43l-.63-.4a32.28,32.28,0,0,0,9.23,44.07Z"/><path class="a" d="M647.83,100.41a31.88,31.88,0,1,0,31-32.74A31.87,31.87,0,0,0,647.83,100.41Zm6.21-.87A25.68,25.68,0,0,1,679,73.9l.72,0A25.65,25.65,0,1,1,654,100.24Z"/><path class="b" d="M654,99.54v.7a25.66,25.66,0,1,0,25.68-26.36l-.72,0A25.68,25.68,0,0,0,654,99.54Z"/><path class="a" d="M678.31,119.17v-5c-4.92-.81-7.55-4.35-7.55-8.13,0-4.25,2.48-6.74,7.41-8.75,4.16-1.72,5.93-3,5.93-5.45,0-1.91-1.39-4.11-5.07-4.11a11.53,11.53,0,0,0-6,1.63l-1.19-3.16A12.74,12.74,0,0,1,678,84.56V79.92h3v4.83c4.4.72,7.22,3.73,7.22,7.7,0,4.16-3,6.35-7.89,8.27-3.54,1.43-5.4,3.06-5.4,5.69s2.29,4.68,5.69,4.68a12.81,12.81,0,0,0,6.88-2l1.15,3.2a14,14,0,0,1-7.32,2.1v4.83Z"/><path class="c" d="M655.09,93.12l.18-.62a25.32,25.32,0,0,1,13.61-15.93l-.29-.63a26,26,0,0,0-14,16.32c-.07.26-.14.47-.19.69Z"/><path class="c" d="M668.88,76.57A25.35,25.35,0,0,1,686,75l.18-.68a26,26,0,0,0-17.55,1.62Z"/><path class="c" d="M657.17,112.66l.6-.35a25,25,0,0,1-3.26-9.33l-.69.1A25.87,25.87,0,0,0,657.17,112.66Z"/><path class="c" d="M659,75.83a31.44,31.44,0,0,1,8.22-5.21l-.29-.68a32.09,32.09,0,0,0-8.42,5.33Z"/><path class="c" d="M661.7,126.32l.42-.62a31.52,31.52,0,0,1-9-43l-.63-.4a32.28,32.28,0,0,0,9.23,44.07Z"/><path class="a" d="M548.35,197.09a25.73,25.73,0,1,0,25-26.42A25.72,25.72,0,0,0,548.35,197.09Zm5-.7a20.74,20.74,0,0,1,20.15-20.7h.57A20.71,20.71,0,1,1,553.37,197C553.36,196.76,553.36,196.58,553.36,196.39Z"/><path class="b" d="M553.36,196.39V197a20.72,20.72,0,1,0,20.72-21.27h-.57A20.74,20.74,0,0,0,553.36,196.39Z"/><path class="a" d="M573,212.23v-4c-4-.66-6.1-3.51-6.1-6.56,0-3.44,2-5.44,6-7.06,3.36-1.39,4.79-2.4,4.79-4.4,0-1.55-1.12-3.32-4.09-3.32a9.35,9.35,0,0,0-4.86,1.31l-1-2.55a10.4,10.4,0,0,1,5-1.35v-3.74h2.39v3.9c3.55.58,5.83,3,5.83,6.21,0,3.36-2.43,5.13-6.37,6.68-2.86,1.15-4.36,2.47-4.36,4.59s1.85,3.78,4.59,3.78a10.27,10.27,0,0,0,5.56-1.66l.92,2.58a11.18,11.18,0,0,1-5.9,1.7v3.9Z"/><path class="c" d="M554.21,191.21c0-.17.09-.34.14-.51a20.45,20.45,0,0,1,11-12.85l-.24-.51a21,21,0,0,0-11.28,13.17c-.06.21-.11.38-.15.56Z"/><path class="c" d="M565.34,177.85a20.35,20.35,0,0,1,13.78-1.27l.15-.54a21,21,0,0,0-14.17,1.3Z"/><path class="c" d="M555.89,207l.48-.29a20.24,20.24,0,0,1-2.63-7.52l-.56.07A20.82,20.82,0,0,0,555.89,207Z"/><path class="c" d="M557.32,177.25a25.46,25.46,0,0,1,6.64-4.2l-.24-.55a25.94,25.94,0,0,0-6.79,4.3Z"/><path class="c" d="M559.55,218l.33-.5a25.44,25.44,0,0,1-7.27-34.75l-.51-.32A26,26,0,0,0,559.55,218Z"/><path class="d" d="M53.05,201.57c0,.33,0,.64,0,1,.9,39.24,6.52,69.57,14.57,93L88.49,307l-16.74-1.7-.48,0C81.65,331,95,347.23,107.32,357.48a86.38,86.38,0,0,0,20.9,13c.4.17.78.34,1.16.49q1.44.6,2.76,1.08h11.14c.12-.53.24-1,.35-1.57q.12-.5.21-1c.11-.43.19-.87.28-1.3,10.48-51.26-8.18-90.74-31.29-118.37a1.84,1.84,0,0,0-.23-.27,195.42,195.42,0,0,0-24.68-24.46l-4.26,12.76L82,220.4a193.33,193.33,0,0,0-28.33-18.49Z"/><polygon class="e" points="52.66 201.78 53.07 202.53 78.38 249.09 78.83 249.91 85.73 262.61 85.96 263.04 107.96 303.51 108 303.56 143.84 369.52 144.38 370.51 145.24 372.08 146.21 372.08 145.36 370.51 144.12 368.22 108.74 303.13 108.08 301.93 53.71 201.91 53.41 201.36 52.66 201.78"/><rect class="e" x="70.87" y="236.98" width="0.75" height="34.37" transform="matrix(0.52, -0.85, 0.85, 0.52, -182.66, 182.01)"/><rect class="e" x="67.03" y="229.32" width="0.75" height="26.94" transform="translate(-174.8 173.3) rotate(-58.48)"/><polygon class="e" points="111.46 306.9 115.69 253.17 114.86 253.11 110.64 306.84 111.46 306.9"/><path class="f" d="M148.61,382.79s-25.67,13.82-64.3-6.55l11.85-6.4-19.78,1.83c-15.16-9.46-32-24.21-49.9-46.79L31,322.44,25,323q-4.52-5.79-9.13-12.28a145.3,145.3,0,0,1,26.76-.55l8.64,10.5-2.82-10C80.86,313.83,128.54,328.23,148.61,382.79Z"/><rect class="e" x="82.75" y="269.72" width="0.84" height="151.5" transform="translate(-261.95 260.87) rotate(-62.69)"/><rect class="e" x="32.21" y="330.19" width="18.82" height="0.78" transform="translate(-50.54 10.39) rotate(-8.88)"/><rect class="e" x="38.25" y="335.83" width="22.18" height="0.78" transform="translate(-74.92 19.93) rotate(-13.1)"/><ellipse class="g" cx="413.44" cy="387.23" rx="374.95" ry="17.87"/><path class="b" d="M73.18,373.9c0,3,21.61,5.34,48.25,5.34s48.25-2.39,48.25-5.34a1,1,0,0,0,0-.16V359.32H73.21v14.39A.68.68,0,0,0,73.18,373.9Z"/><ellipse class="a" cx="121.43" cy="359.45" rx="48.25" ry="5.34"/><path class="b" d="M61.78,356.5c0,2.94,21.6,5.34,48.25,5.34s48.25-2.4,48.25-5.34a.88.88,0,0,0,0-.16V341.92H61.81v14.39A.63.63,0,0,0,61.78,356.5Z"/><ellipse class="a" cx="110.03" cy="342.05" rx="48.25" ry="5.34"/><path class="b" d="M73.18,339.1c0,2.94,21.61,5.34,48.25,5.34s48.25-2.4,48.25-5.34a.88.88,0,0,0,0-.16V324.52H73.21v14.39A.58.58,0,0,0,73.18,339.1Z"/><ellipse class="a" cx="121.43" cy="324.65" rx="48.25" ry="5.34"/><path class="c" d="M121.43,379.81c19.62,0,48.82-1.58,48.82-5.91h-1.14c0,1.66-16.38,4.77-47.68,4.77l-3.39,0v1.14Z"/><path class="c" d="M102.3,379.37l0-1.14c-4.88-.23-9.36-.55-13.31-1l-.12,1.13C92.89,378.81,97.39,379.14,102.3,379.37Z"/><path class="c" d="M140.47,361.12c18.13-1.65,18.13-3.93,18.13-4.69h-1.14c0,.56-3.07,2.28-17.09,3.56Z"/><path class="c" d="M109.78,362.34c5.43,0,10.75-.1,15.84-.29l-.05-1.14c-9.07.35-19.11.39-28.46.1l0,1.14C101.22,362.28,105.49,362.34,109.78,362.34Z"/><path class="c" d="M85.1,361.59l.07-1.14c-5.14-.34-9.63-.77-13.34-1.3l-.16,1.13C75.41,360.81,79.92,361.25,85.1,361.59Z"/><path class="c" d="M153.88,329.19C170,327.55,170,325.48,170,324.7h-1.14s-.41,1.87-15.06,3.36Z"/><path class="c" d="M121.14,330.61c5.54,0,11-.1,16.12-.31l0-1.14c-5.14.21-10.55.31-16.08.31-9.91,0-19.42-.33-27.51-1l-.08,1.13C101.67,330.28,111.21,330.61,121.14,330.61Z"/><path class="b" d="M56.08,321.7c0,2.94,21.6,5.33,48.25,5.33s48.25-2.39,48.25-5.33a.88.88,0,0,0,0-.16V307.12H56.11V321.5A.69.69,0,0,0,56.08,321.7Z"/><ellipse class="a" cx="104.33" cy="307.25" rx="48.25" ry="5.34"/><path class="b" d="M65,307.25c0,2,17.6,3.59,39.3,3.59s39.3-1.61,39.3-3.59-17.59-3.59-39.3-3.59S65,305.27,65,307.25Z"/><path class="d" d="M782.91,201.57c0,.33,0,.64,0,1-.91,39.24-6.53,69.57-14.57,93L747.47,307l16.74-1.7.48,0C754.31,331,741,347.23,728.63,357.48a86.38,86.38,0,0,1-20.9,13c-.39.17-.77.34-1.16.49-1,.4-1.88.76-2.76,1.08H692.68c-.13-.53-.25-1-.36-1.57-.07-.33-.15-.66-.21-1s-.19-.87-.27-1.3C681.36,317,700,277.48,723.12,249.85l.23-.27A195.47,195.47,0,0,1,748,225.12l4.26,12.76,1.62-17.48a192.91,192.91,0,0,1,28.32-18.49Z"/><polygon class="e" points="783.29 201.78 782.89 202.53 757.58 249.09 757.12 249.91 750.23 262.61 749.99 263.04 727.99 303.51 727.96 303.56 692.11 369.52 691.57 370.51 690.72 372.08 689.75 372.08 690.59 370.51 691.84 368.22 727.22 303.13 727.87 301.93 782.24 201.91 782.54 201.36 783.29 201.78"/><rect class="e" x="747.53" y="253.79" width="34.37" height="0.75" transform="translate(-20.04 437.33) rotate(-31.52)"/><rect class="e" x="755.09" y="242.41" width="26.94" height="0.75" transform="translate(-13.52 437.66) rotate(-31.52)"/><polygon class="e" points="724.49 306.9 720.27 253.17 721.09 253.11 725.32 306.84 724.49 306.9"/><path class="f" d="M687.35,382.79s25.67,13.82,64.29-6.55l-11.84-6.4,19.78,1.83c15.15-9.46,32-24.21,49.9-46.79L805,322.44l6,.55q4.53-5.79,9.14-12.28a145.37,145.37,0,0,0-26.76-.55l-8.65,10.5,2.82-10C755.1,313.83,707.41,328.23,687.35,382.79Z"/><rect class="e" x="677.03" y="345.05" width="151.5" height="0.84" transform="translate(-74.6 383.88) rotate(-27.31)"/><rect class="e" x="793.94" y="321.17" width="0.78" height="18.82" transform="translate(345.08 1064.35) rotate(-81.12)"/><rect class="e" x="786.22" y="325.13" width="0.78" height="22.18" transform="matrix(0.23, -0.97, 0.97, 0.23, 280.85, 1026.16)"/><path class="b" d="M669.4,373.9c0,3,21.6,5.34,48.25,5.34s48.25-2.39,48.25-5.34a1,1,0,0,0,0-.16V359.32H669.43v14.39A.68.68,0,0,0,669.4,373.9Z"/><ellipse class="a" cx="717.65" cy="359.45" rx="48.25" ry="5.34"/><path class="b" d="M658,356.5c0,2.94,21.61,5.34,48.26,5.34s48.25-2.4,48.25-5.34a.88.88,0,0,0,0-.16V341.92H658v14.39A.65.65,0,0,0,658,356.5Z"/><ellipse class="a" cx="706.25" cy="342.05" rx="48.25" ry="5.34"/><path class="b" d="M669.4,339.1c0,2.94,21.6,5.34,48.25,5.34s48.25-2.4,48.25-5.34a.88.88,0,0,0,0-.16V324.52H669.43v14.39A.58.58,0,0,0,669.4,339.1Z"/><ellipse class="a" cx="717.65" cy="324.65" rx="48.25" ry="5.34"/><path class="c" d="M717.64,379.81c19.63,0,48.83-1.58,48.83-5.91h-1.14c0,1.66-16.38,4.77-47.69,4.77l-3.38,0v1.14Z"/><path class="c" d="M698.51,379.37l.06-1.14c-4.89-.23-9.37-.55-13.32-1l-.11,1.13C689.11,378.81,693.61,379.14,698.51,379.37Z"/><path class="c" d="M736.69,361.12c18.13-1.65,18.13-3.93,18.13-4.69h-1.14c0,.56-3.07,2.28-17.09,3.56Z"/><path class="c" d="M706,362.34c5.42,0,10.75-.1,15.83-.29l0-1.14c-9.08.35-19.11.39-28.47.1l0,1.14C697.43,362.28,701.71,362.34,706,362.34Z"/><path class="c" d="M681.31,361.59l.08-1.14c-5.15-.34-9.64-.77-13.34-1.3l-.16,1.13C671.62,360.81,676.14,361.25,681.31,361.59Z"/><path class="c" d="M750.09,329.19c16.08-1.64,16.08-3.71,16.08-4.49H765s-.41,1.87-15,3.36Z"/><path class="c" d="M717.35,330.61c5.55,0,11-.1,16.13-.31l-.05-1.14c-5.13.21-10.55.31-16.08.31-9.9,0-19.41-.33-27.5-1l-.09,1.13C697.88,330.28,707.42,330.61,717.35,330.61Z"/><path class="b" d="M652.29,321.7c0,2.94,21.61,5.33,48.26,5.33s48.25-2.39,48.25-5.33a.88.88,0,0,0,0-.16V307.12H652.33V321.5A.48.48,0,0,0,652.29,321.7Z"/><ellipse class="a" cx="700.55" cy="307.25" rx="48.25" ry="5.34"/><path class="b" d="M661.25,307.25c0,2,17.59,3.59,39.3,3.59s39.3-1.61,39.3-3.59-17.6-3.59-39.3-3.59S661.25,305.27,661.25,307.25Z"/><path class="h" d="M477.67,73.06l-27.42,36.6L413.44,54.78l-36.8,54.88-27.42-36.6a95.55,95.55,0,1,0,128.45,0ZM413.44,210.23A41.54,41.54,0,1,1,455,168.69,41.56,41.56,0,0,1,413.44,210.23Z"/><circle class="i" cx="413.44" cy="168.69" r="24.92"/><path class="h" d="M213.3,285.33v92.16H190.85V322.22l-20.61,55.27H152.12l-20.74-55.4v55.4H108.93V285.33h26.52l25.86,63.8,25.61-63.8Z"/><path class="h" d="M304.28,304.23l-45.95,108H234.18L251,375l-29.8-70.76h25.08l16.93,45.82L280,304.23Z"/><path class="h" d="M379,329.63a27.06,27.06,0,0,1-11.29,10.71q-7.6,4.07-18.9,4.06H334.87v33.09H312.42V285.33h36.37q11,0,18.64,3.8a26.14,26.14,0,0,1,11.42,10.51A30.49,30.49,0,0,1,382.66,315,29.63,29.63,0,0,1,379,329.63Zm-22.32-6.1c2.11-2,3.16-4.86,3.16-8.53s-1.05-6.52-3.16-8.54-5.29-3-9.58-3H334.87v23.11h12.21Q353.52,326.55,356.66,323.53Z"/><path class="h" d="M408.32,373.94a33.66,33.66,0,0,1-13.52-13.12,39.28,39.28,0,0,1-4.92-20,38.86,38.86,0,0,1,5-19.89,33.83,33.83,0,0,1,13.65-13.19,43.34,43.34,0,0,1,38.86,0A33.86,33.86,0,0,1,461,321a39,39,0,0,1,5,19.89,38.5,38.5,0,0,1-5,19.89,34.18,34.18,0,0,1-13.79,13.19,41.13,41.13,0,0,1-19.49,4.6A40.4,40.4,0,0,1,408.32,373.94Zm30.33-19.56q4.53-4.72,4.53-13.52t-4.4-13.52a14.91,14.91,0,0,0-21.72-.07q-4.33,4.67-4.34,13.59T417,354.38a13.81,13.81,0,0,0,10.7,4.73A14.63,14.63,0,0,0,438.65,354.38Z"/><path class="i" d="M489.26,296.62a13.44,13.44,0,0,0,9.52-3.48,11.3,11.3,0,0,0,3.74-8.6,11.44,11.44,0,0,0-3.74-8.73,13.44,13.44,0,0,0-9.52-3.48,13.6,13.6,0,0,0-9.65,3.48,11.44,11.44,0,0,0-3.74,8.73,11.3,11.3,0,0,0,3.74,8.6A13.6,13.6,0,0,0,489.26,296.62Z"/><rect class="h" x="477.97" y="304.23" width="22.45" height="73.26"/><path class="h" d="M581.88,311.78q7.68,8.34,7.68,22.91v42.8H567.24V337.71q0-7.35-3.8-11.42a13.36,13.36,0,0,0-10.25-4.07c-4.28,0-7.7,1.35-10.23,4.07s-3.81,6.52-3.81,11.42v39.78H516.7V304.23h22.45V314a23.55,23.55,0,0,1,9.19-7.68,29.08,29.08,0,0,1,13-2.83Q574.2,303.44,581.88,311.78Z"/><path class="h" d="M646,358.45v19H634.59q-12.21,0-19-6T608.73,352V322.87H599.8V304.23h8.93V286.38h22.45v17.85h14.7v18.64h-14.7v29.41c0,2.19.53,3.76,1.58,4.73s2.8,1.44,5.25,1.44Z"/><path class="h" d="M671.22,375.26a29.17,29.17,0,0,1-11.82-9,23.6,23.6,0,0,1-4.85-12.8h22.18a8.55,8.55,0,0,0,3.55,6.17A12.5,12.5,0,0,0,688,362a11.09,11.09,0,0,0,6.5-1.64,5,5,0,0,0,2.3-4.27c0-2.1-1.1-3.65-3.28-4.66a66.41,66.41,0,0,0-10.63-3.35,100.33,100.33,0,0,1-13.14-3.87,22.65,22.65,0,0,1-9-6.44q-3.81-4.39-3.81-11.88a20.13,20.13,0,0,1,3.48-11.48,23.38,23.38,0,0,1,10.24-8.21,39.27,39.27,0,0,1,16.08-3q13.78,0,21.73,6.83t9.12,18.12H696.82a8.93,8.93,0,0,0-3.35-6,11.58,11.58,0,0,0-7.41-2.24,10.28,10.28,0,0,0-6,1.51,4.81,4.81,0,0,0-2.1,4.14q0,3.15,3.34,4.73a53.77,53.77,0,0,0,10.44,3.15A115.1,115.1,0,0,1,705,337.51a22.92,22.92,0,0,1,9,6.57q3.87,4.53,4,12.14a19.33,19.33,0,0,1-3.61,11.49A23.89,23.89,0,0,1,704,375.65a39.78,39.78,0,0,1-15.69,2.89A42.09,42.09,0,0,1,671.22,375.26Z"/></svg>