<svg xmlns="http://www.w3.org/2000/svg" viewBox="0 0 150 150"><defs><style>.a{fill:#14b8a6;}.b{fill:#fff;}</style></defs><title>MyPoints</title><circle class="a" cx="75" cy="75" r="75"/><path class="b" d="M47.44,79.54H72.66v37.69H50.51C49.49,104.73,48.47,92.29,47.44,79.54Z"/><path class="b" d="M99.53,117.27H77.46V79.54h25.12C101.56,92.16,100.55,104.61,99.53,117.27Z"/><path class="b" d="M74.91,55.3c1.16-4.66,2.17-9.43,3.56-14.09a11.73,11.73,0,0,1,8.35-8.08c5.35-1.59,10,1.68,10.26,7.25.16,4.2-1.32,8-4.83,10.3-4.87,3.18-10.08,5.85-15.19,8.64a3.76,3.76,0,0,1-2.5.26c-5.24-1.29-10.54-2.4-15.63-4.15C55.2,54.15,53.16,51,52.6,47a6.52,6.52,0,0,1,5.94-7.59,10.31,10.31,0,0,1,10.34,5C71.11,47.91,72.94,51.7,74.91,55.3Zm1.77,1.18.92.64c3.11-2.62,6.42-5.06,9.26-8,1.42-1.44,2.16-3.65,2.88-5.64a3,3,0,0,0-.65-2.72,3.19,3.19,0,0,0-2.8.21,9.6,9.6,0,0,0-3.67,3.11C80.44,48.13,78.63,52.34,76.68,56.48Zm-3.47.89c-2.42-4-4.46-8.35-8.79-10.54-1.34-.68-3.16-.41-4.76-.57.48,1.6.55,3.52,1.51,4.73C64.19,54.78,68.86,55.78,73.21,57.37Z"/><path class="b" d="M72.7,61.79V74.86h-29L42.5,61.79Z"/><path class="b" d="M77.5,61.75h30c-.37,4.41-.73,8.65-1.11,13.1H77.5Z"/></svg>