<svg xmlns="http://www.w3.org/2000/svg" viewBox="0 0 150 150"><defs><style>.a{fill:#d14343;}.b{fill:#fff;}</style></defs><title>MyPoints</title><circle class="a" cx="75" cy="75" r="75"/><path class="b" d="M29.27,76.1c.15-21.84,12.89-39.67,32.08-45.95,21.54-7.06,45.58,3.79,54.94,24.86,6.46,14.56,5.77,28.94-1.44,43.07-1.17,2.28-3.4,3.15-5.48,2.18s-2.74-3.05-2-5.42c1.58-4.68,3.81-9.27,4.57-14.09,3.44-21.74-11.58-40.9-31.42-43.93C59.82,33.65,41.22,48.44,38,68.6,35,88.16,46.47,106.9,65,112.1c11.7,3.28,22.47,1.07,32.21-6.16,2.27-1.69,4.44-1.61,6,.33s1.28,4.24-.93,6.09c-15.27,12.8-39.06,12.87-55,.09A46.6,46.6,0,0,1,29.27,76.1Z"/><path class="b" d="M86.05,86.64H55.38a14.08,14.08,0,0,1-2.75-.19,3.7,3.7,0,0,1-3.08-4,3.91,3.91,0,0,1,3.37-3.78,4.44,4.44,0,0,1,.63,0c14.14,0,28.27,0,42.41,0a3.78,3.78,0,0,1,4,4.4,4.46,4.46,0,0,1-1.11,2.22q-5.62,5.82-11.37,11.53A4,4,0,0,1,81.9,97a3.88,3.88,0,0,1,0-5.7c1.41-1.46,3-2.79,4.46-4.18Z"/><path class="b" d="M63.46,65.78H65.7c9.87,0,19.73,0,29.6,0,3.1,0,4.81,1.59,4.68,4.2a3.86,3.86,0,0,1-3.27,3.64,7.45,7.45,0,0,1-1.06.08h-42a3.8,3.8,0,0,1-3.88-2.42,3.9,3.9,0,0,1,1.06-4.46c3.67-3.66,7.29-7.37,11-11,1.89-1.87,4.23-2,5.85-.41s1.58,4-.33,5.81c-1.4,1.36-3,2.53-4.48,3.79Z"/></svg>